<?xml version="1.0" standalone="no"?>
<!DOCTYPE svg PUBLIC "-//W3C//DTD SVG 1.1//EN" "http://www.w3.org/Graphics/SVG/1.1/DTD/svg11.dtd" >
<svg xmlns="http://www.w3.org/2000/svg">
<metadata>
Created by FontPrep 20130207 at Tue Sep  1 20:51:13 2015
 By Nico Watine
Copyright (c) 2013 by Gumpita Rahayu. All rights reserved.
</metadata>
<defs>
<font id="92ea731d3af6677905303c88689f5d55" horiz-adv-x='1024' >
  <font-face 
    font-family="Track"
    font-weight="400"
    font-stretch="normal"
    units-per-em="2048"
    panose-1="2 0 0 0 0 0 0 0 0 0"
    ascent="1536"
    descent="-512"
    x-height="1636"
    cap-height="1638"
    bbox="-135 -602 2533 2087"
    underline-thickness="102"
    underline-position="-98"
    unicode-range="U+0020-2122"
  />
<missing-glyph horiz-adv-x="516" 
 />
    <glyph glyph-name=".notdef" horiz-adv-x="516" 
 />
    <glyph glyph-name=".null" horiz-adv-x="0" 
 />
    <glyph glyph-name="nonmarkingreturn" horiz-adv-x="577" 
 />
    <glyph glyph-name="space" unicode=" " horiz-adv-x="577" 
 />
    <glyph glyph-name="space" unicode="&#xa0;" horiz-adv-x="577" 
 />
    <glyph glyph-name="exclam" unicode="!" 
d="M393 66q0 -25 -19.5 -45.5t-47.5 -20.5h-140q-29 0 -45 20.5t-16 45.5l-2 151q0 25 17.5 45.5t45.5 20.5h140q29 0 48 -20.5t19 -45.5v-151zM393 498q0 -25 -19.5 -45.5t-47.5 -20.5h-140q-29 0 -47 20.5t-18 45.5v1075q0 25 18.5 45t46.5 20h140q29 0 48 -20.5t19 -44.5
v-1075z" />
    <glyph glyph-name="quotedbl" unicode="&#x22;" horiz-adv-x="862" 
d="M571 1063q-25 0 -45 19.5t-20 47.5v451q0 29 20.5 47.5t44.5 18.5h125q25 0 45.5 -18.5t20.5 -47.5v-451q0 -29 -20.5 -48t-45.5 -19h-125zM170 1063q-25 0 -45.5 19.5t-20.5 47.5v451q0 29 20.5 47.5t45.5 18.5h125q25 0 45 -18.5t20 -47.5v-451q0 -29 -20.5 -48
t-44.5 -19h-125z" />
    <glyph glyph-name="numbersign" unicode="#" horiz-adv-x="1458" 
d="M487 676h318l57 231h-317zM1311 481q0 -25 -19.5 -45t-48.5 -20h-231l-88 -350q-6 -25 -32 -45.5t-54 -20.5h-140q-29 0 -41 20.5t-6 45.5l88 350h-317l-88 -350q-6 -25 -30.5 -45.5t-53.5 -20.5h-135q-29 0 -42.5 20.5t-6.5 45.5l84 350h-82q-29 0 -47.5 20.5
t-18.5 44.5v129q0 25 16.5 45.5t44.5 20.5h152l57 231h-127q-29 0 -47 20.5t-18 45.5v129q0 25 18.5 45t46.5 20h193l104 406q6 25 30 45t52 20h140q29 0 43 -20.5t8 -44.5l-105 -406h318l104 406q6 25 29.5 45t52.5 20h139q29 0 43.5 -20.5t8.5 -44.5l-105 -406h125
q29 0 48.5 -20.5t19.5 -44.5v-129q0 -25 -19.5 -45.5t-48.5 -20.5h-190l-58 -231h166q29 0 48.5 -20.5t19.5 -45.5v-129z" />
    <glyph glyph-name="dollar" unicode="$" horiz-adv-x="1368" 
d="M365.5 1146.5q-1.5 -40.5 38.5 -80.5t88 -52l53 -15v387q-63 -16 -111 -62t-58 -91q-9 -46 -10.5 -86.5zM1001 419.5q0 51.5 3.5 87.5t-33.5 73q-39 32 -154 63v-393q70 16 127 67t57 102.5zM301 588q68 0 68 -98q0 -32 4 -72q14 -63 60 -109.5t112 -60.5v459
q-216 58 -294.5 115t-116.5 121.5t-38 154.5v28q0 94 13 142l-3 -2q27 153 151.5 263t287.5 126v108q0 25 18.5 45.5t46.5 20.5h140q29 0 48 -20.5t19 -45.5v-108q144 -20 264 -115q70 -55 109 -154.5t35 -218.5q-2 -31 -10.5 -55.5t-55.5 -24.5h-135q-29 0 -46 20.5
t-20 45.5q-7 199 -141 231v-462q57 -16 100.5 -27.5t98.5 -31.5t117 -61q63 -42 103 -116t40 -156q0 -139 -43.5 -255t-107.5 -173q-113 -101 -308 -118v-99q0 -25 -19.5 -45t-47.5 -20h-140q-29 0 -47 20.5t-18 44.5v101q-119 10 -218.5 69.5t-158.5 157.5
q-64 95 -68 177.5t-4 115.5t9.5 57.5t56.5 24.5h139z" />
    <glyph glyph-name="percent" unicode="%" horiz-adv-x="1808" 
d="M436 0h-160q-29 0 -34.5 18.5t10.5 42.5l1071 1721q16 25 26.5 35t39.5 10h159q29 0 36 -20.5t-9 -45.5l-1071 -1720q-16 -25 -27.5 -33t-40.5 -8zM717 1137q0 -132 -94 -226t-224 -94h-32q-122 0 -211.5 87.5t-89.5 217.5v400q0 130 89.5 217.5t211.5 87.5h32
q130 0 224 -94t94 -226v-370zM526 1507q0 53 -36.5 89t-90.5 36h-32q-45 0 -78 -31.5t-33 -78.5v-400q0 -47 33 -78.5t78 -31.5h32q53 0 90 36.5t37 88.5v370zM1384 0q-122 0 -211.5 87.5t-89.5 217.5v400q0 130 89.5 217.5t211.5 87.5h33q128 0 223 -95t95 -225v-371
q0 -130 -94.5 -224.5t-223.5 -94.5h-33zM1542 690q0 51 -36 88t-89 37h-33q-45 0 -77.5 -31.5t-32.5 -78.5v-400q0 -47 32.5 -78.5t77.5 -31.5h33q53 0 89 35.5t36 88.5v371z" />
    <glyph glyph-name="ampersand" unicode="&#x26;" horiz-adv-x="1499" 
d="M1235 516q0 -99 -29 -166q14 -16 57.5 -61t122 -133.5t78.5 -109.5t-15 -33.5t-36 -12.5h-211q-37 0 -137 125q-148 -125 -332 -125h-158q-232 0 -378 162t-146 397q-2 143 37 253t160 198q-27 64 -27 160q0 195 109.5 332.5t283.5 137.5h109q164 0 267.5 -128.5
t103.5 -290.5v-125q0 -51 -47 -52h-162q-42 0 -45.5 51.5t-3.5 146t-78 116.5q-29 10 -88 10q-112 0 -152.5 -51.5t-40.5 -173.5v-13q16 -38 132 -159t210.5 -211.5t153.5 -149.5v17q0 27 9 46t40 19h164q60 0 54.5 -78.5t-5.5 -97.5zM307 582q0 -136 69 -226t199 -90h158
q88 0 154 56l-475 489q-55 -39 -80 -102.5t-25 -126.5z" />
    <glyph glyph-name="quotesingle" unicode="'" horiz-adv-x="462" 
d="M170 1063q-25 0 -45.5 19.5t-20.5 47.5v451q0 29 20.5 47.5t45.5 18.5h125q25 0 45 -18.5t20 -47.5v-451q0 -29 -20.5 -48t-44.5 -19h-125z" />
    <glyph glyph-name="parenleft" unicode="(" horiz-adv-x="755" 
d="M330 156q0 -68 41 -125.5t89 -77.5t76.5 -22.5t63.5 -2.5h23q29 0 49 -19.5t20 -47.5v-140q0 -29 -20.5 -46t-48.5 -17h-23q-86 0 -154 11q-67 11 -141 56.5t-159 150t-85 280.5l-4 1061v159q0 181 129.5 337.5t254 160.5t159.5 4h23q29 0 49 -17.5t20 -45.5v-140
q0 -29 -20.5 -48t-48.5 -19h-23q-83 0 -136 -23q-52 -23 -93 -82t-41 -127v-1220z" />
    <glyph glyph-name="parenright" unicode=")" horiz-adv-x="755" 
d="M692 156q0 -179 -130 -334.5t-252 -159.5t-156 -4h-23q-29 0 -49.5 17.5t-20.5 45.5v140q0 29 20.5 48t49.5 19h21q79 0 131 23t94.5 80t42.5 125v1220q0 68 -42 127.5t-90 79.5t-76 22.5t-62 2.5h-23q-29 0 -49.5 19.5t-20.5 47.5v140q0 29 20.5 46t49.5 17h23
q84 0 152 -11q69 -11 143.5 -56.5t160.5 -148.5t86 -286v-1220z" />
    <glyph glyph-name="asterisk" unicode="*" horiz-adv-x="854" 
d="M457 885h-103q-55 0 -55 57v102l-100 -55q-45 -27 -76 21l-64 104q-10 18 -15 40t28 38l123 63l-119 74q-42 25 -19 78l72 96q31 39 76 13l92 -58l2 119q0 57 55 57h103q23 0 38 -15t15 -38l2 -123l92 58q43 27 74 -13l74 -96q24 -49 -19 -78l-119 -76q29 -16 56.5 -29.5
t71.5 -36.5t8 -75l-74 -104q-31 -43 -74 -17l-90 51l-2 -100q0 -57 -53 -57z" />
    <glyph glyph-name="plus" unicode="+" horiz-adv-x="1007" 
d="M565 1178q25 0 45.5 -19.5t20.5 -48.5v-201h198q29 0 48.5 -20.5t19.5 -44.5v-129q0 -25 -19.5 -45.5t-48.5 -20.5h-198v-200q0 -29 -20.5 -47.5t-45.5 -18.5h-129q-25 0 -45 18.5t-20 47.5v200h-203q-29 0 -47.5 20.5t-18.5 45.5v129q0 25 18.5 45t47.5 20h203v201
q0 29 20.5 48.5t44.5 19.5h129z" />
    <glyph glyph-name="comma" unicode="," 
d="M264 -166h-86q-29 0 -30 13.5t2 23.5l32 129h-16q-29 0 -47.5 20.5t-18.5 45.5v151q0 25 18.5 45.5t47.5 20.5h160q29 0 48 -20.5t19 -45.5v-151q6 -8 -6 -27l-74 -174q-8 -20 -19 -25.5t-30 -5.5z" />
    <glyph glyph-name="hyphen" unicode="-" horiz-adv-x="1007" 
d="M885 715q0 -25 -19.5 -45.5t-48.5 -20.5h-661q-29 0 -47.5 20.5t-18.5 45.5v129q0 25 18.5 45t47.5 20h661q29 0 48.5 -20.5t19.5 -44.5v-129z" />
    <glyph glyph-name="period" unicode="." 
d="M393 66q0 -25 -19.5 -45.5t-47.5 -20.5h-140q-29 0 -47 20.5t-18 45.5v151q0 25 18.5 45.5t46.5 20.5h140q29 0 48 -20.5t19 -45.5v-151z" />
    <glyph glyph-name="slash" unicode="/" horiz-adv-x="1116" 
d="M246 0h-135q-29 0 -38.5 20.5t1.5 45.5l694 1720q14 45 72 45h159q29 0 40.5 -20.5t0.5 -45.5l-718 -1720q-20 -45 -76 -45z" />
    <glyph glyph-name="zero" unicode="0" horiz-adv-x="1335" 
d="M393 473q0 -94 69 -159.5t161 -65.5h59q107 0 182.5 74t75.5 178v641q0 102 -75 177t-183 75h-59q-93 0 -161.5 -66.5t-68.5 -159.5v-694zM1210 500q0 -213 -155 -364.5t-373 -151.5h-59q-209 0 -353.5 142.5t-144.5 346.5v694q0 206 146 350t352 144h59
q215 0 329.5 -111.5t156.5 -207t42 -201.5v-641z" />
    <glyph glyph-name="one" unicode="1" horiz-adv-x="1011" 
d="M133 0q-41 0 -53 21.5t-12 60.5v100q0 41 15 60.5t60 19.5h222v1110h-215q-41 0 -53.5 21.5t-12.5 60.5v105q0 41 16.5 60t63.5 19h407q47 0 56.5 -24.5t9.5 -54.5v-1297h233q47 0 63.5 -19.5t16.5 -60.5v-100q0 -39 -12 -60.5t-53 -21.5h-752z" />
    <glyph glyph-name="two" unicode="2" horiz-adv-x="1261" 
d="M1171 70q0 -25 -20.5 -47.5t-48.5 -22.5h-957q-29 0 -46 22.5t-17 47.5l-2 376q0 89 20.5 131t106.5 97l571 442q55 44 66 55q66 72 51 146q-16 74 -117 74h-219q-98 0 -141 -25t-60 -100q-4 -40 -4 -56v-8q0 -39 -13 -55.5t-54 -16.5h-137q-43 0 -54.5 16.5t-11.5 55.5
v37q0 133 47 229q33 60 116 124t312 65h225q219 0 318 -130t63 -304.5t-180 -284.5l-635 -481v-176h752q29 0 49 -22.5t20 -49.5v-139z" />
    <glyph glyph-name="three" unicode="3" horiz-adv-x="1294" 
d="M211 1362q-53 0 -67.5 14.5t-14.5 67.5v115q0 31 8 55t62 24h886q29 0 47.5 -20.5t18.5 -44.5v-129q0 -29 -16 -45l-328 -469l188 -164q169 -116 201.5 -301t-79.5 -325t-337 -140h-225q-229 0 -313 64t-113 123q-47 97 -47 231v37q0 39 10 55t53 16h138q41 0 54 -16
t13 -55v-9q0 -13 4 -55q16 -76 59.5 -100.5t141.5 -24.5h219q100 0 135 85q47 114 -116 245l-236 184q-68 53 -60.5 101.5t44.5 101.5l256 379h-586z" />
    <glyph glyph-name="four" unicode="4" horiz-adv-x="1337" 
d="M809 649v561l-412 -561h412zM1081 649h127q53 0 66.5 -14t13.5 -68v-100q0 -31 -10 -56.5t-57 -25.5h-140v-305q0 -47 -19.5 -63.5t-60.5 -16.5h-110q-39 0 -60.5 12.5t-21.5 53.5v319h-705q-45 0 -54 25.5t-9 56.5v88q0 28 14 51l754 1012q20 20 65 20h142
q47 0 56 -24.5t9 -54.5v-910z" />
    <glyph glyph-name="five" unicode="5" horiz-adv-x="1292" 
d="M588 2q-230 0 -316 64t-114 124q-46 98 -45 230v37q0 39 11 55t54 16h137q41 0 54.5 -16t13.5 -55v-8q0 -14 4 -56q16 -76 59 -100.5t142 -24.5h194q100 0 117 74q2 4 2 18v183q0 133 -42 167.5t-125 38.5q-83 3 -212 3t-325 -4q-29 0 -49.5 22.5t-16.5 48.5l-4 748
q0 25 18.5 47t47.5 22h858q29 0 49 -22.5t20 -46.5v-140q0 -27 -20.5 -49t-48.5 -22h-652v-338h363q126 0 207.5 -39t145.5 -123t65 -313v-189q0 -148 -100 -250t-292 -102h-200z" />
    <glyph glyph-name="six" unicode="6" horiz-adv-x="1318" 
d="M381 381q0 -35 18 -74q23 -35 95 -35h335q63 0 93 66q27 70 -35 133q-14 22 -63.5 52.5t-129.5 82.5t-157.5 100t-155.5 97v-422zM479 0q-282 0 -326 148.5t-44 232.5v862q0 159 99 276t271 117h230q227 0 321 -64t124 -126q50 -104 50 -234v-36q0 -39 -11 -55.5
t-54 -16.5h-138q-41 0 -54 16.5t-13 55.5v8q0 15 -4 55q-16 76 -69.5 103.5t-151.5 27.5h-224q-66 -6 -85 -42t-19 -93v-133l516 -297q29 -16 68 -42l99 -66t101 -109.5t62.5 -194t-77.5 -259t-306 -134.5h-365z" />
    <glyph glyph-name="seven" unicode="7" horiz-adv-x="1259" 
d="M809 1362h-371q-74 0 -93 -37t-19 -72v-57q0 -25 -19.5 -45.5t-48.5 -20.5h-139q-29 0 -47.5 20.5t-18.5 45.5v57q0 276 135.5 328.5t235.5 52.5h377q154 0 241.5 -49t121.5 -128t16.5 -177t-74.5 -195l-596 -1015q-40 -70 -107 -70h-176q-41 0 -54 29.5t17 81.5
l668 1108q50 89 16 116t-65 27z" />
    <glyph glyph-name="eight" unicode="8" horiz-adv-x="1294" 
d="M778 1401h-258q-70 0 -99.5 -16.5t-41.5 -57.5q-18 -95 51 -156l66 -59l143 -111l139 111l66 59q68 61 52 145q-17 85 -118 85zM451 260h366q101 0 117 78t-51 147l-66 70l-186 147l-180 -147q-50 -50 -66 -70q-68 -70 -51 -149q14 -76 117 -76zM489 1657h295
q222 0 320.5 -134t62.5 -307t-182 -278l-133 -96l172 -123q146 -105 182 -279.5t-63.5 -307t-319.5 -132.5h-379q-212 0 -310 131t-64 306.5t174 281.5l168 127l-123 92q-90 68 -139.5 160t-55.5 186t34 179.5t131 139.5q92 54 230 54z" />
    <glyph glyph-name="nine" unicode="9" horiz-adv-x="1325" 
d="M926 1257q0 39 -21 72q-16 37 -92 37h-336q-68 0 -94 -68q-29 -66 37 -131q15 -23 62.5 -53.5t101.5 -64.5l342 -213v421zM463 1638h364q371 0 371 -381v-862q0 -160 -99.5 -276.5t-271.5 -116.5h-229q-227 0 -322 66q-101 75 -128 132q-46 96 -46 226v37q0 39 11.5 55.5
t54.5 16.5h137q41 0 54.5 -16.5t13.5 -55.5v-8q0 -14 4 -56q16 -76 69.5 -103.5t151.5 -27.5h223q66 6 85.5 42t19.5 93v134l-516 297q-34 19 -163 105q-129 87 -158 259.5t68.5 306t305.5 133.5z" />
    <glyph glyph-name="colon" unicode=":" 
d="M393 799q0 -25 -19.5 -45.5t-47.5 -20.5h-140q-29 0 -47 20.5t-18 45.5v151q0 25 18.5 45.5t46.5 20.5h140q29 0 48 -20.5t19 -45.5v-151zM393 66q0 -25 -19.5 -45.5t-47.5 -20.5h-140q-29 0 -47 20.5t-18 45.5v151q0 25 18.5 45.5t46.5 20.5h140q29 0 48 -20.5t19 -45.5
v-151z" />
    <glyph glyph-name="semicolon" unicode=";" 
d="M401 66q0 -12 -6 -27l-73 -174q-12 -31 -50 -31h-86q-29 0 -29.5 13.5t1.5 23.5l32 129h-16q-29 0 -47 20.5t-18 45.5v151q0 25 18 45.5t47 20.5h160q29 0 48 -20.5t19 -45.5v-151zM393 799q0 -25 -19.5 -45.5t-47.5 -20.5h-140q-29 0 -47 20.5t-18 45.5v151
q0 25 18.5 45.5t46.5 20.5h140q29 0 48 -20.5t19 -45.5v-151z" />
    <glyph glyph-name="less" unicode="&#x3c;" horiz-adv-x="1007" 
d="M825 385q0 -25 -16 -41l-104 -104q-16 -16 -41 -16.5t-41 16.5q-172 172 -267.5 263t-139.5 136t-53 60.5t-9 29.5t2 23.5t16 26t44 46t83 83t136 135t204 202.5q16 16 41 16.5t41 -16.5l106 -104q34 -50 0 -82l-325 -326l307 -307q16 -16 16 -41z" />
    <glyph glyph-name="equal" unicode="=" horiz-adv-x="1007" 
d="M897 487q0 -25 -19.5 -45t-48.5 -20h-661q-29 0 -47.5 20.5t-18.5 44.5v129q0 25 18.5 45.5t47.5 20.5h661q29 0 48.5 -20.5t19.5 -45.5v-129zM897 920q0 -25 -19.5 -45.5t-48.5 -20.5h-661q-29 0 -47.5 20.5t-18.5 45.5v129q0 25 18.5 45t47.5 20h661q29 0 48.5 -20.5
t19.5 -44.5v-129z" />
    <glyph glyph-name="greater" unicode="&#x3e;" horiz-adv-x="1007" 
d="M844 729q0 -14 -9.5 -29.5t-53.5 -60.5t-139 -136t-267 -263q-16 -16 -41 -16.5t-41 16.5l-105 104q-16 16 -16 41t16 41l308 307l-326 326q-16 15 -16 37t16 45l106 104q16 16 41 16t41 -16q119 -121 202 -202.5t96 -94.5l97 -97q83 -83 87 -95.5t4 -26.5z" />
    <glyph glyph-name="question" unicode="?" horiz-adv-x="1353" 
d="M791 66q0 -25 -19.5 -45.5t-48.5 -20.5h-139q-29 0 -47.5 20.5t-18.5 45.5v151q0 25 18.5 45.5t47.5 20.5h139q29 0 48.5 -20.5t19.5 -45.5v-151zM553 1391q-98 0 -151.5 -28t-69.5 -103q-4 -40 -4 -56v-8q0 -39 -13.5 -55.5t-54.5 -16.5h-137q-43 0 -54.5 16.5
t-11.5 55.5v37q0 130 47 229q31 57 127 129q94 66 322 66h334q209 0 307 -134t68 -304t-159 -257t-163 -106l-149 -82v-299q0 -31 -15.5 -48t-60.5 -17h-137q-29 0 -44.5 20.5t-15.5 44.5v281q0 90 21.5 134t107.5 93l234 133q50 40 65 55q52 57 26 135t-91 85h-328z" />
    <glyph glyph-name="A" unicode="A" horiz-adv-x="1411" 
d="M819 864q-18 49 -30.5 81t-16.5 48.5t-10 31.5t-17 53t-43 126l-165 -465zM1382 66q0 -66 -65 -66h-148q-33 0 -44 15.5t-21 37.5l-186 539l-504 -223l-113 -316q-10 -25 -20.5 -39t-47.5 -14h-141q-25 0 -46 18t-21 34t20.5 76t54 159.5t76.5 227.5t183 542.5t169 482.5
t41.5 83t42.5 15h181q31 0 42 -16t21 -37l524 -1495q2 -10 2 -11v-13z" />
    <glyph glyph-name="B" unicode="B" horiz-adv-x="1441" 
d="M905 758h-262l-252 -137v-349h483q72 0 123 52l21 24q31 36 31 96l4 119q0 111 -45 153t-103 42zM858 1366h-467v-451q482 253 524 322q13 18 13 51t-19.5 55.5t-50.5 22.5zM1319 444q0 -185 -131 -314.5t-314 -129.5h-688q-29 0 -46 20.5t-17 45.5l-4 1507q0 29 19.5 47
t47.5 18h672q145 0 244.5 -101.5t99.5 -246.5q0 -106 -37 -171t-164 -132q168 -31 243 -119t75 -254v-170z" />
    <glyph glyph-name="C" unicode="C" horiz-adv-x="1546" 
d="M1374 1034h-137q-40 0 -63 45q-40 116 -72 160q-55 76 -139.5 118t-174.5 42q-171 0 -289 -117t-118 -285v-356q0 -166 117.5 -283.5t281.5 -117.5q98 0 182.5 43t136.5 111t81 186l-2 -5q8 55 63 56h137q29 0 47.5 -20.5t18.5 -57.5t-31 -125t-95.5 -172t-197 -181.5
t-340.5 -97.5q-137 0 -258 52.5t-212 142.5t-143 211t-52 258v356q0 137 52 259t143 212.5t212 143.5t252 53q254 0 434.5 -154.5t231.5 -396.5q-3 -34 -20 -57t-46 -23z" />
    <glyph glyph-name="D" unicode="D" horiz-adv-x="1527" 
d="M766 1638q268 0 408.5 -139t191.5 -258t51 -252v-340q0 -133 -51 -251.5t-191.5 -258t-408.5 -139.5h-580q-29 0 -47 18.5t-18 47.5l-4 1507q0 25 20.5 45t48.5 20h580zM391 1366v-1094h375q155 0 267 112t112 265v340q0 152 -111 264.5t-268 112.5h-375z" />
    <glyph glyph-name="E" unicode="E" horiz-adv-x="1359" 
d="M188 0q-29 0 -47 18.5t-18 47.5l-4 1507q0 29 20.5 47t48.5 18h990q51 0 59 -24.5t8 -54.5v-113q0 -55 -14 -67.5t-68 -12.5h-768v-362h682q29 0 47.5 -19.5t18.5 -48.5v-139q0 -29 -18.5 -48.5t-47.5 -19.5h-682v-457h795q53 0 67.5 -12t14.5 -67v-111q0 -31 -8.5 -56.5
t-59.5 -25.5h-1016z" />
    <glyph glyph-name="F" unicode="F" horiz-adv-x="1269" 
d="M186 0q-25 0 -44 18.5t-19 47.5l-4 1507q0 29 20.5 47t44.5 18h951q47 0 57 -24.5t10 -54.5v-113q0 -55 -13 -67.5t-69 -12.5h-727v-385h684q66 0 66 -66v-141q0 -66 -66 -65h-684v-627q0 -31 -8 -56.5t-59 -25.5h-140z" />
    <glyph glyph-name="G" unicode="G" horiz-adv-x="1564" 
d="M1462 750v-56q0 -142 -31 -254q-31 -111 -124 -229q-92 -117 -226.5 -177t-284.5 -54q-298 11 -489.5 198.5t-191.5 489.5v331q0 137 53 259t143 212.5t212.5 143.5t244.5 53q225 0 390 -121t253 -325q14 -33 -4 -57.5t-59 -24.5h-148q-37 0 -57 37q-123 225 -359 225
q-163 0 -283 -116.5t-120 -285.5v-331q0 -189 119 -308q120 -116 284 -116q119 0 221.5 54t155.5 165q19 45 27 101t11 75.5t3 22.5h-352q-27 0 -46.5 20t-19.5 45v127q0 66 66 66h545q63 0 63 -66l2 -76q2 -23 2 -28z" />
    <glyph glyph-name="H" unicode="H" horiz-adv-x="1435" 
d="M1032 1559q0 31 10.5 55t57.5 24h137q29 0 49.5 -20.5t20.5 -44.5v-1507q0 -25 -20.5 -45.5t-49.5 -20.5h-137q-47 0 -57.5 24.5t-10.5 55.5v749l-639 -270v-479q0 -31 -8 -55.5t-59 -24.5h-140q-29 0 -45 20.5t-16 45.5l-4 1507q0 25 18.5 45t46.5 20h140q51 0 59 -24.5
t8 -54.5v-703l639 274v429z" />
    <glyph glyph-name="I" unicode="I" 
d="M393 66q0 -25 -19.5 -45.5t-47.5 -20.5h-140q-29 0 -45 20.5t-16 45.5l-4 1507q0 25 18.5 45t46.5 20h140q29 0 48 -20.5t19 -44.5v-1507z" />
    <glyph glyph-name="J" unicode="J" horiz-adv-x="1394" 
d="M993 1586q0 52 70 52h139q29 0 47.5 -20.5t18.5 -44.5v-1034q0 -225 -158.5 -382t-376.5 -157h-160q-184 0 -334.5 127.5t-158.5 254t-8 161.5v22q0 29 17 49.5t46 20.5h139q29 0 48.5 -20.5t19.5 -49.5v-22q0 -83 22 -135q22 -53 82 -94.5t127 -41.5h160q108 0 185 78.5
t77 188.5v977q-2 18 -2 70z" />
    <glyph glyph-name="K" unicode="K" horiz-adv-x="1431" 
d="M391 66q0 -66 -67 -66h-138q-63 0 -63 66l-4 1507q0 66 67 65h138q68 0 67 -65v-572l692 641l4 -6q2 2 23 2h190q29 0 49.5 -18t20.5 -47t-24 -49l-23 -27l-569 -534l622 -859q40 -50 -14 -92q-18 -12 -39 -12h-172q-38 0 -59 33l-541 745q-76 -72 -160 -149v-563z" />
    <glyph glyph-name="L" unicode="L" horiz-adv-x="1234" 
d="M186 0q-61 0 -61 66l-4 1507q0 66 65 65h142q47 0 56 -24.5t9 -54.5v-1287h680q55 0 67.5 -12t12.5 -67v-111q0 -31 -9 -56.5t-57 -25.5h-901z" />
    <glyph glyph-name="M" unicode="M" horiz-adv-x="1847" 
d="M1606 1638q48 0 80 -13t32 -73v-1493q0 -45 -21.5 -52t-49.5 -7h-121q-53 0 -67.5 14.5t-14.5 67.5v1075q-279 -355 -424 -528q-13 -19 -25 -23t-34 -4h-80q-29 0 -39.5 6t-26.5 27l-420 522v-1075q0 -53 -14 -67.5t-68 -14.5h-120q-29 -2 -48.5 6t-19.5 49l-4 1499
q0 79 53 81.5t66 2.5h73q29 0 48.5 -6t37.5 -30l523 -656l524 662q25 31 80 30h80z" />
    <glyph glyph-name="N" unicode="N" horiz-adv-x="1499" 
d="M1370 66q0 -25 -19.5 -45.5t-47.5 -20.5h-140q-39 0 -57 31q-92 137 -179 267t-174 258t-175.5 259t-182.5 270v-1019q0 -25 -19.5 -45.5t-47.5 -20.5h-142q-29 0 -45 20.5t-16 45.5l-4 1507q0 25 18.5 45t46.5 20h152q37 0 55 -32v2l703 -1057v1022q0 25 19.5 45
t47.5 20h140q29 0 48 -20.5t19 -44.5v-1507z" />
    <glyph glyph-name="O" unicode="O" horiz-adv-x="1628" 
d="M1249 983q0 172 -128.5 295t-309 123t-310.5 -122.5t-130 -295.5v-321q0 -171 127.5 -294.5t311.5 -123.5t311.5 123.5t127.5 294.5v321zM1526 662q0 -141 -56.5 -265.5t-153.5 -216.5t-227.5 -145t-277.5 -53t-277.5 53t-228.5 145t-154.5 216t-56.5 266v321
q0 141 57.5 265t154.5 215t228.5 144.5t279 53.5t277.5 -53.5t227 -144.5t152.5 -215t55.5 -265v-321z" />
    <glyph glyph-name="P" unicode="P" horiz-adv-x="1325" 
d="M391 1366v-522q470 247 527 323q41 66 24 131q-16 68 -82 68h-469zM391 80q0 -31 -9 -55.5t-56 -24.5h-140q-29 0 -46 20.5t-17 45.5l-4 1507q0 25 19.5 45t47.5 20h688q209 0 307.5 -134t68.5 -307t-159 -258q-129 -86 -163 -105l-537 -297v-457z" />
    <glyph glyph-name="Q" unicode="Q" horiz-adv-x="1652" 
d="M1247 985q0 175 -131 298.5t-307 123.5t-307 -123.5t-131 -298.5v-323q0 -170 125 -297t297 -127q115 0 172 34q-5 2 -13 8t-51 31.5t-29 81.5q20 20 62 92q12 12 16 23q26 31 50 31t90 -39l96 -56q61 98 61 218v323zM809 -23q-147 0 -277.5 53.5t-227.5 146.5
t-153.5 218t-56.5 267v323q0 141 56.5 267t153.5 220.5t227.5 149.5t276.5 55t276 -55t227.5 -149.5t155 -220.5t57.5 -267v-323q0 -181 -105 -355l6 -6q4 0 64 -39q59 -41 58 -71t-21.5 -60.5t-38.5 -58.5q-31 -51 -68 -57.5t-106 36.5l-84 51q-174 -125 -420 -125z" />
    <glyph glyph-name="R" unicode="R" horiz-adv-x="1431" 
d="M397 80q0 -31 -9 -55.5t-56 -24.5h-146q-29 0 -46 20.5t-17 45.5l-4 1507q0 25 19.5 45t47.5 20h729q138 0 242.5 -104.5t104.5 -232.5t-56.5 -202.5t-144.5 -133.5q64 -167 150 -405t180 -476q16 -41 -3.5 -62.5t-60.5 -21.5h-156q-33 0 -45 15.5t-20 35.5l-295 780
l-414 -219v-532zM397 1366v-446q41 20 95.5 46.5t247.5 128.5t227 152v-2q12 18 12 47t-22.5 51.5t-57.5 22.5h-502z" />
    <glyph glyph-name="S" unicode="S" horiz-adv-x="1368" 
d="M301 588q68 0 68 -98q0 -32 4 -72q16 -76 78.5 -125t142.5 -49h156q92 0 171.5 53t79.5 113.5t3.5 95t-33.5 74.5q-43 37 -131 57t-192 45t-328 90.5t-224 325.5v28q0 94 13 142l-3 -2q31 169 172.5 281t315.5 112h156q181 0 291 -87t149 -186.5t35 -218.5
q-2 -31 -10.5 -55.5t-55.5 -24.5h-135q-29 0 -46 20.5t-20 45.5q-4 131 -57 185.5t-151 54.5h-156q-121 0 -194 -109q-32 -48 -34 -113t38 -105t88 -52l235 -66q92 -27 157.5 -44t125.5 -39t123 -63q63 -42 103 -116t40 -156q0 -139 -43.5 -255t-113.5 -177
q-132 -116 -369 -116h-156q-135 0 -248 62t-178 169q-72 106 -72 295q0 31 9.5 55.5t56.5 24.5h139z" />
    <glyph glyph-name="T" unicode="T" horiz-adv-x="1310" 
d="M793 1374v-1294q0 -31 -9.5 -55.5t-56.5 -24.5h-141q-47 0 -56.5 24.5t-9.5 55.5v1294h-397q-53 0 -67.5 15.5t-14.5 64.5v105q0 31 9 55t56 24h1092q47 0 57.5 -24.5t10.5 -54.5v-105q0 -49 -13.5 -64.5t-66.5 -15.5h-393z" />
    <glyph glyph-name="U" unicode="U" horiz-adv-x="1433" 
d="M1305 520q0 -216 -157.5 -368t-371.5 -152h-158q-205 0 -351 144t-146 350v1079q0 66 65 65h138q47 0 56 -24.5t9 -54.5v-1065q0 -93 68 -159.5t161 -66.5h158q110 0 184 75.5t74 176.5v1039q0 31 10.5 55t57.5 24h135q68 0 68 -65v-1053z" />
    <glyph glyph-name="V" unicode="V" horiz-adv-x="1458" 
d="M1399 1618q20 -20 20 -40t-73 -237l-465 -1288q-10 -25 -22.5 -39t-43.5 -14h-180q-35 0 -47.5 15.5t-18.5 35.5l-141 408q-96 276 -187 539.5t-151 408.5t-61 166q0 66 67 65h160q31 0 43 -16t23 -37l403 -1194l399 1194l-1 -9q3 3 3 5q18 57 66 57h162q25 0 45 -20z
" />
    <glyph glyph-name="W" unicode="W" horiz-adv-x="1976" 
d="M238 1636q23 0 44 -6t31 -45l267 -1091q72 279 141 542t137 541q10 59 68 59h98q53 0 66 -53l280 -1089l268 1091q10 39 30 45t44 6h115q58 0 73 -23.5t11 -45.5l-6 -33q-57 -301 -140.5 -618.5t-133.5 -505t-93 -367.5q-8 -18 -15 -30.5t-48 -12.5h-201q-54 0 -64 45
q-37 135 -70.5 273.5t-68.5 273.5l-98 385l-234 -930q-8 -20 -17 -33.5t-44 -13.5h-203q-39 0 -47 12.5t-18 36.5l-367 1485q-4 12 -4 49t26.5 45t57.5 8h115z" />
    <glyph glyph-name="X" unicode="X" horiz-adv-x="1372" 
d="M1278 0h-172q-37 0 -59 39v-2l-363 579l-367 -579q-17 -37 -59 -37h-154q-29 0 -48 20.5t-19 40.5t52 108q52 89 198 316q147 226 184 279l55 80l-450 692q-10 20 -10 41t19 41t48 20h160q35 0 61 -39v3l338 -543q254 431 330 551q18 29 57 28h166q25 0 45.5 -20.5
t20.5 -38.5t-25 -57q-10 -23 -25.5 -47.5t-33.5 -53.5l-375 -577l485 -746l4 -24q0 -74 -63 -74z" />
    <glyph glyph-name="Y" unicode="Y" horiz-adv-x="1425" 
d="M1401 1573q0 -24 -25 -55q0 -2 -1 -2t-1 -3l-528 -753v-680q0 -31 -8.5 -55.5t-59.5 -24.5h-139q-47 0 -56.5 24.5t-9.5 55.5v684l-540 772q-8 13 -8 39q0 63 63 63h182q37 0 60 -30l383 -568q313 485 387 576q20 23 51 22h184q66 0 66 -65z" />
    <glyph glyph-name="Z" unicode="Z" horiz-adv-x="1339" 
d="M109 0q-47 0 -57.5 25.5t-10.5 56.5v88q0 28 18 51l838 1141h-731q-53 0 -67.5 14.5t-14.5 67.5v115q0 31 8 55t62 24h1042q29 0 47.5 -20.5t18.5 -44.5v-129q0 -28 -17 -45l-813 -1123h776q53 0 66.5 -14t13.5 -67v-113q0 -31 -10 -56.5t-57 -25.5h-1112z" />
    <glyph glyph-name="bracketleft" unicode="[" horiz-adv-x="669" 
d="M49 1810q0 23 16.5 39.5t38.5 16.5h406q23 0 39 -16.5t16 -39.5v-161q0 -23 -16.5 -39.5t-38.5 -16.5h-188v-1663h188q23 0 39 -16t16 -39v-162q0 -23 -16.5 -39t-38.5 -16h-401q-23 0 -39.5 16.5t-16.5 38.5v11l-4 2076v10z" />
    <glyph glyph-name="backslash" unicode="\" horiz-adv-x="1116" 
d="M109 1831h159q53 0 74 -45l696 -1720q10 -25 1 -45.5t-38 -20.5h-139q-55 0 -76 45l-716 1720q-10 25 0 45.5t39 20.5z" />
    <glyph glyph-name="bracketright" unicode="]" horiz-adv-x="669" 
d="M553 1866q45 0 55 -49q2 -2 2 -17v-2087q0 -23 -16 -39t-39 -16h-401q-23 0 -39.5 16.5t-16.5 38.5v162q0 23 15.5 39t38.5 16h186v1663h-191q-23 0 -39 16.5t-16 39.5v161q0 23 16.5 39.5t38.5 16.5h406z" />
    <glyph glyph-name="asciicircum" unicode="^" horiz-adv-x="1099" 
d="M1065 1124.5q0 -24.5 -16 -41.5l-105 -104q-16 -16 -39.5 -16t-40.5 16l-307 307l-328 -325q-16 -16 -40.5 -16.5t-41.5 16.5l-102 106q-16 16 -16 41t14 41l475 473l10 6l2 2q4 0 7 2h4q4 2 22 0t31 -14l106 -105l7 -10l342 -338q16 -16 16 -40.5z" />
    <glyph glyph-name="underscore" unicode="_" horiz-adv-x="1185" 
d="M1124 66q0 -25 -19.5 -45.5t-47.5 -20.5h-938q-29 0 -47.5 20.5t-18.5 45.5v129q0 25 18.5 45t47.5 20h938q29 0 48 -20.5t19 -44.5v-129z" />
    <glyph glyph-name="grave" unicode="`" horiz-adv-x="577" 
d="M324 1337q-58 0 -111 56l-141 178q-18 29 -4 46t51 17h145q76 0 113 -51l98 -180q36 -66 -49 -66h-102z" />
    <glyph glyph-name="a" unicode="a" horiz-adv-x="1411" 
d="M819 864q-18 49 -30.5 81t-16.5 48.5t-10 31.5t-17 53t-43 126l-165 -465zM1382 66q0 -66 -65 -66h-148q-33 0 -44 15.5t-21 37.5l-186 539l-504 -223l-113 -316q-10 -25 -20.5 -39t-47.5 -14h-141q-25 0 -46 18t-21 34t20.5 76t54 159.5t76.5 227.5t183 542.5t169 482.5
t41.5 83t42.5 15h181q31 0 42 -16t21 -37l524 -1495q2 -10 2 -11v-13z" />
    <glyph glyph-name="b" unicode="b" horiz-adv-x="1441" 
d="M905 758h-262l-252 -137v-349h483q72 0 123 52l21 24q25 29 31 46.5t6 49.5l-2 119q0 111 -45 153t-103 42zM858 1366h-467v-451q482 253 524 322q13 18 13 51t-19.5 55.5t-50.5 22.5zM1319 444q0 -185 -131 -314.5t-314 -129.5h-688q-29 0 -46 20.5t-17 45.5l-4 1507
q0 29 19.5 47t47.5 18h672q145 0 244.5 -101.5t99.5 -246.5q0 -106 -37 -171t-164 -132q168 -31 243 -119t75 -254v-170z" />
    <glyph glyph-name="c" unicode="c" horiz-adv-x="1546" 
d="M1374 1034h-137q-40 0 -63 45q-40 116 -72 160q-55 76 -139.5 118t-174.5 42q-171 0 -289 -117t-118 -285v-356q0 -166 117.5 -283.5t281.5 -117.5q98 0 182.5 43t136.5 111t81 186l-2 -5q8 55 63 56h137q29 0 47.5 -20.5t18.5 -57.5t-31 -125t-95.5 -172t-197 -181.5
t-340.5 -97.5q-137 0 -258 52.5t-212 142.5t-143 211t-52 258v356q0 137 52 259t143 212.5t212 143.5t252 53q254 0 434.5 -154.5t231.5 -396.5q-3 -34 -20 -57t-46 -23z" />
    <glyph glyph-name="d" unicode="d" horiz-adv-x="1527" 
d="M766 1638q268 0 408.5 -139t191.5 -258t51 -252v-340q0 -133 -51 -251.5t-191.5 -258t-408.5 -139.5h-580q-29 0 -47 18.5t-18 47.5l-4 1507q0 25 20.5 45t48.5 20h580zM391 1366v-1094h375q155 0 267 112t112 265v340q0 152 -111 264.5t-268 112.5h-375z" />
    <glyph glyph-name="e" unicode="e" horiz-adv-x="1359" 
d="M188 0q-29 0 -47 18.5t-18 47.5l-4 1507q0 29 20.5 47t48.5 18h990q51 0 59 -24.5t8 -54.5v-113q0 -55 -14 -67.5t-68 -12.5h-768v-362h682q29 0 47.5 -19.5t18.5 -48.5v-139q0 -29 -18.5 -48.5t-47.5 -19.5h-682v-457h795q53 0 67.5 -12t14.5 -67v-111q0 -31 -8.5 -56.5
t-59.5 -25.5h-1016z" />
    <glyph glyph-name="f" unicode="f" horiz-adv-x="1269" 
d="M186 0q-25 0 -44 18.5t-19 47.5l-4 1507q0 29 20.5 47t44.5 18h951q47 0 57 -24.5t10 -54.5v-113q0 -55 -13 -67.5t-69 -12.5h-727v-385h684q66 0 66 -66v-141q0 -66 -66 -65h-684v-627q0 -31 -8 -56.5t-59 -25.5h-140z" />
    <glyph glyph-name="g" unicode="g" horiz-adv-x="1564" 
d="M1462 750v-56q0 -142 -31 -254q-31 -111 -124 -229q-92 -117 -226.5 -177t-284.5 -54q-298 11 -489.5 198.5t-191.5 489.5v331q0 137 53 259t143 212.5t212.5 143.5t244.5 53q225 0 390 -121t253 -325q14 -33 -4 -57.5t-59 -24.5h-148q-37 0 -57 37q-123 225 -359 225
q-163 0 -283 -116.5t-120 -285.5v-331q0 -189 119 -308q120 -116 284 -116q119 0 221.5 54t155.5 165q19 45 27 101t11 75.5t3 22.5h-352q-27 0 -46.5 20t-19.5 45v127q0 66 66 66h545q63 0 63 -66l2 -76q2 -23 2 -28z" />
    <glyph glyph-name="h" unicode="h" horiz-adv-x="1435" 
d="M1032 1559q0 31 10.5 55t57.5 24h137q29 0 49.5 -20.5t20.5 -44.5v-1507q0 -25 -20.5 -45.5t-49.5 -20.5h-137q-47 0 -57.5 24.5t-10.5 55.5v749l-639 -270v-479q0 -31 -8 -55.5t-59 -24.5h-140q-29 0 -45 20.5t-16 45.5l-4 1507q0 25 18.5 45t46.5 20h140q51 0 59 -24.5
t8 -54.5v-703l639 274v429z" />
    <glyph glyph-name="i" unicode="i" 
d="M393 66q0 -25 -19.5 -45.5t-47.5 -20.5h-140q-29 0 -45 20.5t-16 45.5l-4 1507q0 25 18.5 45t46.5 20h140q29 0 48 -20.5t19 -44.5v-1507z" />
    <glyph glyph-name="j" unicode="j" horiz-adv-x="1394" 
d="M993 1586q0 52 70 52h139q29 0 47.5 -20.5t18.5 -44.5v-1034q0 -225 -158.5 -382t-376.5 -157h-160q-184 0 -334.5 127.5t-158.5 254t-8 161.5v22q0 29 17 49.5t46 20.5h139q29 0 48.5 -20.5t19.5 -49.5v-22q0 -83 22 -135q22 -53 82 -94.5t127 -41.5h160q108 0 185 78.5
t77 188.5v977q-2 18 -2 70z" />
    <glyph glyph-name="k" unicode="k" horiz-adv-x="1431" 
d="M391 66q0 -66 -67 -66h-138q-63 0 -63 66l-4 1507q0 66 67 65h138q68 0 67 -65v-572l692 641l4 -6q2 2 23 2h190q29 0 49.5 -18t20.5 -47t-24 -49l-23 -27l-569 -534l622 -859q40 -50 -14 -92q-18 -12 -39 -12h-172q-38 0 -59 33l-541 745q-76 -72 -160 -149v-563z" />
    <glyph glyph-name="l" unicode="l" horiz-adv-x="1234" 
d="M186 0q-61 0 -61 66l-4 1507q0 66 65 65h142q47 0 56 -24.5t9 -54.5v-1287h680q55 0 67.5 -12t12.5 -67v-111q0 -31 -9 -56.5t-57 -25.5h-901z" />
    <glyph glyph-name="m" unicode="m" horiz-adv-x="1847" 
d="M1606 1638q48 0 80 -13t32 -73v-1493q0 -45 -21.5 -52t-49.5 -7h-121q-53 0 -67.5 14.5t-14.5 67.5v1075q-279 -355 -424 -528q-13 -19 -25 -23t-34 -4h-80q-29 0 -39.5 6t-26.5 27l-420 522v-1075q0 -53 -14 -67.5t-68 -14.5h-120q-29 -2 -48.5 6t-19.5 49l-4 1499
q0 79 53 81.5t66 2.5h73q29 0 48.5 -6t37.5 -30l523 -656l524 662q25 31 80 30h80z" />
    <glyph glyph-name="n" unicode="n" horiz-adv-x="1499" 
d="M1370 66q0 -25 -19.5 -45.5t-47.5 -20.5h-140q-39 0 -57 31q-92 137 -179 267t-174 258t-175.5 259t-182.5 270v-1019q0 -25 -19.5 -45.5t-47.5 -20.5h-142q-29 0 -45 20.5t-16 45.5l-4 1507q0 25 18.5 45t46.5 20h152q37 0 55 -32v2l703 -1057v1022q0 25 19.5 45
t47.5 20h140q29 0 48 -20.5t19 -44.5v-1507z" />
    <glyph glyph-name="o" unicode="o" horiz-adv-x="1628" 
d="M1249 983q0 172 -128.5 295t-309 123t-310.5 -122.5t-130 -295.5v-321q0 -171 127.5 -294.5t311.5 -123.5t311.5 123.5t127.5 294.5v321zM1526 662q0 -141 -56.5 -265.5t-153.5 -216.5t-227.5 -145t-277.5 -53t-277.5 53t-228.5 145t-154.5 216t-56.5 266v321
q0 141 57.5 265t154.5 215t228.5 144.5t279 53.5t277.5 -53.5t227 -144.5t152.5 -215t55.5 -265v-321z" />
    <glyph glyph-name="p" unicode="p" horiz-adv-x="1325" 
d="M391 1366v-522q470 247 527 323q41 66 24 131q-16 68 -82 68h-469zM391 80q0 -31 -9 -55.5t-56 -24.5h-140q-29 0 -46 20.5t-17 45.5l-4 1507q0 25 19.5 45t47.5 20h688q209 0 307.5 -134t68.5 -307t-159 -258q-129 -86 -163 -105l-537 -297v-457z" />
    <glyph glyph-name="q" unicode="q" horiz-adv-x="1652" 
d="M1247 985q0 175 -131 298.5t-307 123.5t-307 -123.5t-131 -298.5v-323q0 -170 125 -297t297 -127q115 0 172 34q-5 2 -13 8t-51 31.5t-29 81.5q20 20 62 92q12 12 16 23q26 31 50 31t90 -39l96 -56q61 98 61 218v323zM809 -23q-147 0 -277.5 53.5t-227.5 146.5
t-153.5 218t-56.5 267v323q0 141 56.5 267t153.5 220.5t227.5 149.5t276.5 55t276 -55t227.5 -149.5t155 -220.5t57.5 -267v-323q0 -181 -105 -355l6 -6q4 0 64 -39q59 -41 58 -71t-21.5 -60.5t-38.5 -58.5q-31 -51 -68 -57.5t-106 36.5l-84 51q-174 -125 -420 -125z" />
    <glyph glyph-name="r" unicode="r" horiz-adv-x="1431" 
d="M397 80q0 -31 -9 -55.5t-56 -24.5h-146q-29 0 -46 20.5t-17 45.5l-4 1507q0 25 19.5 45t47.5 20h729q138 0 242.5 -104.5t104.5 -232.5t-56.5 -202.5t-144.5 -133.5q64 -167 150 -405t180 -476q16 -41 -3.5 -62.5t-60.5 -21.5h-156q-33 0 -45 15.5t-20 35.5l-295 780
l-414 -219v-532zM397 1366v-446q41 20 95.5 46.5t247.5 128.5t227 152v-2q12 18 12 47t-22.5 51.5t-57.5 22.5h-502z" />
    <glyph glyph-name="s" unicode="s" horiz-adv-x="1368" 
d="M301 588q68 0 68 -98q0 -32 4 -72q16 -76 78.5 -125t142.5 -49h156q92 0 171.5 53t79.5 113.5t3.5 95t-33.5 74.5q-43 37 -131 57t-192 45t-328 90.5t-224 325.5v28q0 94 13 142l-3 -2q31 169 172.5 281t315.5 112h156q181 0 291 -87t149 -186.5t35 -218.5
q-2 -31 -10.5 -55.5t-55.5 -24.5h-135q-29 0 -46 20.5t-20 45.5q-4 131 -57 185.5t-151 54.5h-156q-121 0 -194 -109q-32 -48 -34 -113t38 -105t88 -52l235 -66q92 -27 157.5 -44t125.5 -39t123 -63q63 -42 103 -116t40 -156q0 -139 -43.5 -255t-113.5 -177
q-132 -116 -369 -116h-156q-135 0 -248 62t-178 169q-72 106 -72 295q0 31 9.5 55.5t56.5 24.5h139z" />
    <glyph glyph-name="t" unicode="t" horiz-adv-x="1310" 
d="M793 1374v-1294q0 -31 -9.5 -55.5t-56.5 -24.5h-141q-47 0 -56.5 24.5t-9.5 55.5v1294h-397q-53 0 -67.5 15.5t-14.5 64.5v105q0 31 9 55t56 24h1092q47 0 57.5 -24.5t10.5 -54.5v-105q0 -49 -13.5 -64.5t-66.5 -15.5h-393z" />
    <glyph glyph-name="u" unicode="u" horiz-adv-x="1433" 
d="M1305 520q0 -216 -157.5 -368t-371.5 -152h-158q-205 0 -351 144t-146 350v1079q0 66 65 65h138q47 0 56 -24.5t9 -54.5v-1065q0 -93 68 -159.5t161 -66.5h158q110 0 184 75.5t74 176.5v1039q0 31 10.5 55t57.5 24h135q68 0 68 -65v-1053z" />
    <glyph glyph-name="v" unicode="v" horiz-adv-x="1458" 
d="M1399 1618q20 -20 20 -40t-73 -237l-465 -1288q-10 -25 -22.5 -39t-43.5 -14h-180q-35 0 -47.5 15.5t-18.5 35.5l-141 408q-96 276 -187 539.5t-151 408.5t-61 166q0 66 67 65h160q31 0 43 -16t23 -37l403 -1194l399 1194l-1 -9q3 3 3 5q18 57 66 57h162q25 0 45 -20z
" />
    <glyph glyph-name="w" unicode="w" horiz-adv-x="1976" 
d="M238 1636q23 0 44 -6t31 -45l267 -1091q72 279 141 542t137 541q10 59 68 59h98q53 0 66 -53l280 -1089l268 1091q10 39 30 45t44 6h115q58 0 73 -23.5t11 -45.5l-6 -33q-57 -301 -140.5 -618.5t-133.5 -505t-93 -367.5q-8 -18 -15 -30.5t-48 -12.5h-201q-54 0 -64 45
q-37 135 -70.5 273.5t-68.5 273.5l-98 385l-234 -930q-8 -20 -17 -33.5t-44 -13.5h-203q-39 0 -47 12.5t-18 36.5l-367 1485q-4 12 -4 49t26.5 45t57.5 8h115z" />
    <glyph glyph-name="x" unicode="x" horiz-adv-x="1372" 
d="M1278 0h-172q-37 0 -59 39v-2l-363 579l-367 -579q-17 -37 -59 -37h-154q-29 0 -48 20.5t-19 40.5t52 108q52 89 198 316q147 226 184 279l55 80l-450 692q-10 20 -10 41t19 41t48 20h160q35 0 61 -39v3l338 -543q254 431 330 551q18 29 57 28h166q25 0 45.5 -20.5
t20.5 -38.5t-25 -57q-10 -23 -25.5 -47.5t-33.5 -53.5l-375 -577l485 -746l4 -24q0 -74 -63 -74z" />
    <glyph glyph-name="y" unicode="y" horiz-adv-x="1425" 
d="M1401 1573q0 -24 -25 -55q0 -2 -1 -2t-1 -3l-528 -753v-680q0 -31 -8.5 -55.5t-59.5 -24.5h-139q-47 0 -56.5 24.5t-9.5 55.5v684l-540 772q-8 13 -8 39q0 63 63 63h182q37 0 60 -30l383 -568q313 485 387 576q20 23 51 22h184q66 0 66 -65z" />
    <glyph glyph-name="z" unicode="z" horiz-adv-x="1339" 
d="M109 0q-47 0 -57.5 25.5t-10.5 56.5v88q0 28 18 51l838 1141h-731q-53 0 -67.5 14.5t-14.5 67.5v115q0 31 8 55t62 24h1042q29 0 47.5 -20.5t18.5 -44.5v-129q0 -28 -17 -45l-813 -1123h776q53 0 66.5 -14t13.5 -67v-113q0 -31 -10 -56.5t-57 -25.5h-1112z" />
    <glyph glyph-name="braceleft" unicode="{" horiz-adv-x="749" 
d="M111 614q-53 0 -54 56v141q0 55 54 55h57q43 0 60 18q32 35 32 146v361q0 66 8 129.5t42 125.5t44 72l135 140q39 39 78 0l117 -115q16 -16 16 -38t-16 -38l-80 -80q-20 -23 -41 -65t-22 -146l-9 -368q-4 -193 -92 -269q87 -71 92 -245l9 -371q4 -104 26 -154q6 -6 8 -16
q24 -41 33.5 -52.5t30.5 -21.5l39 -18q45 -39 6 -78l-117 -115q-33 -42 -78 0l-22 23l-84 76q-45 35 -84 109t-39 233v362q0 99 -22 117q-27 27 -70 26h-57z" />
    <glyph glyph-name="bar" unicode="|" 
d="M393 -279q0 -25 -19.5 -45t-47.5 -20h-136q-29 0 -47 20.5t-18 44.5l-4 2077q0 25 18.5 45.5t46.5 20.5h140q29 0 48 -20.5t19 -45.5v-2077z" />
    <glyph glyph-name="braceright" unicode="}" horiz-adv-x="749" 
d="M575 614q-43 0 -69 -26q-23 -18 -23 -117v-362q0 -163 -40 -232t-83 -110l-86 -76l-20 -23q-14 -16 -35.5 -19t-38.5 19l-117 115q-39 39 7 78l36 18q36 16 56 62q4 4 4 11t10 17q23 49 27 154l6 371q2 72 20.5 137t73.5 108q-90 78 -94 269l-6 368q-3 135 -66 211
l-78 80q-16 16 -16 37.5t16 38.5l117 115q39 39 78 0l101 -105q101 -105 114.5 -201t13.5 -161v-361q0 -64 9.5 -98.5t15.5 -40.5q25 -25 67 -25h56q53 0 53 -55v-141q0 -55 -53 -56h-56z" />
    <glyph glyph-name="asciitilde" unicode="~" horiz-adv-x="897" 
d="M45 705q-18 16 0 59l45 110q22 54 112 20q56 -22 131 -11.5t150.5 25t153.5 15.5t168 -49q19 -10 37 -28t-2 -58l-52 -110q-14 -29 -40.5 -31t-47.5 8q-92 60 -251 23.5t-271 -30.5t-133 57z" />
    <glyph glyph-name="exclamdown" unicode="&#xa1;" 
d="M119 973q0 25 19.5 45t47.5 20h140q29 0 47 -20.5t18 -44.5v-152q0 -25 -18.5 -45t-46.5 -20h-140q-29 0 -48 20.5t-19 44.5v152zM186 606h140q29 0 47 -20.5t18 -44.5v-1071q0 -25 -18.5 -45.5t-46.5 -20.5h-140q-29 0 -46 20.5t-17 45.5l-4 1071q0 25 19.5 45t47.5 20z
" />
    <glyph glyph-name="cent" unicode="&#xa2;" horiz-adv-x="1546" 
d="M1374 911h-137q-40 0 -63 45q-40 116 -72 160q-55 76 -139.5 118t-174.5 42q-171 0 -289 -117t-118 -285v-172q0 -167 118.5 -284t280.5 -117q202 0 326 164q44 58 74 176l-2 -4q8 55 63 55h137q29 0 47.5 -20.5t18.5 -58.5t-28 -117q-58 -165 -198.5 -288t-312.5 -161
v-78q0 -25 -19.5 -45t-47.5 -20h-140q-29 0 -47 20.5t-18 44.5v82q-224 50 -371 232.5t-147 418.5v172q0 234 146.5 417.5t371.5 234.5v73q0 25 18.5 45.5t46.5 20.5h140q29 0 48 -20.5t19 -45.5v-69q203 -36 345.5 -180.5t189.5 -358.5q-3 -34 -20 -57t-46 -23z" />
    <glyph glyph-name="sterling" unicode="&#xa3;" horiz-adv-x="1607" 
d="M1493 1034h-137q-27 0 -40 12.5t-24 32.5q-16 47 -30.5 86t-40.5 74q-55 76 -139.5 118t-174.5 42q-170 0 -288.5 -117t-118.5 -285v-170h432q29 0 48 -20.5t19 -44.5v-129q0 -25 -19 -45.5t-48 -20.5h-432v-424q106 12 236 43t257 53.5t237.5 24.5t178.5 -43
q48 -35 46.5 -55.5t-11.5 -46.5l-51 -131q-14 -35 -40.5 -38.5t-56.5 20.5t-113 23t-187.5 -18.5t-389 -85t-399.5 -4.5q-18 10 -29 35q-14 14 -2 74l45 129l2 8l4 436h-121q-29 0 -47 20.5t-18 45.5v129q0 25 18.5 45t46.5 20h125l2 170q2 137 54.5 259t195 265.5
t403.5 143.5t441.5 -154.5t231.5 -396.5q-12 -80 -66 -80z" />
    <glyph glyph-name="yen" unicode="&#xa5;" horiz-adv-x="1425" 
d="M1401 1573q0 -24 -25 -55q0 -2 -1 -2t-1 -3l-424 -604h88q29 0 48.5 -20.5t19.5 -44.5v-129q0 -25 -19.5 -45.5t-48.5 -20.5h-192v-129h192q29 0 48.5 -20.5t19.5 -44.5v-129q0 -25 -19.5 -45.5t-48.5 -20.5h-192v-180q0 -31 -8.5 -55.5t-59.5 -24.5h-139
q-47 0 -56.5 24.5t-9.5 55.5v180h-196q-29 0 -47.5 20.5t-18.5 45.5v129q0 25 18.5 45t47.5 20h196v129h-196q-29 0 -47.5 20.5t-18.5 45.5v129q0 25 18.5 45t47.5 20h94l-438 627q-8 13 -8 39q0 63 63 63h182q37 0 60 -30l383 -568q311 482 383 572q20 27 55 26h184
q66 0 66 -65z" />
    <glyph glyph-name="brokenbar" unicode="&#xa6;" 
d="M393 -279q0 -25 -19.5 -45t-47.5 -20h-136q-29 0 -47 20.5t-18 44.5l-4 869q0 25 18.5 45t46.5 20h140q29 0 48 -20.5t19 -44.5v-869zM393 926q0 -25 -19.5 -45.5t-47.5 -20.5h-140q-29 0 -47 20.5t-18 45.5v872q0 25 18.5 45.5t46.5 20.5h140q29 0 48 -20.5t19 -45.5
v-872z" />
    <glyph glyph-name="dieresis" unicode="&#xa8;" horiz-adv-x="931" 
d="M821 1446q0 -25 -18.5 -44.5t-46.5 -19.5h-133q-27 0 -44.5 19.5t-17.5 44.5v143q0 25 17.5 44.5t44.5 19.5h133q29 0 47 -19.5t18 -44.5v-143zM354 1446q0 -25 -18.5 -44.5t-44.5 -19.5h-133q-29 0 -46.5 19.5t-17.5 44.5v143q0 25 17.5 44.5t46.5 19.5h133
q27 0 45 -19.5t18 -44.5v-143z" />
    <glyph glyph-name="copyright" unicode="&#xa9;" horiz-adv-x="1507" 
d="M1049 705q32 0 32 -33q0 -23 -15 -68q-30 -91 -121 -159t-177 -68q-154 0 -252 98t-98 234v178q0 137 98.5 235.5t230.5 98.5t220 -76t112 -199v-10q-4 -10 -10 -20.5t-22 -10.5h-68q-19 0 -33 23q-19 59 -35 80q-61 80 -153 80t-149.5 -59.5t-57.5 -141.5v-178
q0 -82 59.5 -141.5t123.5 -59.5q115 0 179 82q24 35 37 88l-2 -2q6 29 33 29h68zM749.5 66q-151.5 0 -280.5 55t-224 152.5t-149.5 231.5t-54.5 293.5t53 294t148.5 231.5t225.5 152.5t281.5 55.5t282.5 -55.5t227.5 -152.5t151.5 -231.5t55 -294t-55 -293.5t-151.5 -231.5
t-227.5 -152.5t-282.5 -55zM749.5 1335q-110.5 0 -203.5 -40t-161 -110.5t-105.5 -170t-37.5 -216t37.5 -216t105.5 -170t161 -110.5t203.5 -40t205 40t163 110.5t108.5 170t40 216t-40 216t-108.5 170t-163 110.5t-205 40z" />
    <glyph glyph-name="ordfeminine" unicode="&#xaa;" horiz-adv-x="890" 
 />
    <glyph glyph-name="guillemotleft" unicode="&#xab;" horiz-adv-x="1411" 
d="M1335 1096q0 -22 -16 -37l-326 -326l307 -307q16 -16 16.5 -41t-16.5 -41l-104 -104q-16 -16 -41 -16.5t-41 16.5q-172 172 -267 263t-139 136t-53.5 60.5t-9.5 29.5t2.5 26t16.5 27l98 96q82 83 164.5 164.5t203.5 202.5q16 16 41 16.5t41 -16.5l107 -104q16 -23 16 -45
zM735 385q0 -25 -16 -41l-105 -104q-16 -16 -40.5 -16.5t-41.5 16.5q-172 172 -267 263t-139 136t-53.5 60.5t-9.5 29.5t2.5 23.5t16.5 26t44 46t83 83t136 135t204 202.5q16 16 40.5 16.5t41.5 -16.5l106 -104q34 -50 0 -82l-325 -326l307 -307q16 -16 16 -41z" />
    <glyph glyph-name="registered" unicode="&#xae;" horiz-adv-x="1507" 
d="M749.5 66q-151.5 0 -280.5 55t-224 152.5t-149.5 231.5t-54.5 293.5t53 294t148.5 231.5t225.5 152.5t281.5 55.5t282.5 -55.5t227.5 -152.5t151.5 -231.5t55 -294t-55 -293.5t-151.5 -231.5t-227.5 -152.5t-282.5 -55zM749.5 1335q-110.5 0 -203.5 -40t-161 -110.5
t-105.5 -170t-37.5 -216t37.5 -216t105.5 -170t161 -110.5t203.5 -40t205 40t163 110.5t108.5 170t40 216t-40 216t-108.5 170t-163 110.5t-205 40zM571 1073v-223q154 69 215.5 110t69.5 54v-2q6 8 6 22q0 39 -41 39h-250zM571 430q0 -16 -5 -28.5t-27 -12.5h-74
q-14 0 -23.5 10.5t-9.5 22.5v754q0 12 9.5 22t23.5 10h364q71 0 123 -52t52 -116t-29 -101.5t-72 -66.5q16 -43 30.5 -85t35.5 -97t46 -122.5t52 -135.5q14 -43 -31 -43h-78q-21 0 -32 27l-148 389q-62 -34 -207 -109v-266z" />
    <glyph glyph-name="macron" unicode="&#xaf;" horiz-adv-x="827" 
d="M807 1444q0 -25 -19.5 -45.5t-48.5 -20.5h-661q-29 0 -45.5 20.5t-20.5 45.5v129q0 25 18.5 45t47.5 20h661q29 0 48.5 -20.5t19.5 -44.5v-129z" />
    <glyph glyph-name="degree" unicode="&#xb0;" horiz-adv-x="528" 
d="M90.5 1205.5q-70.5 70.5 -70.5 170.5t71 171t169 71t173 -72.5t75 -172.5t-73.5 -169t-173.5 -69t-170.5 70.5zM261 1491q-52 0 -80.5 -34t-24.5 -81q-4 -51 25.5 -82.5t80.5 -31.5t81 31.5t34 82.5q-4 47 -34 81t-82 34z" />
    <glyph glyph-name="plusminus" unicode="&#xb1;" horiz-adv-x="1007" 
d="M897 59q0 -25 -19.5 -43t-48.5 -18h-661q-29 0 -46.5 18.5t-17.5 42.5l-2 129q0 25 18.5 45.5t47.5 20.5h661q29 0 48.5 -20.5t19.5 -45.5v-129zM565 1178q25 0 45.5 -19.5t20.5 -48.5v-201h198q29 0 48.5 -20.5t19.5 -44.5v-129q0 -25 -19.5 -45.5t-48.5 -20.5h-198
v-200q0 -29 -20.5 -47.5t-45.5 -18.5h-129q-25 0 -45 18.5t-20 47.5v200h-203q-29 0 -47.5 20.5t-18.5 45.5v129q0 25 18.5 45t47.5 20h203v201q0 29 20.5 48.5t44.5 19.5h129z" />
    <glyph glyph-name="acute" unicode="&#xb4;" horiz-adv-x="501" 
d="M92 1337q-85 0 -49 66l98 180q37 51 113 51h139q37 0 51.5 -17.5t-4.5 -45.5l-141 -178q-53 -56 -111 -56h-96z" />
    <glyph glyph-name="periodcentered" unicode="&#xb7;" 
d="M393 713q0 -25 -19.5 -45.5t-47.5 -20.5h-140q-29 0 -47 20.5t-18 45.5v151q0 25 18.5 45.5t46.5 20.5h140q29 0 48 -20.5t19 -45.5v-151z" />
    <glyph glyph-name="cedilla" unicode="&#xb8;" horiz-adv-x="753" 
d="M469 68q64 0 39 -68l-37 -94q10 -2 56.5 -11t95.5 -73t49 -134q0 -126 -79.5 -208t-189.5 -82h-98q-115 0 -194 86q-83 105 -21 139l90 51q23 12 44.5 1t32.5 -30q27 -46 75 -46h39q39 0 61.5 19.5t22.5 53.5t-22.5 57t-61.5 23h-97q-60 0 -36 68l71 190q41 58 88 58h72z
" />
    <glyph glyph-name="guillemotright" unicode="&#xbb;" horiz-adv-x="1411" 
d="M754 729q0 -14 -9.5 -29.5t-53.5 -60.5t-139 -136t-267 -263q-16 -16 -41 -16.5t-41 16.5l-105 104q-16 16 -16 41t16 41l308 307l-326 326q-35 35 0 82l106 104q16 16 41 16t41 -16q119 -121 202 -202.5t136 -135t83 -83t44.5 -46t17.5 -26t3 -23.5zM1335 729
q0 -14 -9 -29.5t-53 -60.5t-139.5 -136t-267.5 -263q-16 -16 -40.5 -16.5t-41.5 16.5l-104 104q-16 16 -16 41t16 41l307 307l-325 326q-35 35 0 82l106 104q16 16 41 16t41 -16q121 -121 204 -202.5t136 -135t83 -83t44 -46t16 -26t2 -23.5z" />
    <glyph glyph-name="questiondown" unicode="&#xbf;" horiz-adv-x="1353" 
d="M541 987q0 25 19.5 45.5t47.5 20.5h140q29 0 47 -20.5t18 -45.5v-151q0 -25 -18.5 -45.5t-46.5 -20.5h-140q-29 0 -48 20.5t-19 45.5v151zM778 -334q98 0 151.5 27.5t69.5 103.5q2 20 3.5 33.5t1.5 22.5v8q0 39 13 55t54 16h137q43 0 54.5 -16t11.5 -55v-37
q0 -125 -49 -230q-31 -66 -125 -130t-322 -64h-334q-201 0 -299.5 134t-71 304t154.5 254t163 105l150 82v299q0 31 15 48t60 17h138q29 0 44 -20.5t15 -44.5v-281q0 -90 -21 -133.5t-108 -93.5l-233 -129q-56 -45 -66 -56q-51 -57 -27 -135q29 -78 93 -84h327z" />
    <glyph glyph-name="Agrave" unicode="&#xc0;" horiz-adv-x="1411" 
d="M655 1767q-59 0 -110 56l-142 178q-18 29 -3.5 46t51.5 17h145q76 0 113 -51l98 -180q36 -66 -49 -66h-103zM819 864q-18 49 -30.5 81t-16.5 48.5t-10 31.5t-17 53t-43 126l-165 -465zM1382 66q0 -66 -65 -66h-148q-33 0 -44 15.5t-21 37.5l-186 539l-504 -223l-113 -316
q-10 -25 -20.5 -39t-44.5 -14h-144q-25 0 -46 18t-21 34t20.5 76t54 159.5t76.5 227.5t183 542.5t169 482.5t41.5 83t42.5 15h181q31 0 42 -16t21 -37l524 -1495q2 -10 2 -11v-13z" />
    <glyph glyph-name="Aacute" unicode="&#xc1;" horiz-adv-x="1411" 
d="M639 1769q-88 0 -49 66l98 180q37 51 113 51h139q37 0 51.5 -17t-4.5 -46l-141 -178q-53 -56 -111 -56h-96zM819 864q-18 49 -30.5 81t-16.5 48.5t-10 31.5t-17 53t-43 126l-165 -465zM1382 66q0 -66 -65 -66h-148q-33 0 -44 15.5t-21 37.5l-186 539l-504 -223l-113 -316
q-10 -25 -20.5 -39t-44.5 -14h-144q-25 0 -46 18t-21 34t20.5 76t54 159.5t76.5 227.5t183 542.5t169 482.5t41.5 83t42.5 15h181q31 0 42 -16t21 -37l524 -1495q2 -10 2 -11v-13z" />
    <glyph glyph-name="Acircumflex" unicode="&#xc2;" horiz-adv-x="1411" 
d="M819 864q-18 49 -30.5 81t-19.5 62t-17 55q-10 26 -21.5 60.5t-28.5 81.5l-165 -465zM1382 66q0 -66 -65 -66h-148q-33 0 -44 15.5t-21 37.5l-186 539l-504 -223l-113 -316q-10 -25 -20.5 -39t-44.5 -14h-144q-25 0 -46 18t-21 34t20.5 76t54 159.5t76.5 227.5t183 542.5
t169 482.5t41.5 83t42.5 15h181q31 0 42 -16t21 -37l524 -1495q2 -10 2 -11v-13zM899 1763q-37 0 -61.5 11.5t-59.5 42.5l-76 69l-77 -69q-35 -31 -59.5 -42.5t-61.5 -11.5h-133q-43 0 -53.5 22.5t22.5 53.5l192 178q49 56 115 56h107q45 0 70.5 -15.5t52.5 -40.5l190 -178
q35 -31 23.5 -53.5t-54.5 -22.5h-137z" />
    <glyph glyph-name="Atilde" unicode="&#xc3;" horiz-adv-x="1411" 
d="M421 1794q-38 18 -46 37q-18 16 0 59l45 111q23 54 99 25q104 -39 229 4t264 -29q25 -10 35 -29q20 -14 0 -57l-52 -111q-14 -29 -40.5 -30.5t-47.5 8.5q-90 59 -202.5 23.5t-179 -32.5t-104.5 21zM819 864q-18 49 -30.5 81t-16.5 48.5t-10 31.5t-17 53t-43 126
l-165 -465zM1382 66q0 -66 -65 -66h-148q-33 0 -44 15.5t-21 37.5l-186 539l-504 -223l-113 -316q-10 -25 -20.5 -39t-44.5 -14h-144q-25 0 -46 18t-21 34t20.5 76t54 159.5t76.5 227.5t183 542.5t169 482.5t41.5 83t42.5 15h181q31 0 42 -16t21 -37l524 -1495q2 -10 2 -11
v-13z" />
    <glyph glyph-name="Adieresis" unicode="&#xc4;" horiz-adv-x="1411" 
d="M819 864q-18 49 -30.5 81t-16.5 48.5t-10 31.5t-17 53t-43 126l-165 -465zM1382 66q0 -66 -65 -66h-148q-33 0 -44 15.5t-21 37.5l-186 539l-504 -223l-113 -316q-10 -25 -20.5 -39t-47.5 -14h-141q-25 0 -46 18t-21 34t20.5 76t54 159.5t76.5 227.5t183 542.5t169 482.5
t41.5 83t42.5 15h181q31 0 42 -16t21 -37l524 -1495q2 -10 2 -11v-13zM1063 1833q0 -25 -18.5 -44.5t-47.5 -19.5h-133q-27 0 -44 19.5t-17 44.5v143q0 25 17.5 44.5t43.5 19.5h133q29 0 47.5 -19.5t18.5 -44.5v-143zM596 1833q0 -25 -18.5 -44.5t-45.5 -19.5h-133
q-29 0 -46 19.5t-17 44.5v143q0 25 17.5 44.5t45.5 19.5h133q27 0 45.5 -19.5t18.5 -44.5v-143z" />
    <glyph glyph-name="Aring" unicode="&#xc5;" horiz-adv-x="1411" 
d="M717 1647q29 0 50 22.5t21 52.5t-21.5 51t-49.5 21h-33q-29 0 -50.5 -20.5t-21.5 -51.5t21.5 -53t50.5 -22h33zM819 864l-117 373l-165 -498zM1382 66q0 -66 -65 -66h-148q-33 0 -44 15.5t-21 37.5l-186 539l-504 -223l-113 -316q-10 -25 -20.5 -39t-47.5 -14h-141
q-25 0 -46 18.5t-21 47.5q0 2 27.5 82.5t70.5 209.5t97 287t129 378t159 460l20 57l-26 25q-66 62 -66 162.5t66 168.5t157 68h84q90 0 156 -69.5t66 -165.5t-66 -164q-12 -16 -27 -25l508 -1450q2 -10 2 -11v-13z" />
    <glyph glyph-name="AE" unicode="&#xc6;" horiz-adv-x="1994" 
d="M942 801v432l-297 -535zM1012 0q-29 0 -49.5 18.5t-20.5 47.5v458l-432 -141l-166 -320q-23 -41 -36 -52t-50 -11h-162q-37 0 -57.5 20.5t2.5 64.5q187 357 493 917q307 561 315 583q18 46 83 53h880q51 0 59.5 -24.5t8.5 -54.5v-113q0 -55 -14.5 -67.5t-67.5 -12.5h-586
v-391h500q29 0 47.5 -19.5t18.5 -48.5v-131q0 -29 -18.5 -48t-47.5 -19h-500v-437h613q53 0 67.5 -12t14.5 -67v-111q0 -31 -8.5 -56.5t-59.5 -25.5h-827z" />
    <glyph glyph-name="Ccedilla" unicode="&#xc7;" horiz-adv-x="1546" 
d="M1374 1034h-137q-40 0 -63 45q-40 116 -72 160q-55 76 -139.5 118t-174.5 42q-171 0 -289 -117t-118 -285v-356q0 -166 117.5 -283.5t281.5 -117.5q98 0 182.5 43t136.5 111t81 186l-2 -5q8 55 63 56h137q29 0 47.5 -20.5t18.5 -57.5t-27 -113q-58 -162 -171.5 -277
t-262.5 -155l-63 -14l-33 -88q10 -2 56.5 -11t95 -73t48.5 -134q0 -126 -78.5 -208t-189.5 -82h-98q-113 0 -195 86q-84 106 -20 139l90 51q23 12 44.5 1t32.5 -30q27 -46 75 -46h38q39 0 61.5 19.5t22.5 53.5t-22.5 57t-61.5 23h-96q-29 0 -40 19.5t3 48.5l60 162
q-197 15 -313.5 110.5t-200.5 219t-84 329.5v356q0 137 52 259t143 212.5t212 143.5t252 53q254 0 434.5 -154.5t231.5 -396.5q-3 -34 -20 -57t-46 -23z" />
    <glyph glyph-name="Egrave" unicode="&#xc8;" horiz-adv-x="1359" 
d="M190 0q-29 0 -48 18.5t-19 47.5l-4 1507q0 29 20.5 47t48.5 18h990q51 0 59 -24.5t8 -54.5v-113q0 -55 -14 -67.5t-68 -12.5h-768v-362h682q29 0 47.5 -19.5t18.5 -48.5v-139q0 -29 -18.5 -48.5t-47.5 -19.5h-682v-457h795q53 0 67.5 -12t14.5 -67v-111q0 -31 -8.5 -56.5
t-59.5 -25.5h-1014zM659 1782q-58 0 -110 55l-141 178q-18 29 -4 46.5t51 17.5h159q76 0 113 -51l98 -181q36 -65 -49 -65h-117z" />
    <glyph glyph-name="Eacute" unicode="&#xc9;" horiz-adv-x="1359" 
d="M623 1778q-45 0 -55.5 18.5t5.5 46.5l99 180q37 51 112 52h140q37 0 51 -17.5t-4 -46.5l-142 -178q-52 -55 -110 -55h-96zM190 0q-29 0 -48 18.5t-19 47.5l-4 1507q0 29 20.5 47t48.5 18h990q51 0 59 -24.5t8 -54.5v-113q0 -55 -14 -67.5t-68 -12.5h-768v-362h682
q29 0 47.5 -19.5t18.5 -48.5v-139q0 -29 -18.5 -48.5t-47.5 -19.5h-682v-457h795q53 0 67.5 -12t14.5 -67v-111q0 -31 -8.5 -56.5t-59.5 -25.5h-1014z" />
    <glyph glyph-name="Ecircumflex" unicode="&#xca;" horiz-adv-x="1359" 
d="M889 1772q-37 0 -61.5 11t-59.5 42l-76 69l-78 -69q-35 -31 -59.5 -42t-60.5 -11h-134q-43 0 -53 22.5t23 52.5l192 178q49 56 115 56h106q45 0 71 -15.5t52 -40.5l191 -178q35 -31 23.5 -53t-54.5 -22h-137zM190 0q-29 0 -48 18.5t-19 47.5l-4 1507q0 29 20.5 47
t48.5 18h990q51 0 59 -24.5t8 -54.5v-113q0 -55 -14 -67.5t-68 -12.5h-768v-362h682q29 0 47.5 -19.5t18.5 -48.5v-139q0 -29 -18.5 -48.5t-47.5 -19.5h-682v-457h795q53 0 67.5 -12t14.5 -67v-111q0 -31 -8.5 -56.5t-59.5 -25.5h-1014z" />
    <glyph glyph-name="Edieresis" unicode="&#xcb;" horiz-adv-x="1359" 
d="M1053 1829q0 -20 -18.5 -37.5t-47.5 -17.5h-133q-27 0 -44 17t-17 38v131q0 20 17 38.5t44 18.5h133q29 0 47.5 -18.5t18.5 -38.5v-131zM584 1829q0 -20 -18.5 -37.5t-45.5 -17.5h-133q-29 0 -46 17t-17 38v131q0 20 17 38.5t46 18.5h133q27 0 45.5 -18.5t18.5 -38.5
v-131zM190 0q-29 0 -48 18.5t-19 47.5l-4 1507q0 29 20.5 47t48.5 18h990q51 0 59 -24.5t8 -54.5v-113q0 -55 -14 -67.5t-68 -12.5h-768v-362h682q29 0 47.5 -19.5t18.5 -48.5v-139q0 -29 -18.5 -48.5t-47.5 -19.5h-682v-457h795q53 0 67.5 -12t14.5 -67v-111
q0 -31 -8.5 -56.5t-59.5 -25.5h-1014z" />
    <glyph glyph-name="Igrave" unicode="&#xcc;" 
d="M219 1774q-60 0 -110 55l-134 178q-23 29 -7 46.5t46 17.5h146q76 0 112 -52l99 -180q36 -65 -49 -65h-103zM393 66q0 -25 -19.5 -45.5t-47.5 -20.5h-138q-29 0 -46 20.5t-17 45.5l-4 1507q0 25 18.5 45t46.5 20h140q29 0 48 -20.5t19 -44.5v-1507z" />
    <glyph glyph-name="Iacute" unicode="&#xcd;" 
d="M201 1767q-88 0 -49 66l98 180q37 51 112 51h140q37 0 51 -17t-4 -46l-141 -178q-53 -56 -111 -56h-96zM393 66q0 -25 -19.5 -45.5t-47.5 -20.5h-138q-29 0 -46 20.5t-17 45.5l-4 1507q0 25 18.5 45t46.5 20h140q29 0 48 -20.5t19 -44.5v-1507z" />
    <glyph glyph-name="Icircumflex" unicode="&#xce;" 
d="M451 1761q-37 0 -61.5 11.5t-59.5 42.5l-76 69l-78 -69q-35 -31 -59.5 -42.5t-61.5 -11.5h-125q-41 0 -51 22.5t21 53.5l184 178q49 56 115 56h106q45 0 70.5 -15.5t52.5 -40.5l190 -178q35 -31 24 -53.5t-54 -22.5h-137zM393 66q0 -25 -19.5 -45.5t-47.5 -20.5h-138
q-29 0 -46 20.5t-17 45.5l-4 1507q0 25 18.5 45t46.5 20h140q29 0 48 -20.5t19 -44.5v-1507z" />
    <glyph glyph-name="Idieresis" unicode="&#xcf;" 
d="M618 1837q0 -25 -18 -44t-47 -19h-133q-27 0 -44.5 19t-17.5 44v143q0 25 17.5 44.5t44.5 19.5h133q29 0 47 -19.5t18 -44.5v-143zM152 1837q0 -25 -18.5 -44t-45.5 -19h-125q-29 0 -46 19t-17 44v143q0 25 17 44.5t46 19.5h125q27 0 45.5 -19.5t18.5 -44.5v-143zM393 66
q0 -25 -19.5 -45.5t-47.5 -20.5h-138q-29 0 -46 20.5t-17 45.5l-4 1507q0 25 18.5 45t46.5 20h140q29 0 48 -20.5t19 -44.5v-1507z" />
    <glyph glyph-name="Eth" unicode="&#xd0;" horiz-adv-x="1527" 
d="M739 778q0 -25 -19.5 -45t-47.5 -20h-281v-441h375q155 0 267 112t112 265v340q0 152 -111 264.5t-268 112.5h-375v-414h281q29 0 48 -20.5t19 -44.5v-109zM766 1638q268 0 408.5 -139t191.5 -258t51 -252v-340q0 -133 -51 -251.5t-191.5 -258t-408.5 -139.5h-580
q-29 0 -47 18.5t-18 47.5l-4 647h-72q-27 0 -40 20.5t-13 44.5l-2 109q0 25 13 45t42 20h72v621q0 25 20.5 45t48.5 20h580z" />
    <glyph glyph-name="Ntilde" unicode="&#xd1;" horiz-adv-x="1499" 
d="M459 1780q-38 18 -45 37q-18 16 0 59l45 111q24 55 99 25q101 -40 226.5 3t266.5 -28q25 -10 34 -29q20 -14 0 -57l-51 -111q-14 -29 -40.5 -31t-47.5 8q-92 61 -203 24t-178.5 -33t-105.5 22zM1370 66q0 -25 -19.5 -45.5t-47.5 -20.5h-140q-39 0 -57 31
q-92 137 -179 267t-174 258t-175.5 259t-182.5 270v-1019q0 -25 -19.5 -45.5t-47.5 -20.5h-140q-29 0 -46 20.5t-17 45.5l-4 1507q0 25 18.5 45t46.5 20h152q37 0 55 -32v2l703 -1057v1022q0 25 19.5 45t47.5 20h140q29 0 48 -20.5t19 -44.5v-1507z" />
    <glyph glyph-name="Ograve" unicode="&#xd2;" horiz-adv-x="1628" 
d="M780 1782q-60 0 -110 55l-142 178q-18 29 -3.5 46.5t50.5 17.5h146q76 0 113 -51l98 -181q36 -65 -49 -65h-103zM1249 983q0 172 -128.5 295t-309 123t-310.5 -122.5t-130 -295.5v-321q0 -171 127.5 -294.5t311.5 -123.5t311.5 123.5t127.5 294.5v321zM1526 662
q0 -141 -56.5 -265.5t-153.5 -216.5t-227.5 -145t-277.5 -53t-277.5 53t-228.5 145t-154.5 216t-56.5 266v321q0 141 57.5 265t154.5 215t228.5 144.5t279 53.5t277.5 -53.5t227 -144.5t152.5 -215t55.5 -265v-321z" />
    <glyph glyph-name="Oacute" unicode="&#xd3;" horiz-adv-x="1628" 
d="M741 1782q-86 0 -49 65l99 181q37 51 112 51h139q37 0 51.5 -17.5t-3.5 -46.5l-142 -178q-52 -55 -110 -55h-97zM1249 983q0 172 -128.5 295t-309 123t-310.5 -122.5t-130 -295.5v-321q0 -171 127.5 -294.5t311.5 -123.5t311.5 123.5t127.5 294.5v321zM1526 662
q0 -141 -56.5 -265.5t-153.5 -216.5t-227.5 -145t-277.5 -53t-277.5 53t-228.5 145t-154.5 216t-56.5 266v321q0 141 57.5 265t154.5 215t228.5 144.5t279 53.5t277.5 -53.5t227 -144.5t152.5 -215t55.5 -265v-321z" />
    <glyph glyph-name="Ocircumflex" unicode="&#xd4;" horiz-adv-x="1628" 
d="M1001 1769q-37 0 -61.5 11.5t-58.5 42.5l-76 69l-78 -69q-35 -31 -59.5 -42.5t-61.5 -11.5h-133q-43 0 -53 23t22 53l193 178q49 56 115 56h106q45 0 70.5 -15.5t52.5 -40.5l190 -178q35 -31 24 -53.5t-54 -22.5h-138zM1249 983q0 172 -128.5 295t-309 123t-310.5 -122.5
t-130 -295.5v-321q0 -171 127.5 -294.5t311.5 -123.5t311.5 123.5t127.5 294.5v321zM1526 662q0 -141 -56.5 -265.5t-153.5 -216.5t-227.5 -145t-277.5 -53t-277.5 53t-228.5 145t-154.5 216t-56.5 266v321q0 141 57.5 265t154.5 215t228.5 144.5t279 53.5t277.5 -53.5
t227 -144.5t152.5 -215t55.5 -265v-321z" />
    <glyph glyph-name="Otilde" unicode="&#xd5;" horiz-adv-x="1628" 
d="M512 1819q-23 10 -31 28q-18 16 0 60l45 110q24 54 100 25q99 -38 228 4t264 -29q25 -10 35 -28q20 -14 0 -58l-51 -110q-14 -29 -41 -31t-47 8q-61 43 -116.5 37t-115 -21.5t-125 -23.5t-145.5 29zM1249 983q0 172 -128.5 295t-309 123t-310.5 -122.5t-130 -295.5v-321
q0 -171 127.5 -294.5t311.5 -123.5t311.5 123.5t127.5 294.5v321zM1526 662q0 -141 -56.5 -265.5t-153.5 -216.5t-227.5 -145t-277.5 -53t-277.5 53t-228.5 145t-154.5 216t-56.5 266v321q0 141 57.5 265t154.5 215t228.5 144.5t279 53.5t277.5 -53.5t227 -144.5t152.5 -215
t55.5 -265v-321z" />
    <glyph glyph-name="Odieresis" unicode="&#xd6;" horiz-adv-x="1628" 
d="M1178 1841q0 -25 -18.5 -43t-49.5 -18h-135q-27 0 -44.5 18.5t-17.5 42.5v137q0 23 17.5 41.5t44.5 18.5h135q31 0 49.5 -18.5t18.5 -41.5v-137zM702 1841q0 -25 -18 -43t-47 -18h-135q-29 0 -46.5 18.5t-17.5 42.5v137q0 23 17.5 41.5t46.5 18.5h135q29 0 47 -18.5
t18 -41.5v-137zM1249 983q0 172 -128.5 295t-309 123t-310.5 -122.5t-130 -295.5v-321q0 -171 127.5 -294.5t311.5 -123.5t311.5 123.5t127.5 294.5v321zM1526 662q0 -141 -56.5 -265.5t-153.5 -216.5t-227.5 -145t-277.5 -53t-277.5 53t-228.5 145t-154.5 216t-56.5 266
v321q0 141 57.5 265t154.5 215t228.5 144.5t279 53.5t277.5 -53.5t227 -144.5t152.5 -215t55.5 -265v-321z" />
    <glyph glyph-name="multiply" unicode="&#xd7;" horiz-adv-x="1007" 
d="M264 1092q16 16 44 18t50 -20l142 -142l141 142q23 23 49.5 19.5t44.5 -19.5l92 -91q16 -16 17.5 -44.5t-19.5 -49.5l-137 -141l137 -141q23 -23 21 -49.5t-21 -45.5l-90 -90q-18 -18 -44.5 -20t-49.5 20l-141 142l-142 -142q-23 -23 -49 -20.5t-45 20.5l-90 90
q-18 18 -20 44t20 49l141 141l-141 143q-20 23 -19 50.5t17 43.5z" />
    <glyph glyph-name="Oslash" unicode="&#xd8;" horiz-adv-x="1628" 
d="M1249 983q0 133 -78 234l-487 -957q70 -16 144 -16t153.5 32.5t173.5 123.5t94 262v321zM814 1401q-183 0 -313 -122.5t-130 -295.5v-321q0 -149 108 -277l502 983q-74 33 -167 33zM812 1661q146 0 288 -57l61 118q32 50 88 50h105q97 0 57 -86l-106 -211l12 -13
q209 -209 209 -479v-321q0 -141 -56.5 -265.5t-153.5 -216.5t-227.5 -145t-265.5 -53t-262 38l-72 -139q-31 -49 -88 -49h-104q-57 0 -66.5 25.5t9.5 60.5l112 219q-25 18 -47 41q-98 92 -154.5 217t-56.5 267v321q0 141 57.5 265t154.5 215t228.5 144.5t277.5 53.5z" />
    <glyph glyph-name="Ugrave" unicode="&#xd9;" horiz-adv-x="1433" 
d="M700 1765q-57 0 -110 56l-141 178q-18 29 -4 46t51 17h145q76 0 113 -51l98 -180q36 -66 -49 -66h-103zM1305 520q0 -216 -157.5 -368t-371.5 -152h-158q-205 0 -351 144t-146 350v1079q0 66 65 65h138q47 0 56 -24.5t9 -54.5v-1065q0 -93 68 -159.5t161 -66.5h158
q110 0 184 75.5t74 176.5v1039q0 31 10.5 55t57.5 24h135q68 0 68 -65v-1053z" />
    <glyph glyph-name="Uacute" unicode="&#xda;" horiz-adv-x="1433" 
d="M653 1765q-85 0 -49 66l98 180q37 51 113 51h139q37 0 51.5 -17t-4.5 -46l-141 -178q-53 -56 -110 -56h-97zM1305 520q0 -216 -157.5 -368t-371.5 -152h-158q-205 0 -351 144t-146 350v1079q0 66 65 65h138q47 0 56 -24.5t9 -54.5v-1065q0 -93 68 -159.5t161 -66.5h158
q110 0 184 75.5t74 176.5v1039q0 31 10.5 55t57.5 24h135q68 0 68 -65v-1053z" />
    <glyph glyph-name="Ucircumflex" unicode="&#xdb;" horiz-adv-x="1433" 
d="M899 1778q-37 0 -61.5 11t-59.5 42l-76 70l-77 -70q-35 -31 -59.5 -42t-61.5 -11h-133q-43 0 -53.5 22.5t22.5 52.5l192 179q48 55 115 55h107q45 0 70.5 -15.5t52.5 -39.5l190 -179q35 -31 23.5 -53t-54.5 -22h-137zM1305 520q0 -216 -157.5 -368t-371.5 -152h-158
q-205 0 -350 143t-145 351l-2 1079q0 66 65 65h138q47 0 56 -24.5t9 -54.5v-1065q0 -93 68 -159.5t161 -66.5h158q110 0 184 75.5t74 176.5v1039q0 31 10.5 55t57.5 24h135q68 0 68 -65v-1053z" />
    <glyph glyph-name="Udieresis" unicode="&#xdc;" horiz-adv-x="1433" 
d="M1075 1831q0 -23 -18.5 -40t-46.5 -17h-133q-27 0 -44.5 17t-17.5 40v129q0 23 17.5 41t44.5 18h133q29 0 47 -18.5t18 -40.5v-129zM606 1831q0 -23 -18.5 -40t-44.5 -17h-133q-29 0 -46.5 17t-17.5 40v129q0 23 17.5 41t46.5 18h133q27 0 45 -18.5t18 -40.5v-129z
M1305 520q0 -216 -157.5 -368t-371.5 -152h-158q-205 0 -351 144t-146 350v1079q0 66 65 65h138q47 0 56 -24.5t9 -54.5v-1065q0 -93 68 -159.5t161 -66.5h158q110 0 184 75.5t74 176.5v1039q0 31 10.5 55t57.5 24h135q68 0 68 -65v-1053z" />
    <glyph glyph-name="Yacute" unicode="&#xdd;" horiz-adv-x="1425" 
d="M639 1761q-88 0 -49 66l98 180q37 51 113 51h139q37 0 51.5 -17.5t-4.5 -45.5l-141 -178q-53 -56 -111 -56h-96zM1401 1573q0 -24 -25 -55q0 -2 -1 -2t-1 -3l-528 -753v-680q0 -31 -8.5 -55.5t-59.5 -24.5h-139q-47 0 -56.5 24.5t-9.5 55.5v684l-540 772q-8 13 -8 39
q0 63 63 63h182q37 0 60 -30l383 -568q313 485 387 576q20 23 51 22h184q66 0 66 -65z" />
    <glyph glyph-name="Thorn" unicode="&#xde;" horiz-adv-x="1325" 
d="M391 1122v-522q297 156 402 225.5t125 98.5q41 66 24 131q-16 68 -82 67h-469zM186 1638h140q47 0 56 -18t9 -41v-184h483q208 0 307 -134.5t69 -307.5t-159 -258t-163 -105l-537 -297v-213q0 -31 -9 -55.5t-56 -24.5h-140q-29 0 -46 20.5t-17 45.5l-4 1507q0 25 19.5 45
t47.5 20z" />
    <glyph glyph-name="germandbls" unicode="&#xdf;" horiz-adv-x="1441" 
d="M858 1366h-467v-451q482 253 524 322q13 18 13 51t-19.5 55.5t-50.5 22.5zM905 758h-262l-252 -137v-349h483q72 0 123 52l21 24q31 36 31 96l4 119q0 111 -45 153t-103 42zM393 1638h465q145 0 244.5 -101.5t99.5 -246.5q0 -106 -37 -171t-164 -132q168 -31 243 -119
t75 -254v-170q0 -185 -131 -314.5t-314 -129.5h-481v-197q0 -25 -19.5 -45t-47.5 -20h-156q-29 0 -47.5 20.5t-18.5 44.5l-4 1954q0 25 18.5 45.5t47.5 20.5h160q29 0 48 -20.5t19 -45.5v-119z" />
    <glyph glyph-name="agrave" unicode="&#xe0;" horiz-adv-x="1411" 
d="M668 1765q-58 0 -111 56l-141 178q-18 29 -4 46t51 17h145q76 0 113 -51l98 -180q36 -66 -49 -66h-102zM819 864q-18 49 -30.5 81t-16.5 48.5t-10 31.5t-17 53t-43 126l-165 -465zM1382 66q0 -66 -65 -66h-148q-33 0 -44 15.5t-21 37.5l-186 539l-504 -223l-113 -316
q-10 -25 -20.5 -39t-44.5 -14h-144q-25 0 -46 18t-21 34t20.5 76t54 159.5t76.5 227.5t183 542.5t169 482.5t41.5 83t42.5 15h181q31 0 42 -16t21 -37l524 -1495q2 -10 2 -11v-13z" />
    <glyph glyph-name="aacute" unicode="&#xe1;" horiz-adv-x="1411" 
d="M670 1774q-87 0 -49 65l98 180q37 51 112 52h140q37 0 51 -17.5t-4 -46.5l-141 -178q-52 -55 -111 -55h-96zM819 864q-18 49 -30.5 81t-16.5 48.5t-10 31.5t-17 53t-43 126l-165 -465zM1382 66q0 -66 -65 -66h-148q-33 0 -44 15.5t-21 37.5l-186 539l-504 -223l-113 -316
q-10 -25 -20.5 -39t-44.5 -14h-144q-25 0 -46 18t-21 34t20.5 76t54 159.5t76.5 227.5t183 542.5t169 482.5t41.5 83t42.5 15h181q31 0 42 -16t21 -37l524 -1495q2 -10 2 -11v-13z" />
    <glyph glyph-name="acircumflex" unicode="&#xe2;" horiz-adv-x="1411" 
d="M819 864q-18 49 -30.5 81t-19.5 62t-17 55q-10 26 -21.5 60.5t-28.5 81.5l-165 -465zM1382 66q0 -66 -65 -66h-148q-33 0 -44 15.5t-21 37.5l-186 539l-504 -223l-113 -316q-10 -25 -20.5 -39t-44.5 -14h-144q-25 0 -46 18t-21 34t20.5 76t54 159.5t76.5 227.5t183 542.5
t169 482.5t41.5 83t42.5 15h181q31 0 42 -16t21 -37l524 -1495q2 -10 2 -11v-13zM899 1763q-37 0 -61.5 11.5t-59.5 42.5l-76 69l-77 -69q-35 -31 -59.5 -42.5t-61.5 -11.5h-133q-43 0 -53.5 22.5t22.5 53.5l192 178q49 56 115 56h107q45 0 70.5 -15.5t52.5 -40.5l190 -178
q35 -31 23.5 -53.5t-54.5 -22.5h-137z" />
    <glyph glyph-name="atilde" unicode="&#xe3;" horiz-adv-x="1411" 
d="M421 1794q-38 18 -46 37q-18 16 0 59l45 111q23 54 99 25q104 -39 229 4t264 -29q25 -10 35 -29q20 -14 0 -57l-52 -111q-14 -29 -40.5 -30.5t-47.5 8.5q-90 59 -202.5 23.5t-179 -32.5t-104.5 21zM819 864q-18 49 -30.5 81t-16.5 48.5t-10 31.5t-17 53t-43 126
l-165 -465zM1382 66q0 -66 -65 -66h-148q-33 0 -44 15.5t-21 37.5l-186 539l-504 -223l-113 -316q-10 -25 -20.5 -39t-44.5 -14h-144q-25 0 -46 18t-21 34t20.5 76t54 159.5t76.5 227.5t183 542.5t169 482.5t41.5 83t42.5 15h181q31 0 42 -16t21 -37l524 -1495q2 -10 2 -11
v-13z" />
    <glyph glyph-name="adieresis" unicode="&#xe4;" horiz-adv-x="1411" 
d="M819 864q-18 49 -30.5 81t-16.5 48.5t-10 31.5t-17 53t-43 126l-165 -465zM1382 66q0 -66 -65 -66h-148q-33 0 -44 15.5t-21 37.5l-186 539l-504 -223l-113 -316q-10 -25 -20.5 -39t-47.5 -14h-141q-25 0 -46 18t-21 34t20.5 76t54 159.5t76.5 227.5t183 542.5t169 482.5
t41.5 83t42.5 15h181q31 0 42 -16t21 -37l524 -1495q2 -10 2 -11v-13zM1063 1833q0 -25 -18.5 -44.5t-47.5 -19.5h-133q-27 0 -44 19.5t-17 44.5v143q0 25 17.5 44.5t43.5 19.5h133q29 0 47.5 -19.5t18.5 -44.5v-143zM596 1833q0 -25 -18.5 -44.5t-45.5 -19.5h-133
q-29 0 -46 19.5t-17 44.5v143q0 25 17.5 44.5t45.5 19.5h133q27 0 45.5 -19.5t18.5 -44.5v-143z" />
    <glyph glyph-name="aring" unicode="&#xe5;" horiz-adv-x="1411" 
d="M717 1647q29 0 50 22.5t21 52.5t-21.5 51t-49.5 21h-33q-29 0 -50.5 -20.5t-21.5 -51.5t21.5 -53t50.5 -22h33zM819 864l-117 373l-165 -498zM1382 66q0 -66 -65 -66h-148q-33 0 -44 15.5t-21 37.5l-186 539l-504 -223l-113 -316q-10 -25 -20.5 -39t-47.5 -14h-141
q-25 0 -46 18.5t-21 47.5q0 2 27.5 82.5t70.5 209.5t97 287t129 378t159 460l20 57l-26 25q-66 62 -66 162.5t66 168.5t157 68h84q90 0 156 -69.5t66 -165.5t-66 -164q-12 -16 -27 -25l508 -1450q2 -10 2 -11v-13z" />
    <glyph glyph-name="ae" unicode="&#xe6;" horiz-adv-x="1994" 
d="M942 801v432l-297 -535zM1012 0q-29 0 -49.5 18.5t-20.5 47.5v458l-432 -141l-166 -320q-23 -41 -36 -52t-50 -11h-162q-37 0 -57.5 20.5t2.5 64.5q187 357 493 917q307 561 315 583q18 46 83 53h880q51 0 59.5 -24.5t8.5 -54.5v-113q0 -55 -14.5 -67.5t-67.5 -12.5h-586
v-391h500q29 0 47.5 -19.5t18.5 -48.5v-131q0 -29 -18.5 -48t-47.5 -19h-500v-437h613q53 0 67.5 -12t14.5 -67v-111q0 -31 -8.5 -56.5t-59.5 -25.5h-827z" />
    <glyph glyph-name="ccedilla" unicode="&#xe7;" horiz-adv-x="1546" 
d="M1374 1034h-137q-40 0 -63 45q-40 116 -72 160q-55 76 -139.5 118t-174.5 42q-171 0 -289 -117t-118 -285v-356q0 -166 117.5 -283.5t281.5 -117.5q98 0 182.5 43t136.5 111t81 186l-2 -5q8 55 63 56h137q29 0 47.5 -20.5t18.5 -57.5t-27 -113q-58 -162 -171.5 -277
t-262.5 -155l-63 -14l-33 -88q10 -2 56.5 -11t95 -73t48.5 -134q0 -126 -78.5 -208t-189.5 -82h-98q-113 0 -195 86q-84 106 -20 139l90 51q23 12 44.5 1t32.5 -30q27 -46 75 -46h38q39 0 61.5 19.5t22.5 53.5t-22.5 57t-61.5 23h-96q-29 0 -40 19.5t3 48.5l60 162
q-197 15 -313.5 110.5t-200.5 219t-84 329.5v356q0 137 52 259t143 212.5t212 143.5t252 53q254 0 434.5 -154.5t231.5 -396.5q-3 -34 -20 -57t-46 -23z" />
    <glyph glyph-name="egrave" unicode="&#xe8;" horiz-adv-x="1359" 
d="M190 0q-29 0 -48 18.5t-19 47.5l-4 1507q0 29 20.5 47t48.5 18h990q51 0 59 -24.5t8 -54.5v-113q0 -55 -14 -67.5t-68 -12.5h-768v-362h682q29 0 47.5 -19.5t18.5 -48.5v-139q0 -29 -18.5 -48.5t-47.5 -19.5h-682v-457h795q53 0 67.5 -12t14.5 -67v-111q0 -31 -8.5 -56.5
t-59.5 -25.5h-1014zM659 1782q-58 0 -110 55l-141 178q-18 29 -4 46.5t51 17.5h159q76 0 113 -51l98 -181q36 -65 -49 -65h-117z" />
    <glyph glyph-name="eacute" unicode="&#xe9;" horiz-adv-x="1359" 
d="M623 1778q-45 0 -55.5 18.5t5.5 46.5l99 180q37 51 112 52h140q37 0 51 -17.5t-4 -46.5l-142 -178q-52 -55 -110 -55h-96zM190 0q-29 0 -48 18.5t-19 47.5l-4 1507q0 29 20.5 47t48.5 18h990q51 0 59 -24.5t8 -54.5v-113q0 -55 -14 -67.5t-68 -12.5h-768v-362h682
q29 0 47.5 -19.5t18.5 -48.5v-139q0 -29 -18.5 -48.5t-47.5 -19.5h-682v-457h795q53 0 67.5 -12t14.5 -67v-111q0 -31 -8.5 -56.5t-59.5 -25.5h-1014z" />
    <glyph glyph-name="ecircumflex" unicode="&#xea;" horiz-adv-x="1359" 
d="M889 1772q-37 0 -61.5 11t-59.5 42l-76 69l-78 -69q-35 -31 -59.5 -42t-60.5 -11h-134q-43 0 -53 22.5t23 52.5l192 178q49 56 115 56h106q45 0 71 -15.5t52 -40.5l191 -178q35 -31 23.5 -53t-54.5 -22h-137zM190 0q-29 0 -48 18.5t-19 47.5l-4 1507q0 29 20.5 47
t48.5 18h990q51 0 59 -24.5t8 -54.5v-113q0 -55 -14 -67.5t-68 -12.5h-768v-362h682q29 0 47.5 -19.5t18.5 -48.5v-139q0 -29 -18.5 -48.5t-47.5 -19.5h-682v-457h795q53 0 67.5 -12t14.5 -67v-111q0 -31 -8.5 -56.5t-59.5 -25.5h-1014z" />
    <glyph glyph-name="edieresis" unicode="&#xeb;" horiz-adv-x="1359" 
d="M1053 1829q0 -20 -18.5 -37.5t-47.5 -17.5h-133q-27 0 -44 17t-17 38v131q0 20 17 38.5t44 18.5h133q29 0 47.5 -18.5t18.5 -38.5v-131zM584 1829q0 -20 -18.5 -37.5t-45.5 -17.5h-133q-29 0 -46 17t-17 38v131q0 20 17 38.5t46 18.5h133q27 0 45.5 -18.5t18.5 -38.5
v-131zM190 0q-29 0 -48 18.5t-19 47.5l-4 1507q0 29 20.5 47t48.5 18h990q51 0 59 -24.5t8 -54.5v-113q0 -55 -14 -67.5t-68 -12.5h-768v-362h682q29 0 47.5 -19.5t18.5 -48.5v-139q0 -29 -18.5 -48.5t-47.5 -19.5h-682v-457h795q53 0 67.5 -12t14.5 -67v-111
q0 -31 -8.5 -56.5t-59.5 -25.5h-1014z" />
    <glyph glyph-name="igrave" unicode="&#xec;" 
d="M219 1774q-60 0 -110 55l-134 178q-23 29 -7 46.5t46 17.5h146q76 0 112 -52l99 -180q36 -65 -49 -65h-103zM393 66q0 -25 -19.5 -45.5t-47.5 -20.5h-138q-29 0 -46 20.5t-17 45.5l-4 1507q0 25 18.5 45t46.5 20h140q29 0 48 -20.5t19 -44.5v-1507z" />
    <glyph glyph-name="iacute" unicode="&#xed;" 
d="M201 1767q-88 0 -49 66l98 180q37 51 112 51h140q37 0 51 -17t-4 -46l-141 -178q-53 -56 -111 -56h-96zM393 66q0 -25 -19.5 -45.5t-47.5 -20.5h-138q-29 0 -46 20.5t-17 45.5l-4 1507q0 25 18.5 45t46.5 20h140q29 0 48 -20.5t19 -44.5v-1507z" />
    <glyph glyph-name="icircumflex" unicode="&#xee;" 
d="M451 1761q-37 0 -61.5 11.5t-59.5 42.5l-76 69l-78 -69q-35 -31 -59.5 -42.5t-61.5 -11.5h-125q-41 0 -51 22.5t21 53.5l184 178q49 56 115 56h106q45 0 70.5 -15.5t52.5 -40.5l190 -178q35 -31 24 -53.5t-54 -22.5h-137zM393 66q0 -25 -19.5 -45.5t-47.5 -20.5h-138
q-29 0 -46 20.5t-17 45.5l-4 1507q0 25 18.5 45t46.5 20h140q29 0 48 -20.5t19 -44.5v-1507z" />
    <glyph glyph-name="idieresis" unicode="&#xef;" 
d="M618 1837q0 -25 -18 -44t-47 -19h-133q-27 0 -44.5 19t-17.5 44v143q0 25 17.5 44.5t44.5 19.5h133q29 0 47 -19.5t18 -44.5v-143zM152 1837q0 -25 -18.5 -44t-45.5 -19h-125q-29 0 -46 19t-17 44v143q0 25 17 44.5t46 19.5h125q27 0 45.5 -19.5t18.5 -44.5v-143zM393 66
q0 -25 -19.5 -45.5t-47.5 -20.5h-138q-29 0 -46 20.5t-17 45.5l-4 1507q0 25 18.5 45t46.5 20h140q29 0 48 -20.5t19 -44.5v-1507z" />
    <glyph glyph-name="eth" unicode="&#xf0;" horiz-adv-x="1527" 
d="M739 778q0 -25 -19.5 -45t-47.5 -20h-281v-441h375q155 0 267 112t112 265v340q0 152 -111 264.5t-268 112.5h-375v-414h281q29 0 48 -20.5t19 -44.5v-109zM766 1638q268 0 408.5 -139t191.5 -258t51 -252v-340q0 -133 -51 -251.5t-191.5 -258t-408.5 -139.5h-580
q-29 0 -47 18.5t-18 47.5l-4 647h-72q-27 0 -40 20.5t-13 44.5l-2 109q0 25 13 45t42 20h72v621q0 25 20.5 45t48.5 20h580z" />
    <glyph glyph-name="ntilde" unicode="&#xf1;" horiz-adv-x="1499" 
d="M459 1780q-38 18 -45 37q-18 16 0 59l45 111q24 55 99 25q101 -40 226.5 3t266.5 -28q25 -10 34 -29q20 -14 0 -57l-51 -111q-14 -29 -40.5 -31t-47.5 8q-92 61 -203 24t-178.5 -33t-105.5 22zM1370 66q0 -25 -19.5 -45.5t-47.5 -20.5h-140q-39 0 -57 31
q-92 137 -179 267t-174 258t-175.5 259t-182.5 270v-1019q0 -25 -19.5 -45.5t-47.5 -20.5h-140q-29 0 -46 20.5t-17 45.5l-4 1507q0 25 18.5 45t46.5 20h152q37 0 55 -32v2l703 -1057v1022q0 25 19.5 45t47.5 20h140q29 0 48 -20.5t19 -44.5v-1507z" />
    <glyph glyph-name="ograve" unicode="&#xf2;" horiz-adv-x="1628" 
d="M780 1782q-60 0 -110 55l-142 178q-18 29 -3.5 46.5t50.5 17.5h146q76 0 113 -51l98 -181q36 -65 -49 -65h-103zM1249 983q0 172 -128.5 295t-309 123t-310.5 -122.5t-130 -295.5v-321q0 -171 127.5 -294.5t311.5 -123.5t311.5 123.5t127.5 294.5v321zM1526 662
q0 -141 -56.5 -265.5t-153.5 -216.5t-227.5 -145t-277.5 -53t-277.5 53t-228.5 145t-154.5 216t-56.5 266v321q0 141 57.5 265t154.5 215t228.5 144.5t279 53.5t277.5 -53.5t227 -144.5t152.5 -215t55.5 -265v-321z" />
    <glyph glyph-name="oacute" unicode="&#xf3;" horiz-adv-x="1628" 
d="M741 1782q-86 0 -49 65l99 181q37 51 112 51h139q37 0 51.5 -17.5t-3.5 -46.5l-142 -178q-52 -55 -110 -55h-97zM1249 983q0 172 -128.5 295t-309 123t-310.5 -122.5t-130 -295.5v-321q0 -171 127.5 -294.5t311.5 -123.5t311.5 123.5t127.5 294.5v321zM1526 662
q0 -141 -56.5 -265.5t-153.5 -216.5t-227.5 -145t-277.5 -53t-277.5 53t-228.5 145t-154.5 216t-56.5 266v321q0 141 57.5 265t154.5 215t228.5 144.5t279 53.5t277.5 -53.5t227 -144.5t152.5 -215t55.5 -265v-321z" />
    <glyph glyph-name="ocircumflex" unicode="&#xf4;" horiz-adv-x="1628" 
d="M1001 1769q-37 0 -61.5 11.5t-58.5 42.5l-76 69l-78 -69q-35 -31 -59.5 -42.5t-61.5 -11.5h-133q-43 0 -53 23t22 53l193 178q49 56 115 56h106q45 0 70.5 -15.5t52.5 -40.5l190 -178q35 -31 24 -53.5t-54 -22.5h-138zM1249 983q0 172 -128.5 295t-309 123t-310.5 -122.5
t-130 -295.5v-321q0 -171 127.5 -294.5t311.5 -123.5t311.5 123.5t127.5 294.5v321zM1526 662q0 -141 -56.5 -265.5t-153.5 -216.5t-227.5 -145t-277.5 -53t-277.5 53t-228.5 145t-154.5 216t-56.5 266v321q0 141 57.5 265t154.5 215t228.5 144.5t279 53.5t277.5 -53.5
t227 -144.5t152.5 -215t55.5 -265v-321z" />
    <glyph glyph-name="otilde" unicode="&#xf5;" horiz-adv-x="1628" 
d="M512 1819q-23 10 -31 28q-18 16 0 60l45 110q24 54 100 25q99 -38 228 4t264 -29q25 -10 35 -28q20 -14 0 -58l-51 -110q-14 -29 -41 -31t-47 8q-61 43 -116.5 37t-115 -21.5t-125 -23.5t-145.5 29zM1249 983q0 172 -128.5 295t-309 123t-310.5 -122.5t-130 -295.5v-321
q0 -171 127.5 -294.5t311.5 -123.5t311.5 123.5t127.5 294.5v321zM1526 662q0 -141 -56.5 -265.5t-153.5 -216.5t-227.5 -145t-277.5 -53t-277.5 53t-228.5 145t-154.5 216t-56.5 266v321q0 141 57.5 265t154.5 215t228.5 144.5t279 53.5t277.5 -53.5t227 -144.5t152.5 -215
t55.5 -265v-321z" />
    <glyph glyph-name="odieresis" unicode="&#xf6;" horiz-adv-x="1628" 
d="M1178 1841q0 -25 -18.5 -43t-49.5 -18h-135q-27 0 -44.5 18.5t-17.5 42.5v137q0 23 17.5 41.5t44.5 18.5h135q31 0 49.5 -18.5t18.5 -41.5v-137zM702 1841q0 -25 -18 -43t-47 -18h-135q-29 0 -46.5 18.5t-17.5 42.5v137q0 23 17.5 41.5t46.5 18.5h135q29 0 47 -18.5
t18 -41.5v-137zM1249 983q0 172 -128.5 295t-309 123t-310.5 -122.5t-130 -295.5v-321q0 -171 127.5 -294.5t311.5 -123.5t311.5 123.5t127.5 294.5v321zM1526 662q0 -141 -56.5 -265.5t-153.5 -216.5t-227.5 -145t-277.5 -53t-277.5 53t-228.5 145t-154.5 216t-56.5 266
v321q0 141 57.5 265t154.5 215t228.5 144.5t279 53.5t277.5 -53.5t227 -144.5t152.5 -215t55.5 -265v-321z" />
    <glyph glyph-name="divide" unicode="&#xf7;" horiz-adv-x="1007" 
d="M637 1069q0 -25 -19.5 -45t-48.5 -20h-139q-29 0 -47 20t-18 45v152q0 25 18 45t47 20h139q29 0 48.5 -20.5t19.5 -44.5v-152zM637 352q0 -25 -19.5 -45t-48.5 -20h-139q-29 0 -47 20.5t-18 44.5v152q0 25 18 45t47 20h139q29 0 48.5 -20.5t19.5 -44.5v-152zM897 715
q0 -25 -19.5 -45.5t-48.5 -20.5h-661q-29 0 -47.5 20.5t-18.5 45.5v129q0 25 18.5 45t47.5 20h661q29 0 48.5 -20.5t19.5 -44.5v-129z" />
    <glyph glyph-name="oslash" unicode="&#xf8;" horiz-adv-x="1628" 
d="M1249 983q0 133 -78 234l-487 -957q70 -16 144 -16t153.5 32.5t173.5 123.5t94 262v321zM814 1401q-183 0 -313 -122.5t-130 -295.5v-321q0 -149 108 -277l502 983q-74 33 -167 33zM812 1661q146 0 288 -57l61 118q32 50 88 50h105q97 0 57 -86l-106 -211l12 -13
q209 -209 209 -479v-321q0 -141 -56.5 -265.5t-153.5 -216.5t-227.5 -145t-265.5 -53t-262 38l-72 -139q-31 -49 -88 -49h-104q-57 0 -66.5 25.5t9.5 60.5l112 219q-25 18 -47 41q-98 92 -154.5 217t-56.5 267v321q0 141 57.5 265t154.5 215t228.5 144.5t277.5 53.5z" />
    <glyph glyph-name="ugrave" unicode="&#xf9;" horiz-adv-x="1433" 
d="M700 1765q-57 0 -110 56l-141 178q-18 29 -4 46t51 17h145q76 0 113 -51l98 -180q36 -66 -49 -66h-103zM1305 520q0 -216 -157.5 -368t-371.5 -152h-158q-205 0 -351 144t-146 350v1079q0 66 65 65h138q47 0 56 -24.5t9 -54.5v-1065q0 -93 68 -159.5t161 -66.5h158
q110 0 184 75.5t74 176.5v1039q0 31 10.5 55t57.5 24h135q68 0 68 -65v-1053z" />
    <glyph glyph-name="uacute" unicode="&#xfa;" horiz-adv-x="1433" 
d="M653 1765q-85 0 -49 66l98 180q37 51 113 51h139q37 0 51.5 -17t-4.5 -46l-141 -178q-53 -56 -110 -56h-97zM1305 520q0 -216 -157.5 -368t-371.5 -152h-158q-205 0 -351 144t-146 350v1079q0 66 65 65h138q47 0 56 -24.5t9 -54.5v-1065q0 -93 68 -159.5t161 -66.5h158
q110 0 184 75.5t74 176.5v1039q0 31 10.5 55t57.5 24h135q68 0 68 -65v-1053z" />
    <glyph glyph-name="ucircumflex" unicode="&#xfb;" horiz-adv-x="1433" 
d="M899 1778q-37 0 -61.5 11t-59.5 42l-76 70l-77 -70q-35 -31 -59.5 -42t-61.5 -11h-133q-43 0 -53.5 22.5t22.5 52.5l192 179q48 55 115 55h107q45 0 70.5 -15.5t52.5 -39.5l190 -179q35 -31 23.5 -53t-54.5 -22h-137zM1305 520q0 -216 -157.5 -368t-371.5 -152h-158
q-205 0 -350 143t-145 351l-2 1079q0 66 65 65h138q47 0 56 -24.5t9 -54.5v-1065q0 -93 68 -159.5t161 -66.5h158q110 0 184 75.5t74 176.5v1039q0 31 10.5 55t57.5 24h135q68 0 68 -65v-1053z" />
    <glyph glyph-name="udieresis" unicode="&#xfc;" horiz-adv-x="1433" 
d="M1075 1831q0 -23 -18.5 -40t-46.5 -17h-133q-27 0 -44.5 17t-17.5 40v129q0 23 17.5 41t44.5 18h133q29 0 47 -18.5t18 -40.5v-129zM606 1831q0 -23 -18.5 -40t-44.5 -17h-133q-29 0 -46.5 17t-17.5 40v129q0 23 17.5 41t46.5 18h133q27 0 45 -18.5t18 -40.5v-129z
M1305 520q0 -216 -157.5 -368t-371.5 -152h-158q-205 0 -351 144t-146 350v1079q0 66 65 65h138q47 0 56 -24.5t9 -54.5v-1065q0 -93 68 -159.5t161 -66.5h158q110 0 184 75.5t74 176.5v1039q0 31 10.5 55t57.5 24h135q68 0 68 -65v-1053z" />
    <glyph glyph-name="yacute" unicode="&#xfd;" horiz-adv-x="1425" 
d="M639 1761q-88 0 -49 66l98 180q37 51 113 51h139q37 0 51.5 -17.5t-4.5 -45.5l-141 -178q-53 -56 -111 -56h-96zM1401 1573q0 -24 -25 -55q0 -2 -1 -2t-1 -3l-528 -753v-680q0 -31 -8.5 -55.5t-59.5 -24.5h-139q-47 0 -56.5 24.5t-9.5 55.5v684l-540 772q-8 13 -8 39
q0 63 63 63h182q37 0 60 -30l383 -568q313 485 387 576q20 23 51 22h184q66 0 66 -65z" />
    <glyph glyph-name="thorn" unicode="&#xfe;" horiz-adv-x="1325" 
d="M391 1122v-522q297 156 402 225.5t125 98.5q41 66 24 131q-16 68 -82 67h-469zM186 1638h140q47 0 56 -18t9 -41v-184h483q208 0 307 -134.5t69 -307.5t-159 -258t-163 -105l-537 -297v-213q0 -31 -9 -55.5t-56 -24.5h-140q-29 0 -46 20.5t-17 45.5l-4 1507q0 25 19.5 45
t47.5 20z" />
    <glyph glyph-name="ydieresis" unicode="&#xff;" horiz-adv-x="1425" 
d="M1075 1827q0 -25 -18.5 -44.5t-46.5 -19.5h-133q-27 0 -44.5 19.5t-17.5 44.5v143q0 25 17.5 44.5t44.5 19.5h133q29 0 47 -19.5t18 -44.5v-143zM608 1827q0 -25 -18.5 -44.5t-44.5 -19.5h-133q-29 0 -46.5 19.5t-17.5 44.5v143q0 25 17.5 44.5t46.5 19.5h133
q27 0 45 -19.5t18 -44.5v-143zM1401 1573q0 -24 -25 -55q0 -2 -1 -2t-1 -3l-528 -753v-680q0 -31 -8.5 -55.5t-59.5 -24.5h-139q-47 0 -56.5 24.5t-9.5 55.5v684l-540 772q-8 13 -8 39q0 63 63 63h182q37 0 60 -30l383 -568q313 485 387 576q20 23 51 22h184q66 0 66 -65z
" />
    <glyph glyph-name="Amacron" unicode="&#x100;" horiz-adv-x="1411" 
d="M1104 1833q0 -25 -19.5 -45.5t-48.5 -20.5h-661q-29 0 -45.5 20.5t-20.5 45.5v129q0 25 18.5 45.5t47.5 20.5h661q29 0 48.5 -20.5t19.5 -45.5v-129zM819 864q-18 49 -30.5 81t-16.5 48.5t-10 31.5t-17 53t-43 126l-165 -465zM1382 66q0 -66 -65 -66h-148q-33 0 -44 15.5
t-21 37.5l-186 539l-504 -223l-113 -316q-10 -25 -20.5 -39t-44.5 -14h-144q-25 0 -46 18t-21 34t20.5 76t54 159.5t76.5 227.5t183 542.5t169 482.5t41.5 83t42.5 15h181q31 0 42 -16t21 -37l524 -1495q2 -10 2 -11v-13z" />
    <glyph glyph-name="amacron" unicode="&#x101;" horiz-adv-x="1411" 
d="M1104 1833q0 -25 -19.5 -45.5t-48.5 -20.5h-661q-29 0 -45.5 20.5t-20.5 45.5v129q0 25 18.5 45.5t47.5 20.5h661q29 0 48.5 -20.5t19.5 -45.5v-129zM819 864q-18 49 -30.5 81t-16.5 48.5t-10 31.5t-17 53t-43 126l-165 -465zM1382 66q0 -66 -65 -66h-148q-33 0 -44 15.5
t-21 37.5l-186 539l-504 -223l-113 -316q-10 -25 -20.5 -39t-44.5 -14h-144q-25 0 -46 18t-21 34t20.5 76t54 159.5t76.5 227.5t183 542.5t169 482.5t41.5 83t42.5 15h181q31 0 42 -16t21 -37l524 -1495q2 -10 2 -11v-13z" />
    <glyph glyph-name="Abreve" unicode="&#x102;" horiz-adv-x="1411" 
d="M1382 66q0 -66 -65 -66h-148q-33 0 -44 15.5t-21 37.5l-186 539l-504 -223l-113 -316q-10 -25 -20.5 -39t-44.5 -14h-144q-25 0 -46 18t-21 34t20.5 76t54 159.5t76.5 227.5t183 542.5t169 482.5t41.5 83t42.5 15h181q31 0 42 -16t21 -37l524 -1495q2 -10 2 -11v-13z
M819 864q-18 49 -30.5 81t-16.5 48.5t-10 31.5t-17 53t-43 126l-165 -465zM977 2083q35 0 53.5 -20.5t18.5 -45.5v-47q0 -48 -58.5 -125.5t-218.5 -77.5h-61l-74 2q-157 0 -216 76.5t-59 161.5v10q0 25 18.5 45.5t53.5 20.5h66q31 0 52 -19.5t21 -46.5v-10q0 -45 24 -59.5
t42 -14.5h133q41 0 62 37q6 14 6 37v10q0 27 20.5 46.5t50.5 19.5h66z" />
    <glyph glyph-name="abreve" unicode="&#x103;" horiz-adv-x="1411" 
d="M1382 66q0 -66 -65 -66h-148q-33 0 -44 15.5t-21 37.5l-186 539l-504 -223l-113 -316q-10 -25 -20.5 -39t-44.5 -14h-144q-25 0 -46 18t-21 34t20.5 76t54 159.5t76.5 227.5t183 542.5t169 482.5t41.5 83t42.5 15h181q31 0 42 -16t21 -37l524 -1495q2 -10 2 -11v-13z
M819 864q-18 49 -30.5 81t-16.5 48.5t-10 31.5t-17 53t-43 126l-165 -465zM977 2083q35 0 53.5 -20.5t18.5 -45.5v-47q0 -48 -58.5 -125.5t-218.5 -77.5h-61l-74 2q-157 0 -216 76.5t-59 161.5v10q0 25 18.5 45.5t53.5 20.5h66q31 0 52 -19.5t21 -46.5v-10q0 -45 24 -59.5
t42 -14.5h133q41 0 62 37q6 14 6 37v10q0 27 20.5 46.5t50.5 19.5h66z" />
    <glyph glyph-name="Aogonek" unicode="&#x104;" horiz-adv-x="1411" 
d="M537 739l282 125q-18 49 -30.5 81t-16.5 48.5t-10 31.5t-17 53t-43 126zM1382 66q0 -66 -65 -66h-8l-135 -121q-29 -27 -47.5 -47t-18.5 -54t22.5 -53.5t61.5 -19.5h39q25 0 44 3t30 20q12 23 33.5 34t43.5 -2l91 -51q65 -34 -21 -139q-63 -66 -195 -66h-98
q-109 0 -188.5 81.5t-79.5 179.5t23.5 146t95.5 89l92 55l-184 537l-504 -223l-113 -316q-10 -25 -20.5 -39t-44.5 -14h-144q-25 0 -46 18t-21 34t20.5 76t54 159.5t76.5 227.5t183 542.5t169 482.5t41.5 83t42.5 15h181q31 0 42 -16t21 -37l524 -1495q2 -10 2 -11v-13z" />
    <glyph glyph-name="aogonek" unicode="&#x105;" horiz-adv-x="1411" 
d="M537 739l282 125q-18 49 -30.5 81t-16.5 48.5t-10 31.5t-17 53t-43 126zM1382 66q0 -66 -65 -66h-8l-135 -121q-29 -27 -47.5 -47t-18.5 -54t22.5 -53.5t61.5 -19.5h39q25 0 44 3t30 20q12 23 33.5 34t43.5 -2l91 -51q65 -34 -21 -139q-63 -66 -195 -66h-98
q-109 0 -188.5 81.5t-79.5 179.5t23.5 146t95.5 89l92 55l-184 537l-504 -223l-113 -316q-10 -25 -20.5 -39t-44.5 -14h-144q-25 0 -46 18t-21 34t20.5 76t54 159.5t76.5 227.5t183 542.5t169 482.5t41.5 83t42.5 15h181q31 0 42 -16t21 -37l524 -1495q2 -10 2 -11v-13z" />
    <glyph glyph-name="Cacute" unicode="&#x106;" horiz-adv-x="1546" 
d="M666 1774q-86 0 -50 65l99 180q37 51 112 52h140q37 0 51 -17.5t-4 -46.5l-142 -178q-52 -55 -110 -55h-96zM1374 1034h-137q-40 0 -63 45q-40 116 -72 160q-55 76 -139.5 118t-174.5 42q-171 0 -289 -117t-118 -285v-356q0 -166 117.5 -283.5t281.5 -117.5
q98 0 182.5 43t136.5 111t81 186l-2 -5q8 55 63 56h137q29 0 47.5 -20.5t18.5 -57.5t-31 -125t-95.5 -172t-197 -181.5t-340.5 -97.5q-137 0 -258 52.5t-212 142.5t-143 211t-52 258v356q0 137 52 259t143 212.5t212 143.5t252 53q254 0 434.5 -154.5t231.5 -396.5
q-3 -34 -20 -57t-46 -23z" />
    <glyph glyph-name="cacute" unicode="&#x107;" horiz-adv-x="1546" 
d="M666 1774q-86 0 -50 65l99 180q37 51 112 52h140q37 0 51 -17.5t-4 -46.5l-142 -178q-52 -55 -110 -55h-96zM1374 1034h-137q-40 0 -63 45q-40 116 -72 160q-55 76 -139.5 118t-174.5 42q-171 0 -289 -117t-118 -285v-356q0 -166 117.5 -283.5t281.5 -117.5
q98 0 182.5 43t136.5 111t81 186l-2 -5q8 55 63 56h137q29 0 47.5 -20.5t18.5 -57.5t-31 -125t-95.5 -172t-197 -181.5t-340.5 -97.5q-137 0 -258 52.5t-212 142.5t-143 211t-52 258v356q0 137 52 259t143 212.5t212 143.5t252 53q254 0 434.5 -154.5t231.5 -396.5
q-3 -34 -20 -57t-46 -23z" />
    <glyph glyph-name="Ccircumflex" unicode="&#x108;" horiz-adv-x="1546" 
d="M969 1763q-37 0 -61.5 11.5t-59.5 42.5l-76 69l-78 -69q-35 -31 -59.5 -42.5t-61.5 -11.5h-133q-43 0 -53 22.5t23 53.5l192 178q49 56 115 56h106q45 0 71 -15.5t52 -40.5l191 -178q35 -31 23.5 -53.5t-54.5 -22.5h-137zM1374 1034h-137q-40 0 -63 45q-40 116 -72 160
q-55 76 -139.5 118t-174.5 42q-171 0 -289 -117t-118 -285v-356q0 -166 117.5 -283.5t281.5 -117.5q98 0 182.5 43t136.5 111t81 186l-2 -5q8 55 63 56h137q29 0 47.5 -20.5t18.5 -57.5t-31 -125t-95.5 -172t-197 -181.5t-340.5 -97.5q-137 0 -258 52.5t-212 142.5t-143 211
t-52 258v356q0 137 52 259t143 212.5t212 143.5t252 53q254 0 434.5 -154.5t231.5 -396.5q-3 -34 -20 -57t-46 -23z" />
    <glyph glyph-name="ccircumflex" unicode="&#x109;" horiz-adv-x="1546" 
d="M969 1763q-37 0 -61.5 11.5t-59.5 42.5l-76 69l-78 -69q-35 -31 -59.5 -42.5t-61.5 -11.5h-133q-43 0 -53 22.5t23 53.5l192 178q49 56 115 56h106q45 0 71 -15.5t52 -40.5l191 -178q35 -31 23.5 -53.5t-54.5 -22.5h-137zM1374 1034h-137q-40 0 -63 45q-40 116 -72 160
q-55 76 -139.5 118t-174.5 42q-171 0 -289 -117t-118 -285v-356q0 -166 117.5 -283.5t281.5 -117.5q98 0 182.5 43t136.5 111t81 186l-2 -5q8 55 63 56h137q29 0 47.5 -20.5t18.5 -57.5t-31 -125t-95.5 -172t-197 -181.5t-340.5 -97.5q-137 0 -258 52.5t-212 142.5t-143 211
t-52 258v356q0 137 52 259t143 212.5t212 143.5t252 53q254 0 434.5 -154.5t231.5 -396.5q-3 -34 -20 -57t-46 -23z" />
    <glyph glyph-name="Cdotaccent" unicode="&#x10a;" horiz-adv-x="1546" 
d="M930 1829q0 -25 -19.5 -45.5t-48.5 -20.5h-139q-29 0 -47.5 20.5t-18.5 45.5v151q0 25 18.5 45.5t47.5 20.5h139q29 0 48.5 -20.5t19.5 -45.5v-151zM1374 1034h-137q-40 0 -63 45q-40 116 -72 160q-55 76 -139.5 118t-174.5 42q-171 0 -289 -117t-118 -285v-356
q0 -166 117.5 -283.5t281.5 -117.5q98 0 182.5 43t136.5 111t81 186l-2 -5q8 55 63 56h137q29 0 47.5 -20.5t18.5 -57.5t-31 -125t-95.5 -172t-197 -181.5t-340.5 -97.5q-137 0 -258 52.5t-212 142.5t-143 211t-52 258v356q0 137 52 259t143 212.5t212 143.5t252 53
q254 0 434.5 -154.5t231.5 -396.5q-3 -34 -20 -57t-46 -23z" />
    <glyph glyph-name="cdotaccent" unicode="&#x10b;" horiz-adv-x="1546" 
d="M930 1829q0 -25 -19.5 -45.5t-48.5 -20.5h-139q-29 0 -47.5 20.5t-18.5 45.5v151q0 25 18.5 45.5t47.5 20.5h139q29 0 48.5 -20.5t19.5 -45.5v-151zM1374 1034h-137q-40 0 -63 45q-40 116 -72 160q-55 76 -139.5 118t-174.5 42q-171 0 -289 -117t-118 -285v-356
q0 -166 117.5 -283.5t281.5 -117.5q98 0 182.5 43t136.5 111t81 186l-2 -5q8 55 63 56h137q29 0 47.5 -20.5t18.5 -57.5t-31 -125t-95.5 -172t-197 -181.5t-340.5 -97.5q-137 0 -258 52.5t-212 142.5t-143 211t-52 258v356q0 137 52 259t143 212.5t212 143.5t252 53
q254 0 434.5 -154.5t231.5 -396.5q-3 -34 -20 -57t-46 -23z" />
    <glyph glyph-name="Ccaron" unicode="&#x10c;" horiz-adv-x="1546" 
d="M578 2073q37 0 61.5 -11.5t58.5 -42.5l76 -69l78 69q35 31 59.5 42.5t61.5 11.5h133q43 0 53 -22.5t-22 -53.5l-193 -178q-49 -56 -115 -56h-106q-45 0 -70.5 15.5t-52.5 40.5l-190 178q-35 31 -24 53.5t54 22.5h138zM1374 1034h-137q-40 0 -63 45q-40 116 -72 160
q-55 76 -139.5 118t-174.5 42q-171 0 -289 -117t-118 -285v-356q0 -166 117.5 -283.5t281.5 -117.5q98 0 182.5 43t136.5 111t81 186l-2 -5q8 55 63 56h137q29 0 47.5 -20.5t18.5 -57.5t-31 -125t-95.5 -172t-197 -181.5t-340.5 -97.5q-137 0 -258 52.5t-212 142.5t-143 211
t-52 258v356q0 137 52 259t143 212.5t212 143.5t252 53q254 0 434.5 -154.5t231.5 -396.5q-3 -34 -20 -57t-46 -23z" />
    <glyph glyph-name="ccaron" unicode="&#x10d;" horiz-adv-x="1546" 
d="M578 2073q37 0 61.5 -11.5t58.5 -42.5l76 -69l78 69q35 31 59.5 42.5t61.5 11.5h133q43 0 53 -22.5t-22 -53.5l-193 -178q-49 -56 -115 -56h-106q-45 0 -70.5 15.5t-52.5 40.5l-190 178q-35 31 -24 53.5t54 22.5h138zM1374 1034h-137q-40 0 -63 45q-40 116 -72 160
q-55 76 -139.5 118t-174.5 42q-171 0 -289 -117t-118 -285v-356q0 -166 117.5 -283.5t281.5 -117.5q98 0 182.5 43t136.5 111t81 186l-2 -5q8 55 63 56h137q29 0 47.5 -20.5t18.5 -57.5t-31 -125t-95.5 -172t-197 -181.5t-340.5 -97.5q-137 0 -258 52.5t-212 142.5t-143 211
t-52 258v356q0 137 52 259t143 212.5t212 143.5t252 53q254 0 434.5 -154.5t231.5 -396.5q-3 -34 -20 -57t-46 -23z" />
    <glyph glyph-name="Dcaron" unicode="&#x10e;" horiz-adv-x="1527" 
d="M578 2073q37 0 61.5 -11.5t58.5 -42.5l76 -69l78 69q35 31 59.5 42.5t61.5 11.5h133q43 0 53 -22.5t-22 -53.5l-193 -178q-49 -56 -115 -56h-106q-45 0 -70.5 15.5t-52.5 40.5l-190 178q-35 31 -24 53.5t54 22.5h138zM766 1638q268 0 408.5 -139t191.5 -258t51 -252v-340
q0 -133 -51 -251.5t-191.5 -258t-408.5 -139.5h-580q-29 0 -47 18.5t-18 47.5l-4 1507q0 25 20.5 45t48.5 20h580zM391 1366v-1094h375q155 0 267 112t112 265v340q0 152 -111 264.5t-268 112.5h-375z" />
    <glyph glyph-name="dcaron" unicode="&#x10f;" horiz-adv-x="1527" 
d="M578 2073q37 0 61.5 -11.5t58.5 -42.5l76 -69l78 69q35 31 59.5 42.5t61.5 11.5h133q43 0 53 -22.5t-22 -53.5l-193 -178q-49 -56 -115 -56h-106q-45 0 -70.5 15.5t-52.5 40.5l-190 178q-35 31 -24 53.5t54 22.5h138zM766 1638q268 0 408.5 -139t191.5 -258t51 -252v-340
q0 -133 -51 -251.5t-191.5 -258t-408.5 -139.5h-580q-29 0 -47 18.5t-18 47.5l-4 1507q0 25 20.5 45t48.5 20h580zM391 1366v-1094h375q155 0 267 112t112 265v340q0 152 -111 264.5t-268 112.5h-375z" />
    <glyph glyph-name="Dcroat" unicode="&#x110;" horiz-adv-x="1527" 
d="M739 778q0 -25 -19.5 -45t-47.5 -20h-281v-441h375q155 0 267 112t112 265v340q0 152 -111 264.5t-268 112.5h-375v-414h281q29 0 48 -20.5t19 -44.5v-109zM766 1638q268 0 408.5 -139t191.5 -258t51 -252v-340q0 -133 -51 -251.5t-191.5 -258t-408.5 -139.5h-580
q-29 0 -47 18.5t-18 47.5l-4 647h-72q-27 0 -40 20.5t-13 44.5l-2 109q0 25 13 45t42 20h72v621q0 25 20.5 45t48.5 20h580z" />
    <glyph glyph-name="dcroat" unicode="&#x111;" horiz-adv-x="1527" 
d="M739 778q0 -25 -19.5 -45t-47.5 -20h-281v-441h375q155 0 267 112t112 265v340q0 152 -111 264.5t-268 112.5h-375v-414h281q29 0 48 -20.5t19 -44.5v-109zM766 1638q268 0 408.5 -139t191.5 -258t51 -252v-340q0 -133 -51 -251.5t-191.5 -258t-408.5 -139.5h-580
q-29 0 -47 18.5t-18 47.5l-4 647h-72q-27 0 -40 20.5t-13 44.5l-2 109q0 25 13 45t42 20h72v621q0 25 20.5 45t48.5 20h580z" />
    <glyph glyph-name="Emacron" unicode="&#x112;" horiz-adv-x="1359" 
d="M348 1772q-55 0 -65 65v129q0 25 18 45.5t47 20.5h662q29 0 48 -20.5t19 -45.5v-129q0 -25 -19.5 -45t-47.5 -20h-662zM190 0q-29 0 -48 18.5t-19 47.5l-4 1507q0 29 20.5 47t48.5 18h990q51 0 59 -24.5t8 -54.5v-113q0 -55 -14 -67.5t-68 -12.5h-768v-362h682
q29 0 47.5 -19.5t18.5 -48.5v-139q0 -29 -18.5 -48.5t-47.5 -19.5h-682v-457h795q53 0 67.5 -12t14.5 -67v-111q0 -31 -8.5 -56.5t-59.5 -25.5h-1014z" />
    <glyph glyph-name="emacron" unicode="&#x113;" horiz-adv-x="1359" 
d="M348 1772q-55 0 -65 65v129q0 25 18 45.5t47 20.5h662q29 0 48 -20.5t19 -45.5v-129q0 -25 -19.5 -45t-47.5 -20h-662zM190 0q-29 0 -48 18.5t-19 47.5l-4 1507q0 29 20.5 47t48.5 18h990q51 0 59 -24.5t8 -54.5v-113q0 -55 -14 -67.5t-68 -12.5h-768v-362h682
q29 0 47.5 -19.5t18.5 -48.5v-139q0 -29 -18.5 -48.5t-47.5 -19.5h-682v-457h795q53 0 67.5 -12t14.5 -67v-111q0 -31 -8.5 -56.5t-59.5 -25.5h-1014z" />
    <glyph glyph-name="Ebreve" unicode="&#x114;" horiz-adv-x="1359" 
d="M190 0q-29 0 -48 18.5t-19 47.5l-4 1507q0 29 20.5 47t48.5 18h990q51 0 59 -24.5t8 -54.5v-113q0 -55 -14 -67.5t-68 -12.5h-768v-362h682q29 0 47.5 -19.5t18.5 -48.5v-139q0 -29 -18.5 -48.5t-47.5 -19.5h-682v-457h795q53 0 67.5 -12t14.5 -67v-111q0 -31 -8.5 -56.5
t-59.5 -25.5h-1014zM748 1937q65 0 65 74v10q0 27 20.5 46.5t53.5 19.5h65q35 0 53.5 -20.5t18.5 -45.5v-48q0 -48 -57.5 -124.5t-218.5 -76.5h-64l-72 2q-98 2 -187 52t-89 185v10q0 25 18.5 45.5t53.5 20.5h65q33 0 53.5 -19.5t20.5 -46.5v-10q0 -44 23.5 -59t41.5 -15
h136z" />
    <glyph glyph-name="ebreve" unicode="&#x115;" horiz-adv-x="1359" 
d="M190 0q-29 0 -48 18.5t-19 47.5l-4 1507q0 29 20.5 47t48.5 18h990q51 0 59 -24.5t8 -54.5v-113q0 -55 -14 -67.5t-68 -12.5h-768v-362h682q29 0 47.5 -19.5t18.5 -48.5v-139q0 -29 -18.5 -48.5t-47.5 -19.5h-682v-457h795q53 0 67.5 -12t14.5 -67v-111q0 -31 -8.5 -56.5
t-59.5 -25.5h-1014zM748 1937q65 0 65 74v10q0 27 20.5 46.5t53.5 19.5h65q35 0 53.5 -20.5t18.5 -45.5v-48q0 -48 -57.5 -124.5t-218.5 -76.5h-64l-72 2q-98 2 -187 52t-89 185v10q0 25 18.5 45.5t53.5 20.5h65q33 0 53.5 -19.5t20.5 -46.5v-10q0 -44 23.5 -59t41.5 -15
h136z" />
    <glyph glyph-name="Edotaccent" unicode="&#x116;" horiz-adv-x="1359" 
d="M817 1829q0 -25 -19.5 -45.5t-47.5 -20.5h-140q-29 0 -47 20.5t-18 45.5v151q0 25 18.5 45.5t46.5 20.5h140q29 0 48 -20.5t19 -45.5v-151zM190 0q-29 0 -48 18.5t-19 47.5l-4 1507q0 29 20.5 47t48.5 18h990q51 0 59 -24.5t8 -54.5v-113q0 -55 -14 -67.5t-68 -12.5h-768
v-362h682q29 0 47.5 -19.5t18.5 -48.5v-139q0 -29 -18.5 -48.5t-47.5 -19.5h-682v-457h795q53 0 67.5 -12t14.5 -67v-111q0 -31 -8.5 -56.5t-59.5 -25.5h-1014z" />
    <glyph glyph-name="edotaccent" unicode="&#x117;" horiz-adv-x="1359" 
d="M817 1829q0 -25 -19.5 -45.5t-47.5 -20.5h-140q-29 0 -47 20.5t-18 45.5v151q0 25 18.5 45.5t46.5 20.5h140q29 0 48 -20.5t19 -45.5v-151zM190 0q-29 0 -48 18.5t-19 47.5l-4 1507q0 29 20.5 47t48.5 18h990q51 0 59 -24.5t8 -54.5v-113q0 -55 -14 -67.5t-68 -12.5h-768
v-362h682q29 0 47.5 -19.5t18.5 -48.5v-139q0 -29 -18.5 -48.5t-47.5 -19.5h-682v-457h795q53 0 67.5 -12t14.5 -67v-111q0 -31 -8.5 -56.5t-59.5 -25.5h-1014z" />
    <glyph glyph-name="Eogonek" unicode="&#x118;" horiz-adv-x="1359" 
d="M190 0q-29 0 -48 18.5t-19 47.5l-4 1507q0 29 20.5 47t48.5 18h990q51 0 59 -24.5t8 -54.5v-113q0 -55 -14 -67.5t-68 -12.5h-768v-362h682q29 0 47.5 -19.5t18.5 -48.5v-139q0 -29 -18.5 -48.5t-47.5 -19.5h-682v-457h795q53 0 67.5 -12t14.5 -67v-111q0 -31 -8.5 -56.5
t-59.5 -25.5h-67l-162 -145q-29 -27 -47.5 -47.5t-18.5 -54.5t22.5 -53t61.5 -19h39q60 1 73 23t34.5 33t44.5 -1l90 -51q47 -25 16 -82q-14 -29 -37 -58q-62 -65 -194 -65h-98q-110 0 -189.5 81.5t-79.5 181.5q0 99 18.5 134t47.5 61.5t90 61.5h-658z" />
    <glyph glyph-name="eogonek" unicode="&#x119;" horiz-adv-x="1359" 
d="M190 0q-29 0 -48 18.5t-19 47.5l-4 1507q0 29 20.5 47t48.5 18h990q51 0 59 -24.5t8 -54.5v-113q0 -55 -14 -67.5t-68 -12.5h-768v-362h682q29 0 47.5 -19.5t18.5 -48.5v-139q0 -29 -18.5 -48.5t-47.5 -19.5h-682v-457h795q53 0 67.5 -12t14.5 -67v-111q0 -31 -8.5 -56.5
t-59.5 -25.5h-67l-162 -145q-29 -27 -47.5 -47.5t-18.5 -54.5t22.5 -53t61.5 -19h39q60 1 73 23t34.5 33t44.5 -1l90 -51q47 -25 16 -82q-14 -29 -37 -58q-62 -65 -194 -65h-98q-110 0 -189.5 81.5t-79.5 181.5q0 99 18.5 134t47.5 61.5t90 61.5h-658z" />
    <glyph glyph-name="Ecaron" unicode="&#x11a;" horiz-adv-x="1359" 
d="M485 2081q37 0 61.5 -11.5t59.5 -41.5l76 -70l78 70q35 31 59.5 42t61.5 11h133q43 0 53 -22.5t-23 -53.5l-192 -178q-48 -55 -115 -55h-106q-45 0 -70.5 15t-52.5 40l-191 178q-35 31 -23.5 53.5t54.5 22.5h137zM190 0q-29 0 -48 18.5t-19 47.5l-4 1507q0 29 20.5 47
t48.5 18h990q51 0 59 -24.5t8 -54.5v-113q0 -55 -14 -67.5t-68 -12.5h-768v-362h682q29 0 47.5 -19.5t18.5 -48.5v-139q0 -29 -18.5 -48.5t-47.5 -19.5h-682v-457h795q53 0 67.5 -12t14.5 -67v-111q0 -31 -8.5 -56.5t-59.5 -25.5h-1014z" />
    <glyph glyph-name="ecaron" unicode="&#x11b;" horiz-adv-x="1359" 
d="M485 2081q37 0 61.5 -11.5t59.5 -41.5l76 -70l78 70q35 31 59.5 42t61.5 11h133q43 0 53 -22.5t-23 -53.5l-192 -178q-48 -55 -115 -55h-106q-45 0 -70.5 15t-52.5 40l-191 178q-35 31 -23.5 53.5t54.5 22.5h137zM190 0q-29 0 -48 18.5t-19 47.5l-4 1507q0 29 20.5 47
t48.5 18h990q51 0 59 -24.5t8 -54.5v-113q0 -55 -14 -67.5t-68 -12.5h-768v-362h682q29 0 47.5 -19.5t18.5 -48.5v-139q0 -29 -18.5 -48.5t-47.5 -19.5h-682v-457h795q53 0 67.5 -12t14.5 -67v-111q0 -31 -8.5 -56.5t-59.5 -25.5h-1014z" />
    <glyph glyph-name="Gcircumflex" unicode="&#x11c;" horiz-adv-x="1564" 
d="M979 1763q-37 0 -62.5 11.5t-58.5 42.5l-76 69l-77 -69q-35 -31 -59.5 -42.5t-61.5 -11.5h-133q-43 0 -54.5 22.5t23.5 53.5l192 178q49 56 115 56h107q45 0 69.5 -15.5t52.5 -40.5l191 -178q33 -31 22.5 -53.5t-53.5 -22.5h-137zM1462 750v-56q0 -142 -31 -254
q-31 -111 -124 -229q-92 -117 -226.5 -177t-284.5 -54q-298 11 -489.5 198.5t-191.5 489.5v331q0 137 53 259t143 212.5t212.5 143.5t244.5 53q225 0 390 -121t253 -325q14 -33 -4 -57.5t-59 -24.5h-148q-37 0 -57 37q-123 225 -359 225q-163 0 -283 -116.5t-120 -285.5
v-331q0 -189 119 -308q120 -116 284 -116q119 0 221.5 54t155.5 165q19 45 27 101t11 75.5t3 22.5h-352q-27 0 -46.5 20t-19.5 45v127q0 66 66 66h545q63 0 63 -66l2 -76q2 -23 2 -28z" />
    <glyph glyph-name="gcircumflex" unicode="&#x11d;" horiz-adv-x="1564" 
d="M979 1763q-37 0 -62.5 11.5t-58.5 42.5l-76 69l-77 -69q-35 -31 -59.5 -42.5t-61.5 -11.5h-133q-43 0 -54.5 22.5t23.5 53.5l192 178q49 56 115 56h107q45 0 69.5 -15.5t52.5 -40.5l191 -178q33 -31 22.5 -53.5t-53.5 -22.5h-137zM1462 750v-56q0 -142 -31 -254
q-31 -111 -124 -229q-92 -117 -226.5 -177t-284.5 -54q-298 11 -489.5 198.5t-191.5 489.5v331q0 137 53 259t143 212.5t212.5 143.5t244.5 53q225 0 390 -121t253 -325q14 -33 -4 -57.5t-59 -24.5h-148q-37 0 -57 37q-123 225 -359 225q-163 0 -283 -116.5t-120 -285.5
v-331q0 -189 119 -308q120 -116 284 -116q119 0 221.5 54t155.5 165q19 45 27 101t11 75.5t3 22.5h-352q-27 0 -46.5 20t-19.5 45v127q0 66 66 66h545q63 0 63 -66l2 -76q2 -23 2 -28z" />
    <glyph glyph-name="Gbreve" unicode="&#x11e;" horiz-adv-x="1564" 
d="M1462 750v-56q0 -142 -31 -254q-31 -111 -124 -229q-92 -117 -226.5 -177t-284.5 -54q-298 11 -489.5 198.5t-191.5 489.5v331q0 137 53 259t143 212.5t212.5 143.5t244.5 53q225 0 390 -121t253 -325q14 -33 -4 -57.5t-59 -24.5h-148q-37 0 -57 37q-123 225 -359 225
q-163 0 -283 -116.5t-120 -285.5v-331q0 -189 119 -308q120 -116 284 -116q119 0 221.5 54t155.5 165q19 45 27 101t11 75.5t3 22.5h-352q-27 0 -46.5 20t-19.5 45v127q0 66 66 66h545q63 0 63 -66l2 -76q2 -23 2 -28zM850 1929q65 0 65 74v10q0 27 20.5 46.5t53.5 19.5h66
q35 0 53 -20.5t18 -45.5v-48q0 -48 -57.5 -125t-218.5 -77h-64l-71 2q-98 2 -187.5 52.5t-89.5 185.5v10q0 25 18.5 45.5t53.5 20.5h65q33 0 53.5 -19.5t20.5 -46.5v-10q0 -44 23.5 -59t42.5 -15h135z" />
    <glyph glyph-name="gbreve" unicode="&#x11f;" horiz-adv-x="1564" 
d="M1462 750v-56q0 -142 -31 -254q-31 -111 -124 -229q-92 -117 -226.5 -177t-284.5 -54q-298 11 -489.5 198.5t-191.5 489.5v331q0 137 53 259t143 212.5t212.5 143.5t244.5 53q225 0 390 -121t253 -325q14 -33 -4 -57.5t-59 -24.5h-148q-37 0 -57 37q-123 225 -359 225
q-163 0 -283 -116.5t-120 -285.5v-331q0 -189 119 -308q120 -116 284 -116q119 0 221.5 54t155.5 165q19 45 27 101t11 75.5t3 22.5h-352q-27 0 -46.5 20t-19.5 45v127q0 66 66 66h545q63 0 63 -66l2 -76q2 -23 2 -28zM850 1929q65 0 65 74v10q0 27 20.5 46.5t53.5 19.5h66
q35 0 53 -20.5t18 -45.5v-48q0 -48 -57.5 -125t-218.5 -77h-64l-71 2q-98 2 -187.5 52.5t-89.5 185.5v10q0 25 18.5 45.5t53.5 20.5h65q33 0 53.5 -19.5t20.5 -46.5v-10q0 -44 23.5 -59t42.5 -15h135z" />
    <glyph glyph-name="Gdotaccent" unicode="&#x120;" horiz-adv-x="1564" 
d="M920 1829q0 -25 -19.5 -45.5t-48.5 -20.5h-139q-29 0 -47.5 20.5t-18.5 45.5v151q0 25 18.5 45.5t47.5 20.5h139q29 0 48.5 -20.5t19.5 -45.5v-151zM1462 750v-56q0 -142 -31 -254q-31 -111 -124 -229q-92 -117 -226.5 -177t-284.5 -54q-298 11 -489.5 198.5
t-191.5 489.5v331q0 137 53 259t143 212.5t212.5 143.5t244.5 53q225 0 390 -121t253 -325q14 -33 -4 -57.5t-59 -24.5h-148q-37 0 -57 37q-123 225 -359 225q-163 0 -283 -116.5t-120 -285.5v-331q0 -189 119 -308q120 -116 284 -116q119 0 221.5 54t155.5 165
q19 45 27 101t11 75.5t3 22.5h-352q-27 0 -46.5 20t-19.5 45v127q0 66 66 66h545q63 0 63 -66l2 -76q2 -23 2 -28z" />
    <glyph glyph-name="gdotaccent" unicode="&#x121;" horiz-adv-x="1564" 
d="M920 1829q0 -25 -19.5 -45.5t-48.5 -20.5h-139q-29 0 -47.5 20.5t-18.5 45.5v151q0 25 18.5 45.5t47.5 20.5h139q29 0 48.5 -20.5t19.5 -45.5v-151zM1462 750v-56q0 -142 -31 -254q-31 -111 -124 -229q-92 -117 -226.5 -177t-284.5 -54q-298 11 -489.5 198.5
t-191.5 489.5v331q0 137 53 259t143 212.5t212.5 143.5t244.5 53q225 0 390 -121t253 -325q14 -33 -4 -57.5t-59 -24.5h-148q-37 0 -57 37q-123 225 -359 225q-163 0 -283 -116.5t-120 -285.5v-331q0 -189 119 -308q120 -116 284 -116q119 0 221.5 54t155.5 165
q19 45 27 101t11 75.5t3 22.5h-352q-27 0 -46.5 20t-19.5 45v127q0 66 66 66h545q63 0 63 -66l2 -76q2 -23 2 -28z" />
    <glyph glyph-name="uni0122" unicode="&#x122;" horiz-adv-x="1564" 
d="M1462 752v-56q0 -142 -31 -252t-123 -229q-93 -119 -227.5 -179t-284.5 -54q-298 11 -489.5 198.5t-191.5 489.5v331q0 137 53 259t143 212.5t212.5 143.5t244.5 53q225 0 390 -121t253 -325q14 -33 -4 -57.5t-59 -24.5h-148q-37 0 -57 37q-123 225 -359 225
q-163 0 -283 -116.5t-120 -285.5v-331q0 -189 119 -308q120 -116 284 -116q119 0 221.5 54t155.5 165q19 45 27 101t11 76t3 22h-352q-27 0 -46.5 20.5t-19.5 44.5v127q0 66 66 66h545q63 0 63 -66l2 -76q2 -23 2 -28zM924 -297q0 -19 -9 -31l-73 -155q-13 -29 -49 -29h-88
q-29 0 -30 12.5t1 22.5l37 119h-17q-29 0 -47 19.5t-18 41.5v133q0 23 18.5 41.5t46.5 18.5h158q29 0 49.5 -18.5t20.5 -41.5v-133z" />
    <glyph glyph-name="uni0123" unicode="&#x123;" horiz-adv-x="1564" 
d="M1462 750v-56q0 -142 -31 -254q-31 -111 -124 -229q-92 -117 -226.5 -177t-284.5 -54q-298 11 -489.5 198.5t-191.5 489.5v331q0 137 53 259t143 212.5t212.5 143.5t244.5 53q225 0 390 -121t253 -325q14 -33 -4 -57.5t-59 -24.5h-148q-37 0 -57 37q-123 225 -359 225
q-163 0 -283 -116.5t-120 -285.5v-331q0 -189 119 -308q120 -116 284 -116q119 0 221.5 54t155.5 165q19 45 27 101t11 75.5t3 22.5h-352q-27 0 -46.5 20t-19.5 45v127q0 66 66 66h545q63 0 63 -66l2 -76q2 -23 2 -28zM924 -297q0 -19 -9 -31l-73 -155q-13 -29 -49 -29h-88
q-29 0 -30 12.5t1 22.5l37 119h-17q-29 0 -47 19.5t-18 41.5v133q0 23 18.5 41.5t46.5 18.5h158q29 0 49.5 -18.5t20.5 -41.5v-133z" />
    <glyph glyph-name="Hcircumflex" unicode="&#x124;" horiz-adv-x="1435" 
d="M899 1763q-37 0 -61.5 11.5t-59.5 42.5l-76 69l-77 -69q-35 -31 -59.5 -42.5t-61.5 -11.5h-133q-43 0 -53.5 22.5t22.5 53.5l192 178q49 56 115 56h107q45 0 70.5 -15.5t52.5 -40.5l190 -178q35 -31 23.5 -53.5t-54.5 -22.5h-137zM1032 1559q0 31 10.5 55t57.5 24h137
q29 0 49.5 -20.5t20.5 -44.5v-1507q0 -25 -20.5 -45.5t-49.5 -20.5h-137q-47 0 -57.5 24.5t-10.5 55.5v749l-639 -270v-479q0 -31 -8 -55.5t-59 -24.5h-140q-29 0 -45 20.5t-16 45.5l-4 1507q0 25 18.5 45t46.5 20h140q51 0 59 -24.5t8 -54.5v-703l639 274v429z" />
    <glyph glyph-name="hcircumflex" unicode="&#x125;" horiz-adv-x="1435" 
d="M899 1763q-37 0 -61.5 11.5t-59.5 42.5l-76 69l-77 -69q-35 -31 -59.5 -42.5t-61.5 -11.5h-133q-43 0 -53.5 22.5t22.5 53.5l192 178q49 56 115 56h107q45 0 70.5 -15.5t52.5 -40.5l190 -178q35 -31 23.5 -53.5t-54.5 -22.5h-137zM1032 1559q0 31 10.5 55t57.5 24h137
q29 0 49.5 -20.5t20.5 -44.5v-1507q0 -25 -20.5 -45.5t-49.5 -20.5h-137q-47 0 -57.5 24.5t-10.5 55.5v749l-639 -270v-479q0 -31 -8 -55.5t-59 -24.5h-140q-29 0 -45 20.5t-16 45.5l-4 1507q0 25 18.5 45t46.5 20h140q51 0 59 -24.5t8 -54.5v-703l639 274v429z" />
    <glyph glyph-name="Hbar" unicode="&#x126;" horiz-adv-x="1435" 
d="M1032 1182h-639v-326l639 274v52zM1438 1247q0 -25 -19.5 -45t-48.5 -20h-63v-1116q0 -25 -20.5 -45.5t-49.5 -20.5h-137q-47 0 -57.5 24.5t-10.5 55.5v749l-639 -270v-479q0 -31 -8 -55.5t-59 -24.5h-140q-29 0 -45 20.5t-16 45.5l-4 1116h-47q-29 0 -47.5 20.5
t-18.5 44.5v129q0 25 18.5 45.5t47.5 20.5h47v131q0 25 18.5 45t46.5 20h140q51 0 59 -24.5t8 -54.5v-117h639v117q0 31 10.5 55t57.5 24h137q29 0 49.5 -20.5t20.5 -44.5v-131h63q29 0 48.5 -20.5t19.5 -45.5v-129z" />
    <glyph glyph-name="hbar" unicode="&#x127;" horiz-adv-x="1435" 
d="M1032 1182h-639v-326l639 274v52zM1438 1247q0 -25 -19.5 -45t-48.5 -20h-63v-1116q0 -25 -20.5 -45.5t-49.5 -20.5h-137q-47 0 -57.5 24.5t-10.5 55.5v749l-639 -270v-479q0 -31 -8 -55.5t-59 -24.5h-140q-29 0 -45 20.5t-16 45.5l-4 1116h-47q-29 0 -47.5 20.5
t-18.5 44.5v129q0 25 18.5 45.5t47.5 20.5h47v131q0 25 18.5 45t46.5 20h140q51 0 59 -24.5t8 -54.5v-117h639v117q0 31 10.5 55t57.5 24h137q29 0 49.5 -20.5t20.5 -44.5v-131h63q29 0 48.5 -20.5t19.5 -45.5v-129z" />
    <glyph glyph-name="Itilde" unicode="&#x128;" 
d="M-6 1786q-36 16 -47 37q-14 14 0 59l45 111q23 54 82 31t100 -25t78 5t114 33.5t218 -44.5q25 -10 34 -29q18 -14 0 -57l-51 -111q-14 -29 -40.5 -31t-47.5 9q-90 59 -237 12.5t-248 -0.5zM393 66q0 -25 -19.5 -45.5t-47.5 -20.5h-138q-29 0 -46 20.5t-17 45.5l-4 1507
q0 25 18.5 45t46.5 20h140q29 0 48 -20.5t19 -44.5v-1507z" />
    <glyph glyph-name="itilde" unicode="&#x129;" 
d="M-6 1786q-36 16 -47 37q-14 14 0 59l45 111q23 54 82 31t100 -25t78 5t114 33.5t218 -44.5q25 -10 34 -29q18 -14 0 -57l-51 -111q-14 -29 -40.5 -31t-47.5 9q-90 59 -237 12.5t-248 -0.5zM393 66q0 -25 -19.5 -45.5t-47.5 -20.5h-138q-29 0 -46 20.5t-17 45.5l-4 1507
q0 25 18.5 45t46.5 20h140q29 0 48 -20.5t19 -44.5v-1507z" />
    <glyph glyph-name="Imacron" unicode="&#x12a;" 
d="M659 1833q0 -25 -19 -45.5t-48 -20.5h-662q-29 0 -45 20.5t-20 45.5v129q0 25 18.5 45.5t46.5 20.5h662q29 0 48 -20.5t19 -45.5v-129zM393 66q0 -25 -19.5 -45.5t-47.5 -20.5h-138q-29 0 -46 20.5t-17 45.5l-4 1507q0 25 18.5 45t46.5 20h140q29 0 48 -20.5t19 -44.5
v-1507z" />
    <glyph glyph-name="imacron" unicode="&#x12b;" 
d="M659 1833q0 -25 -19 -45.5t-48 -20.5h-662q-29 0 -45 20.5t-20 45.5v129q0 25 18.5 45.5t46.5 20.5h662q29 0 48 -20.5t19 -45.5v-129zM393 66q0 -25 -19.5 -45.5t-47.5 -20.5h-138q-29 0 -46 20.5t-17 45.5l-4 1507q0 25 18.5 45t46.5 20h140q29 0 48 -20.5t19 -44.5
v-1507z" />
    <glyph glyph-name="Iogonek" unicode="&#x12e;" 
d="M393 66q0 -25 -19.5 -45.5t-47.5 -20.5h-11l-139 -125q-29 -27 -47 -47t-18 -54t22.5 -53.5t61.5 -19.5h38q25 0 44.5 3t30.5 23t32.5 31t44.5 -2l90 -51q66 -34 -20 -139q-63 -66 -195 -66h-98q-112 0 -189 82.5t-77 179.5t23.5 145t92.5 91l111 63h2v5l-4 1507
q0 25 18.5 45t46.5 20h140q29 0 48 -20.5t19 -44.5v-1507z" />
    <glyph glyph-name="iogonek" unicode="&#x12f;" 
d="M393 66q0 -25 -19.5 -45.5t-47.5 -20.5h-11l-139 -125q-29 -27 -47 -47t-18 -54t22.5 -53.5t61.5 -19.5h38q25 0 44.5 3t30.5 23t32.5 31t44.5 -2l90 -51q66 -34 -20 -139q-63 -66 -195 -66h-98q-112 0 -189 82.5t-77 179.5t23.5 145t92.5 91l111 63h2v5l-4 1507
q0 25 18.5 45t46.5 20h140q29 0 48 -20.5t19 -44.5v-1507z" />
    <glyph glyph-name="Idotaccent" unicode="&#x130;" 
d="M397 1829q0 -25 -19.5 -45.5t-47.5 -20.5h-140q-29 0 -47 20.5t-18 45.5v151q0 25 18.5 45.5t46.5 20.5h140q29 0 48 -20.5t19 -45.5v-151zM393 66q0 -25 -19.5 -45.5t-47.5 -20.5h-138q-29 0 -46 20.5t-17 45.5l-4 1507q0 25 18.5 45t46.5 20h140q29 0 48 -20.5
t19 -44.5v-1507z" />
    <glyph glyph-name="dotlessi" unicode="&#x131;" 
d="M393 66q0 -25 -19.5 -45.5t-47.5 -20.5h-140q-29 0 -45 20.5t-16 45.5l-4 1507q0 25 18.5 45t46.5 20h140q29 0 48 -20.5t19 -44.5v-1507z" />
    <glyph glyph-name="IJ" unicode="&#x132;" horiz-adv-x="1806" 
d="M1403 1586q0 52 70 52h139q29 0 47 -20.5t18 -44.5v-1034q0 -224 -157.5 -381.5t-376.5 -157.5h-160q-184 0 -343 134.5t-159 408.5v22q0 29 17.5 49.5t46.5 20.5h139q29 0 48.5 -20.5t19.5 -49.5v-22q0 -83 22 -135q22 -53 81.5 -94.5t127.5 -41.5h160q106 0 184 78
t78 189v977q-2 18 -2 70zM393 66q0 -25 -19.5 -45.5t-47.5 -20.5h-140q-29 0 -45 20.5t-16 45.5l-4 1507q0 25 18.5 45t46.5 20h140q29 0 48 -20.5t19 -44.5v-1507z" />
    <glyph glyph-name="ij" unicode="&#x133;" horiz-adv-x="1806" 
d="M1403 1586q0 52 70 52h139q29 0 47 -20.5t18 -44.5v-1034q0 -224 -157.5 -381.5t-376.5 -157.5h-160q-184 0 -343 134.5t-159 408.5v22q0 29 17.5 49.5t46.5 20.5h139q29 0 48.5 -20.5t19.5 -49.5v-22q0 -83 22 -135q22 -53 81.5 -94.5t127.5 -41.5h160q106 0 184 78
t78 189v977q-2 18 -2 70zM393 66q0 -25 -19.5 -45.5t-47.5 -20.5h-140q-29 0 -45 20.5t-16 45.5l-4 1507q0 25 18.5 45t46.5 20h140q29 0 48 -20.5t19 -44.5v-1507z" />
    <glyph glyph-name="Jcircumflex" unicode="&#x134;" horiz-adv-x="1394" 
d="M1323 1763q-37 0 -61.5 11.5t-59.5 42.5l-76 69l-77 -69q-35 -31 -59.5 -42.5t-61.5 -11.5h-133q-43 0 -53.5 22.5t22.5 53.5l192 178q49 56 115 56h107q45 0 70.5 -15.5t51.5 -40.5l191 -178q35 -31 23.5 -53.5t-54.5 -22.5h-137zM993 1586q0 52 70 52h139
q29 0 47.5 -20.5t18.5 -44.5v-1034q0 -225 -158.5 -382t-376.5 -157h-160q-184 0 -334.5 127.5t-158.5 254t-8 161.5v22q0 29 17 49.5t46 20.5h139q29 0 48.5 -20.5t19.5 -49.5v-22q0 -83 22 -135q22 -53 82 -94.5t127 -41.5h160q108 0 185 78.5t77 188.5v977q-2 18 -2 70z
" />
    <glyph glyph-name="jcircumflex" unicode="&#x135;" horiz-adv-x="1394" 
d="M1323 1763q-37 0 -61.5 11.5t-59.5 42.5l-76 69l-77 -69q-35 -31 -59.5 -42.5t-61.5 -11.5h-133q-43 0 -53.5 22.5t22.5 53.5l192 178q49 56 115 56h107q45 0 70.5 -15.5t51.5 -40.5l191 -178q35 -31 23.5 -53.5t-54.5 -22.5h-137zM993 1586q0 52 70 52h139
q29 0 47.5 -20.5t18.5 -44.5v-1034q0 -225 -158.5 -382t-376.5 -157h-160q-184 0 -334.5 127.5t-158.5 254t-8 161.5v22q0 29 17 49.5t46 20.5h139q29 0 48.5 -20.5t19.5 -49.5v-22q0 -83 22 -135q22 -53 82 -94.5t127 -41.5h160q108 0 185 78.5t77 188.5v977q-2 18 -2 70z
" />
    <glyph glyph-name="uni0136" unicode="&#x136;" horiz-adv-x="1431" 
d="M881 -297q0 -13 -9 -31l-73 -155q-13 -29 -49 -29h-88q-29 0 -30 12.5t1 22.5l37 119h-17q-29 0 -47 19.5t-18 41.5v133q0 23 18.5 41.5t46.5 18.5h158q29 0 49.5 -18.5t20.5 -41.5v-133zM391 66q0 -66 -67 -66h-138q-63 0 -63 66l-4 1507q0 66 67 65h138q68 0 67 -65
v-572l692 641l4 -6q2 2 23 2h190q29 0 49.5 -18t20.5 -47t-24 -49l-23 -27l-569 -534l622 -859q40 -50 -14 -92q-18 -12 -39 -12h-172q-38 0 -59 33l-541 745q-76 -72 -160 -149v-563z" />
    <glyph glyph-name="uni0137" unicode="&#x137;" horiz-adv-x="1431" 
d="M897 -297q0 -15 -8 -31l-74 -155q-13 -29 -49 -29h-88q-29 0 -30 12.5t1 22.5l37 119h-16q-29 0 -47.5 19.5t-18.5 41.5v133q0 23 18.5 41.5t47.5 18.5h157q29 0 49.5 -18.5t20.5 -41.5v-133zM391 66q0 -66 -67 -66h-138q-63 0 -63 66l-4 1507q0 66 67 65h138
q68 0 67 -65v-572l692 641l4 -6q2 2 23 2h190q29 0 49.5 -18t20.5 -47t-24 -49l-23 -27l-569 -534l622 -859q40 -50 -14 -92q-18 -12 -39 -12h-172q-38 0 -59 33l-541 745q-76 -72 -160 -149v-563z" />
    <glyph glyph-name="kgreenlandic" unicode="&#x138;" horiz-adv-x="1431" 
d="M391 66q0 -66 -67 -66h-138q-63 0 -63 66l-4 1507q0 66 67 65h138q68 0 67 -65v-572l692 641l4 -6q2 2 23 2h190q29 0 49.5 -18t20.5 -47t-24 -49l-23 -27l-569 -534l622 -859q40 -50 -14 -92q-18 -12 -39 -12h-172q-38 0 -59 33l-541 745q-76 -72 -160 -149v-563z" />
    <glyph glyph-name="Lacute" unicode="&#x139;" horiz-adv-x="1234" 
d="M213 1769q-88 0 -49 66l98 180q37 51 113 51h139q37 0 51.5 -17t-4.5 -46l-141 -178q-53 -56 -111 -56h-96zM186 0q-61 0 -61 66l-4 1507q0 66 65 65h142q47 0 56 -24.5t9 -54.5v-1287h680q55 0 67.5 -12t12.5 -67v-111q0 -31 -9 -56.5t-57 -25.5h-901z" />
    <glyph glyph-name="lacute" unicode="&#x13a;" horiz-adv-x="1234" 
d="M213 1769q-88 0 -49 66l98 180q37 51 113 51h139q37 0 51.5 -17t-4.5 -46l-141 -178q-53 -56 -111 -56h-96zM186 0q-61 0 -61 66l-4 1507q0 66 65 65h142q47 0 56 -24.5t9 -54.5v-1287h680q55 0 67.5 -12t12.5 -67v-111q0 -31 -9 -56.5t-57 -25.5h-901z" />
    <glyph glyph-name="uni013B" unicode="&#x13b;" horiz-adv-x="1234" 
d="M784 -297q0 -15 -8 -31l-74 -155q-13 -29 -49 -29h-88q-29 0 -29.5 12.5t1.5 22.5l36 119h-16q-29 0 -47 19.5t-18 41.5v133q0 23 18 41.5t47 18.5h158q29 0 49 -18.5t20 -41.5v-133zM186 0q-61 0 -61 66l-4 1507q0 66 65 65h142q47 0 56 -24.5t9 -54.5v-1287h680
q55 0 67.5 -12t12.5 -67v-111q0 -31 -9 -56.5t-57 -25.5h-901z" />
    <glyph glyph-name="uni013C" unicode="&#x13c;" horiz-adv-x="1234" 
d="M778 -297q0 -15 -8 -31l-74 -155q-13 -29 -49 -29h-88q-29 0 -30 12.5t1 22.5l37 119h-16q-29 0 -47.5 19.5t-18.5 41.5v133q0 23 18.5 41.5t47.5 18.5h158q29 0 49 -18.5t20 -41.5v-133zM186 0q-61 0 -61 66l-4 1507q0 66 65 65h142q47 0 56 -24.5t9 -54.5v-1287h680
q55 0 67.5 -12t12.5 -67v-111q0 -31 -9 -56.5t-57 -25.5h-901z" />
    <glyph glyph-name="Lcaron" unicode="&#x13d;" horiz-adv-x="1234" 
d="M616 1055q-25 0 -45 19.5t-20 47.5v451q0 29 20.5 47t44.5 18h125q25 0 45.5 -18t20.5 -47v-451q0 -29 -20.5 -48t-45.5 -19h-125zM186 0q-61 0 -61 66l-4 1507q0 66 65 65h142q47 0 56 -24.5t9 -54.5v-1287h680q55 0 67.5 -12t12.5 -67v-111q0 -31 -9 -56.5t-57 -25.5
h-901z" />
    <glyph glyph-name="lcaron" unicode="&#x13e;" horiz-adv-x="1234" 
d="M616 1055q-25 0 -45 19.5t-20 47.5v451q0 29 20.5 47t44.5 18h125q25 0 45.5 -18t20.5 -47v-451q0 -29 -20.5 -48t-45.5 -19h-125zM186 0q-61 0 -61 66l-4 1507q0 66 65 65h142q47 0 56 -24.5t9 -54.5v-1287h680q55 0 67.5 -12t12.5 -67v-111q0 -31 -9 -56.5t-57 -25.5
h-901z" />
    <glyph glyph-name="Ldot" unicode="&#x13f;" horiz-adv-x="1234" 
d="M803 713q0 -25 -19.5 -45.5t-48.5 -20.5h-139q-29 0 -47.5 20.5t-18.5 45.5v151q0 25 18.5 45.5t47.5 20.5h139q29 0 48.5 -20.5t19.5 -45.5v-151zM186 0q-61 0 -61 66l-4 1507q0 66 65 65h142q47 0 56 -24.5t9 -54.5v-1287h680q55 0 67.5 -12t12.5 -67v-111
q0 -31 -9 -56.5t-57 -25.5h-901z" />
    <glyph glyph-name="ldot" unicode="&#x140;" horiz-adv-x="1234" 
d="M803 713q0 -25 -19.5 -45.5t-48.5 -20.5h-139q-29 0 -47.5 20.5t-18.5 45.5v151q0 25 18.5 45.5t47.5 20.5h139q29 0 48.5 -20.5t19.5 -45.5v-151zM186 0q-61 0 -61 66l-4 1507q0 66 65 65h142q47 0 56 -24.5t9 -54.5v-1287h680q55 0 67.5 -12t12.5 -67v-111
q0 -31 -9 -56.5t-57 -25.5h-901z" />
    <glyph glyph-name="Lslash" unicode="&#x141;" horiz-adv-x="1245" 
d="M197 0q-63 0 -64 66l-2 548l-63 -30q-33 -16 -53.5 -8t-20.5 65v84q0 33 7 52.5t30 35.5l100 49v711q0 66 66 65h141q47 0 56 -24.5t9 -54.5v-562l181 88q35 16 60.5 8t25.5 -65v-84q0 -55 -49 -88l-218 -106v-478h680q55 0 67.5 -12t12.5 -67v-111q0 -31 -9 -56.5
t-56 -25.5h-901z" />
    <glyph glyph-name="lslash" unicode="&#x142;" horiz-adv-x="1245" 
d="M197 0q-63 0 -64 66l-2 548l-63 -30q-33 -16 -53.5 -8t-20.5 65v84q0 33 7 52.5t30 35.5l100 49v711q0 66 66 65h141q47 0 56 -24.5t9 -54.5v-562l181 88q35 16 60.5 8t25.5 -65v-84q0 -55 -49 -88l-218 -106v-478h680q55 0 67.5 -12t12.5 -67v-111q0 -31 -9 -56.5
t-56 -25.5h-901z" />
    <glyph glyph-name="Nacute" unicode="&#x143;" horiz-adv-x="1499" 
d="M739 1767q-59 0 -110 56l-142 178q-18 29 -3.5 46t51.5 17h145q76 0 113 -51l98 -180q32 -66 -49 -66h-103zM1370 66q0 -25 -19.5 -45.5t-47.5 -20.5h-140q-39 0 -57 31q-92 137 -179 267t-174 258t-175.5 259t-182.5 270v-1019q0 -25 -19.5 -45.5t-47.5 -20.5h-140
q-29 0 -46 20.5t-17 45.5l-4 1507q0 25 18.5 45t46.5 20h152q37 0 55 -32v2l703 -1057v1022q0 25 19.5 45t47.5 20h140q29 0 48 -20.5t19 -44.5v-1507z" />
    <glyph glyph-name="nacute" unicode="&#x144;" horiz-adv-x="1499" 
d="M739 1767q-59 0 -110 56l-142 178q-18 29 -3.5 46t51.5 17h145q76 0 113 -51l98 -180q32 -66 -49 -66h-103zM1370 66q0 -25 -19.5 -45.5t-47.5 -20.5h-140q-39 0 -57 31q-92 137 -179 267t-174 258t-175.5 259t-182.5 270v-1019q0 -25 -19.5 -45.5t-47.5 -20.5h-140
q-29 0 -46 20.5t-17 45.5l-4 1507q0 25 18.5 45t46.5 20h152q37 0 55 -32v2l703 -1057v1022q0 25 19.5 45t47.5 20h140q29 0 48 -20.5t19 -44.5v-1507z" />
    <glyph glyph-name="uni0145" unicode="&#x145;" horiz-adv-x="1499" 
d="M922 -297q0 -13 -9 -31l-73 -155q-13 -29 -49 -29h-89q-29 0 -29.5 12.5t1.5 22.5l37 119h-17q-29 0 -47 19.5t-18 41.5v133q0 23 18.5 41.5t46.5 18.5h158q29 0 49.5 -18.5t20.5 -41.5v-133zM1370 66q0 -25 -19.5 -45.5t-47.5 -20.5h-140q-39 0 -57 31q-92 137 -179 267
t-174 258t-175.5 259t-182.5 270v-1019q0 -25 -19.5 -45.5t-47.5 -20.5h-140q-29 0 -46 20.5t-17 45.5l-4 1507q0 25 18.5 45t46.5 20h152q37 0 55 -32v2l703 -1057v1022q0 25 19.5 45t47.5 20h140q29 0 48 -20.5t19 -44.5v-1507z" />
    <glyph glyph-name="uni0146" unicode="&#x146;" horiz-adv-x="1499" 
d="M918 -297q0 -13 -9 -31l-73 -155q-13 -29 -50 -29h-88q-29 0 -29.5 12.5t1.5 22.5l37 119h-17q-29 0 -47 19.5t-18 41.5v133q0 23 18.5 41.5t46.5 18.5h158q29 0 49.5 -18.5t20.5 -41.5v-133zM1370 66q0 -25 -19.5 -45.5t-47.5 -20.5h-140q-39 0 -57 31q-92 137 -179 267
t-174 258t-175.5 259t-182.5 270v-1019q0 -25 -19.5 -45.5t-47.5 -20.5h-140q-29 0 -46 20.5t-17 45.5l-4 1507q0 25 18.5 45t46.5 20h152q37 0 55 -32v2l703 -1057v1022q0 25 19.5 45t47.5 20h140q29 0 48 -20.5t19 -44.5v-1507z" />
    <glyph glyph-name="Ncaron" unicode="&#x147;" horiz-adv-x="1499" 
d="M555 2081q37 0 61.5 -11.5t59.5 -41.5l76 -70l77 70q35 31 59.5 42t61.5 11h133q43 0 53.5 -22.5t-22.5 -53.5l-192 -178q-48 -55 -115 -55h-107q-45 0 -70.5 15t-51.5 40l-191 178q-35 31 -23.5 53.5t54.5 22.5h137zM1370 66q0 -25 -19.5 -45.5t-47.5 -20.5h-140
q-39 0 -57 31q-92 137 -179 267t-174 258t-175.5 259t-182.5 270v-1019q0 -25 -19.5 -45.5t-47.5 -20.5h-140q-29 0 -46 20.5t-17 45.5l-4 1507q0 25 18.5 45t46.5 20h152q37 0 55 -32v2l703 -1057v1022q0 25 19.5 45t47.5 20h140q29 0 48 -20.5t19 -44.5v-1507z" />
    <glyph glyph-name="ncaron" unicode="&#x148;" horiz-adv-x="1499" 
d="M555 2081q37 0 61.5 -11.5t59.5 -41.5l76 -70l77 70q35 31 59.5 42t61.5 11h133q43 0 53.5 -22.5t-22.5 -53.5l-192 -178q-48 -55 -115 -55h-107q-45 0 -70.5 15t-51.5 40l-191 178q-35 31 -23.5 53.5t54.5 22.5h137zM1370 66q0 -25 -19.5 -45.5t-47.5 -20.5h-140
q-39 0 -57 31q-92 137 -179 267t-174 258t-175.5 259t-182.5 270v-1019q0 -25 -19.5 -45.5t-47.5 -20.5h-140q-29 0 -46 20.5t-17 45.5l-4 1507q0 25 18.5 45t46.5 20h152q37 0 55 -32v2l703 -1057v1022q0 25 19.5 45t47.5 20h140q29 0 48 -20.5t19 -44.5v-1507z" />
    <glyph glyph-name="napostrophe" unicode="&#x149;" horiz-adv-x="1843" 
d="M184 1063q-25 0 -45 19.5t-20 47.5v451q0 29 20.5 47.5t44.5 18.5h125q25 0 45.5 -18.5t20.5 -47.5v-451q0 -29 -20.5 -48t-45.5 -19h-125zM1733 66q0 -25 -19.5 -45.5t-48.5 -20.5h-139q-39 0 -58 31q-92 137 -179 267t-174 258t-175 259t-182 270v-1019
q0 -25 -19.5 -45.5t-48.5 -20.5h-139q-29 0 -46.5 20.5t-17.5 45.5l-4 1507q0 25 18.5 45t47.5 20h151q37 0 56 -32v2l702 -1057v1022q0 25 19.5 45t48.5 20h139q29 0 48.5 -20.5t19.5 -44.5v-1507z" />
    <glyph glyph-name="Omacron" unicode="&#x14c;" horiz-adv-x="1628" 
d="M1212 1833q0 -25 -19 -45.5t-48 -20.5h-662q-29 0 -45 20.5t-20 45.5v129q0 25 18.5 45.5t46.5 20.5h662q29 0 48 -20.5t19 -45.5v-129zM1249 983q0 172 -128.5 295t-309 123t-310.5 -122.5t-130 -295.5v-321q0 -171 127.5 -294.5t311.5 -123.5t311.5 123.5t127.5 294.5
v321zM1526 662q0 -141 -56.5 -265.5t-153.5 -216.5t-227.5 -145t-277.5 -53t-277.5 53t-228.5 145t-154.5 216t-56.5 266v321q0 141 57.5 265t154.5 215t228.5 144.5t279 53.5t277.5 -53.5t227 -144.5t152.5 -215t55.5 -265v-321z" />
    <glyph glyph-name="omacron" unicode="&#x14d;" horiz-adv-x="1628" 
d="M1212 1833q0 -25 -19 -45.5t-48 -20.5h-662q-29 0 -45 20.5t-20 45.5v129q0 25 18.5 45.5t46.5 20.5h662q29 0 48 -20.5t19 -45.5v-129zM1249 983q0 172 -128.5 295t-309 123t-310.5 -122.5t-130 -295.5v-321q0 -171 127.5 -294.5t311.5 -123.5t311.5 123.5t127.5 294.5
v321zM1526 662q0 -141 -56.5 -265.5t-153.5 -216.5t-227.5 -145t-277.5 -53t-277.5 53t-228.5 145t-154.5 216t-56.5 266v321q0 141 57.5 265t154.5 215t228.5 144.5t279 53.5t277.5 -53.5t227 -144.5t152.5 -215t55.5 -265v-321z" />
    <glyph glyph-name="Obreve" unicode="&#x14e;" horiz-adv-x="1628" 
d="M1526 662q0 -141 -56.5 -265.5t-153.5 -216.5t-227.5 -145t-277.5 -53t-277.5 53t-228.5 145t-154.5 216t-56.5 266v321q0 141 57.5 265t154.5 215t228.5 144.5t279 53.5t277.5 -53.5t227 -144.5t152.5 -215t55.5 -265v-321zM1249 983q0 172 -128.5 295t-309 123
t-310.5 -122.5t-130 -295.5v-321q0 -171 127.5 -294.5t311.5 -123.5t311.5 123.5t127.5 294.5v321zM1085 2079q35 0 53.5 -20.5t18.5 -45.5v-48q0 -48 -57.5 -125t-218.5 -77h-62l-74 2q-155 0 -214.5 75.5t-59.5 89.5v83q0 25 18.5 45.5t53.5 20.5h65q31 0 52.5 -19.5
t21.5 -46.5v-10q0 -46 23.5 -60t42.5 -14h133q42 0 61 37q6 14 6 37v10q0 27 20.5 46.5t51.5 19.5h65z" />
    <glyph glyph-name="obreve" unicode="&#x14f;" horiz-adv-x="1628" 
d="M1526 662q0 -141 -56.5 -265.5t-153.5 -216.5t-227.5 -145t-277.5 -53t-277.5 53t-228.5 145t-154.5 216t-56.5 266v321q0 141 57.5 265t154.5 215t228.5 144.5t279 53.5t277.5 -53.5t227 -144.5t152.5 -215t55.5 -265v-321zM1249 983q0 172 -128.5 295t-309 123
t-310.5 -122.5t-130 -295.5v-321q0 -171 127.5 -294.5t311.5 -123.5t311.5 123.5t127.5 294.5v321zM1085 2079q35 0 53.5 -20.5t18.5 -45.5v-48q0 -48 -57.5 -125t-218.5 -77h-62l-74 2q-155 0 -214.5 75.5t-59.5 89.5v83q0 25 18.5 45.5t53.5 20.5h65q31 0 52.5 -19.5
t21.5 -46.5v-10q0 -46 23.5 -60t42.5 -14h133q42 0 61 37q6 14 6 37v10q0 27 20.5 46.5t51.5 19.5h65z" />
    <glyph glyph-name="Ohungarumlaut" unicode="&#x150;" horiz-adv-x="1628" 
d="M965 1765q-86 0 -50 66l99 180q37 51 112 51h140q37 0 51 -17t-4 -46l-142 -178q-53 -56 -110 -56h-96zM569 1765q-85 0 -49 66l98 180q37 51 113 51h139q37 0 51.5 -17t-3.5 -46l-142 -178q-53 -56 -110 -56h-97zM1249 983q0 172 -128.5 295t-309 123t-310.5 -122.5
t-130 -295.5v-321q0 -171 127.5 -294.5t311.5 -123.5t311.5 123.5t127.5 294.5v321zM1526 662q0 -141 -56.5 -265.5t-153.5 -216.5t-227.5 -145t-277.5 -53t-277.5 53t-228.5 145t-154.5 216t-56.5 266v321q0 141 57.5 265t154.5 215t228.5 144.5t279 53.5t277.5 -53.5
t227 -144.5t152.5 -215t55.5 -265v-321z" />
    <glyph glyph-name="ohungarumlaut" unicode="&#x151;" horiz-adv-x="1628" 
d="M965 1765q-86 0 -50 66l99 180q37 51 112 51h140q37 0 51 -17t-4 -46l-142 -178q-53 -56 -110 -56h-96zM569 1765q-85 0 -49 66l98 180q37 51 113 51h139q37 0 51.5 -17t-3.5 -46l-142 -178q-53 -56 -110 -56h-97zM1249 983q0 172 -128.5 295t-309 123t-310.5 -122.5
t-130 -295.5v-321q0 -171 127.5 -294.5t311.5 -123.5t311.5 123.5t127.5 294.5v321zM1526 662q0 -141 -56.5 -265.5t-153.5 -216.5t-227.5 -145t-277.5 -53t-277.5 53t-228.5 145t-154.5 216t-56.5 266v321q0 141 57.5 265t154.5 215t228.5 144.5t279 53.5t277.5 -53.5
t227 -144.5t152.5 -215t55.5 -265v-321z" />
    <glyph glyph-name="OE" unicode="&#x152;" horiz-adv-x="2019" 
d="M954 262v1129h-149q-86 0 -166 -33q-119 -47 -193.5 -142.5t-74.5 -232.5v-321q0 -288 194.5 -344t237.5 -56h151zM811 0q-262 0 -438 121q-175 121 -227 257t-52 284v321q0 141 56.5 265t154.5 208t229.5 133t278.5 49h1024q51 0 59.5 -24.5t8.5 -54.5v-107
q0 -55 -14.5 -67.5t-67.5 -12.5h-606v-368h520q29 0 47 -19.5t18 -48.5v-139q0 -29 -18.5 -48.5t-46.5 -19.5h-520v-463h632q53 0 67.5 -12t14.5 -68v-104q0 -31 -8 -56.5t-59 -25.5h-1053z" />
    <glyph glyph-name="oe" unicode="&#x153;" horiz-adv-x="2019" 
d="M954 262v1129h-149q-86 0 -166 -33q-119 -47 -193.5 -142.5t-74.5 -232.5v-321q0 -288 194.5 -344t237.5 -56h151zM811 0q-262 0 -438 121q-175 121 -227 257t-52 284v321q0 141 56.5 265t154.5 208t229.5 133t278.5 49h1024q51 0 59.5 -24.5t8.5 -54.5v-107
q0 -55 -14.5 -67.5t-67.5 -12.5h-606v-368h520q29 0 47 -19.5t18 -48.5v-139q0 -29 -18.5 -48.5t-46.5 -19.5h-520v-463h632q53 0 67.5 -12t14.5 -68v-104q0 -31 -8 -56.5t-59 -25.5h-1053z" />
    <glyph glyph-name="Racute" unicode="&#x154;" horiz-adv-x="1431" 
d="M567 1774q-85 0 -49 65l98 180q37 51 113 52h139q37 0 51.5 -17.5t-4.5 -46.5l-141 -178q-52 -55 -110 -55h-97zM397 80q0 -31 -9 -55.5t-56 -24.5h-146q-29 0 -46 20.5t-17 45.5l-4 1507q0 25 19.5 45t47.5 20h729q138 0 242.5 -104.5t104.5 -232.5t-56.5 -202.5
t-144.5 -133.5q64 -167 150 -405t180 -476q16 -41 -3.5 -62.5t-60.5 -21.5h-156q-33 0 -45 15.5t-20 35.5l-295 780l-414 -219v-532zM397 1366v-446q41 20 95.5 46.5t247.5 128.5t227 152v-2q12 18 12 47t-22.5 51.5t-57.5 22.5h-502z" />
    <glyph glyph-name="racute" unicode="&#x155;" horiz-adv-x="1431" 
d="M567 1774q-85 0 -49 65l98 180q37 51 113 52h139q37 0 51.5 -17.5t-4.5 -46.5l-141 -178q-52 -55 -110 -55h-97zM397 80q0 -31 -9 -55.5t-56 -24.5h-146q-29 0 -46 20.5t-17 45.5l-4 1507q0 25 19.5 45t47.5 20h729q138 0 242.5 -104.5t104.5 -232.5t-56.5 -202.5
t-144.5 -133.5q64 -167 150 -405t180 -476q16 -41 -3.5 -62.5t-60.5 -21.5h-156q-33 0 -45 15.5t-20 35.5l-295 780l-414 -219v-532zM397 1366v-446q41 20 95.5 46.5t247.5 128.5t227 152v-2q12 18 12 47t-22.5 51.5t-57.5 22.5h-502z" />
    <glyph glyph-name="uni0156" unicode="&#x156;" horiz-adv-x="1431" 
d="M907 -297q0 -15 -8 -31l-74 -155q-13 -29 -49 -29h-88q-29 0 -30 12.5t1 22.5l37 119h-16q-29 0 -47.5 19.5t-18.5 41.5v133q0 23 18.5 41.5t47.5 18.5h158q29 0 49 -18.5t20 -41.5v-133zM397 80q0 -31 -9 -55.5t-56 -24.5h-146q-29 0 -46 20.5t-17 45.5l-4 1507
q0 25 19.5 45t47.5 20h729q138 0 242.5 -104.5t104.5 -232.5t-56.5 -202.5t-144.5 -133.5q64 -167 150 -405t180 -476q16 -41 -3.5 -62.5t-60.5 -21.5h-156q-33 0 -45 15.5t-20 35.5l-295 780l-414 -219v-532zM397 1366v-446q41 20 95.5 46.5t247.5 128.5t227 152v-2
q12 18 12 47t-22.5 51.5t-57.5 22.5h-502z" />
    <glyph glyph-name="uni0157" unicode="&#x157;" horiz-adv-x="1431" 
d="M909 -297q0 -15 -8 -31l-74 -155q-13 -29 -49 -29h-88q-29 0 -30 12.5t2 22.5l36 119h-16q-29 0 -47.5 19.5t-18.5 41.5v133q0 23 18.5 41.5t47.5 18.5h158q29 0 49 -18.5t20 -41.5v-133zM397 80q0 -31 -9 -55.5t-56 -24.5h-146q-29 0 -46 20.5t-17 45.5l-4 1507
q0 25 19.5 45t47.5 20h729q138 0 242.5 -104.5t104.5 -232.5t-56.5 -202.5t-144.5 -133.5q64 -167 150 -405t180 -476q16 -41 -3.5 -62.5t-60.5 -21.5h-156q-33 0 -45 15.5t-20 35.5l-295 780l-414 -219v-532zM397 1366v-446q41 20 95.5 46.5t247.5 128.5t227 152v-2
q12 18 12 47t-22.5 51.5t-57.5 22.5h-502z" />
    <glyph glyph-name="Rcaron" unicode="&#x158;" horiz-adv-x="1431" 
d="M485 2081q37 0 61.5 -11.5t59.5 -41.5l76 -70l78 70q35 31 59.5 42t61.5 11h133q43 0 53 -22.5t-23 -53.5l-192 -178q-48 -55 -115 -55h-106q-45 0 -70.5 15t-52.5 40l-191 178q-35 31 -23.5 53.5t54.5 22.5h137zM397 80q0 -31 -9 -55.5t-56 -24.5h-146q-29 0 -46 20.5
t-17 45.5l-4 1507q0 25 19.5 45t47.5 20h729q138 0 242.5 -104.5t104.5 -232.5t-56.5 -202.5t-144.5 -133.5q64 -167 150 -405t180 -476q16 -41 -3.5 -62.5t-60.5 -21.5h-156q-33 0 -45 15.5t-20 35.5l-295 780l-414 -219v-532zM397 1366v-446q41 20 95.5 46.5t247.5 128.5
t227 152v-2q12 18 12 47t-22.5 51.5t-57.5 22.5h-502z" />
    <glyph glyph-name="rcaron" unicode="&#x159;" horiz-adv-x="1431" 
d="M485 2081q37 0 61.5 -11.5t59.5 -41.5l76 -70l78 70q35 31 59.5 42t61.5 11h133q43 0 53 -22.5t-23 -53.5l-192 -178q-48 -55 -115 -55h-106q-45 0 -70.5 15t-52.5 40l-191 178q-35 31 -23.5 53.5t54.5 22.5h137zM397 80q0 -31 -9 -55.5t-56 -24.5h-146q-29 0 -46 20.5
t-17 45.5l-4 1507q0 25 19.5 45t47.5 20h729q138 0 242.5 -104.5t104.5 -232.5t-56.5 -202.5t-144.5 -133.5q64 -167 150 -405t180 -476q16 -41 -3.5 -62.5t-60.5 -21.5h-156q-33 0 -45 15.5t-20 35.5l-295 780l-414 -219v-532zM397 1366v-446q41 20 95.5 46.5t247.5 128.5
t227 152v-2q12 18 12 47t-22.5 51.5t-57.5 22.5h-502z" />
    <glyph glyph-name="Sacute" unicode="&#x15a;" horiz-adv-x="1368" 
d="M616 1769q-85 0 -49 66l99 180q37 51 112 51h140q37 0 51 -17t-4 -46l-142 -178q-53 -56 -110 -56h-97zM301 588q68 0 68 -98q0 -32 4 -72q16 -76 78.5 -125t142.5 -49h156q92 0 171.5 53t79.5 113.5t3.5 95t-33.5 74.5q-43 37 -131 57t-192 45t-328 90.5t-224 325.5v28
q0 94 13 142l-3 -2q31 169 172.5 281t315.5 112h156q181 0 291 -87t149 -186.5t35 -218.5q-2 -31 -10.5 -55.5t-55.5 -24.5h-135q-29 0 -46 20.5t-20 45.5q-4 131 -57 185.5t-151 54.5h-156q-121 0 -194 -109q-32 -48 -34 -113t38 -105t88 -52l235 -66q92 -27 157.5 -44
t125.5 -39t123 -63q63 -42 103 -116t40 -156q0 -139 -43.5 -255t-113.5 -177q-132 -116 -369 -116h-156q-135 0 -246.5 62t-180.5 176t-69 288q0 31 8.5 55.5t55.5 24.5h139z" />
    <glyph glyph-name="sacute" unicode="&#x15b;" horiz-adv-x="1368" 
d="M616 1769q-85 0 -49 66l99 180q37 51 112 51h140q37 0 51 -17t-4 -46l-142 -178q-53 -56 -110 -56h-97zM301 588q68 0 68 -98q0 -32 4 -72q16 -76 78.5 -125t142.5 -49h156q92 0 171.5 53t79.5 113.5t3.5 95t-33.5 74.5q-43 37 -131 57t-192 45t-328 90.5t-224 325.5v28
q0 94 13 142l-3 -2q31 169 172.5 281t315.5 112h156q181 0 291 -87t149 -186.5t35 -218.5q-2 -31 -10.5 -55.5t-55.5 -24.5h-135q-29 0 -46 20.5t-20 45.5q-4 131 -57 185.5t-151 54.5h-156q-121 0 -194 -109q-32 -48 -34 -113t38 -105t88 -52l235 -66q92 -27 157.5 -44
t125.5 -39t123 -63q63 -42 103 -116t40 -156q0 -139 -43.5 -255t-113.5 -177q-132 -116 -369 -116h-156q-135 0 -246.5 62t-180.5 176t-69 288q0 31 8.5 55.5t55.5 24.5h139z" />
    <glyph glyph-name="Scircumflex" unicode="&#x15c;" horiz-adv-x="1368" 
d="M881 1763q-37 0 -62.5 11.5t-58.5 42.5l-76 69l-78 -69q-35 -31 -59.5 -42.5t-61.5 -11.5h-133q-43 0 -54 22.5t24 53.5l192 178q49 56 115 56h106q45 0 69.5 -15.5t53.5 -40.5l191 -178q33 -31 22.5 -53.5t-53.5 -22.5h-137zM301 588q68 0 68 -98q0 -32 4 -72
q16 -76 78.5 -125t142.5 -49h156q92 0 171.5 53t79.5 113.5t3.5 95t-33.5 74.5q-43 37 -131 57t-192 45t-328 90.5t-224 325.5v28q0 94 13 142l-3 -2q31 169 172.5 281t315.5 112h156q181 0 291 -87t149 -186.5t35 -218.5q-2 -31 -10.5 -55.5t-55.5 -24.5h-135
q-29 0 -46 20.5t-20 45.5q-4 131 -57 185.5t-151 54.5h-156q-121 0 -194 -109q-32 -48 -34 -113t38 -105t88 -52l235 -66q92 -27 157.5 -44t125.5 -39t123 -63q63 -42 103 -116t40 -156q0 -139 -43.5 -255t-113.5 -177q-132 -116 -369 -116h-156q-135 0 -246.5 62
t-180.5 176t-69 288q0 31 8.5 55.5t55.5 24.5h139z" />
    <glyph glyph-name="scircumflex" unicode="&#x15d;" horiz-adv-x="1368" 
d="M881 1763q-37 0 -62.5 11.5t-58.5 42.5l-76 69l-78 -69q-35 -31 -59.5 -42.5t-61.5 -11.5h-133q-43 0 -54 22.5t24 53.5l192 178q49 56 115 56h106q45 0 69.5 -15.5t53.5 -40.5l191 -178q33 -31 22.5 -53.5t-53.5 -22.5h-137zM301 588q68 0 68 -98q0 -32 4 -72
q16 -76 78.5 -125t142.5 -49h156q92 0 171.5 53t79.5 113.5t3.5 95t-33.5 74.5q-43 37 -131 57t-192 45t-328 90.5t-224 325.5v28q0 94 13 142l-3 -2q31 169 172.5 281t315.5 112h156q181 0 291 -87t149 -186.5t35 -218.5q-2 -31 -10.5 -55.5t-55.5 -24.5h-135
q-29 0 -46 20.5t-20 45.5q-4 131 -57 185.5t-151 54.5h-156q-121 0 -194 -109q-32 -48 -34 -113t38 -105t88 -52l235 -66q92 -27 157.5 -44t125.5 -39t123 -63q63 -42 103 -116t40 -156q0 -139 -43.5 -255t-113.5 -177q-132 -116 -369 -116h-156q-135 0 -246.5 62
t-180.5 176t-69 288q0 31 8.5 55.5t55.5 24.5h139z" />
    <glyph glyph-name="Scedilla" unicode="&#x15e;" horiz-adv-x="1368" 
d="M301 588q68 0 68 -98q0 -32 4 -72q16 -76 78.5 -125t142.5 -49h156q92 0 171.5 53t79.5 113.5t3.5 95t-33.5 74.5q-43 37 -131 57t-192 45t-328 90.5t-224 325.5v28q0 94 13 142l-3 -2q31 169 172.5 281t315.5 112h156q181 0 291 -87t149 -186.5t35 -218.5
q-2 -31 -10.5 -55.5t-55.5 -24.5h-135q-29 0 -46 20.5t-20 45.5q-4 131 -57 185.5t-151 54.5h-156q-121 0 -194 -109q-32 -48 -34 -113t38 -105t88 -52l235 -66q92 -27 157.5 -44t125.5 -39t123 -63q63 -42 103 -116t40 -156q0 -139 -43.5 -255t-111.5 -176
q-121 -108 -351 -117l-29 -76q10 -2 56.5 -11t95.5 -73t49 -134q0 -126 -79.5 -208t-188.5 -82h-99q-112 0 -194 86q-83 105 -21 139l91 51q23 12 44 1t32 -30q27 -46 75 -46h39q39 0 61.5 19.5t22.5 53.5t-22.5 57t-61.5 23h-96q-59 0 -37 68l61 162q-129 6 -233.5 68.5
t-156.5 148.5t-64.5 147.5t-14.5 94t-2 65.5t8.5 57.5t55.5 24.5h139z" />
    <glyph glyph-name="scedilla" unicode="&#x15f;" horiz-adv-x="1368" 
d="M301 588q68 0 68 -98q0 -32 4 -72q16 -76 78.5 -125t142.5 -49h156q92 0 171.5 53t79.5 113.5t3.5 95t-33.5 74.5q-43 37 -131 57t-192 45t-328 90.5t-224 325.5v28q0 94 13 142l-3 -2q31 169 172.5 281t315.5 112h156q181 0 291 -87t149 -186.5t35 -218.5
q-2 -31 -10.5 -55.5t-55.5 -24.5h-135q-29 0 -46 20.5t-20 45.5q-4 131 -57 185.5t-151 54.5h-156q-121 0 -194 -109q-32 -48 -34 -113t38 -105t88 -52l235 -66q92 -27 157.5 -44t125.5 -39t123 -63q63 -42 103 -116t40 -156q0 -139 -43.5 -255t-111.5 -176
q-121 -108 -351 -117l-29 -76q10 -2 56.5 -11t95.5 -73t49 -134q0 -126 -79.5 -208t-188.5 -82h-99q-112 0 -194 86q-83 105 -21 139l91 51q23 12 44 1t32 -30q27 -46 75 -46h39q39 0 61.5 19.5t22.5 53.5t-22.5 57t-61.5 23h-96q-59 0 -37 68l61 162q-129 6 -233.5 68.5
t-156.5 148.5t-64.5 147.5t-14.5 94t-2 65.5t8.5 57.5t55.5 24.5h139z" />
    <glyph glyph-name="Scaron" unicode="&#x160;" horiz-adv-x="1368" 
d="M492 2085q37 0 61.5 -11.5t58.5 -41.5l76 -70l78 70q35 31 59.5 42t61.5 11h133q43 0 53 -22.5t-22 -53.5l-193 -178q-48 -55 -115 -55h-106q-45 0 -70.5 15t-52.5 40l-190 178q-35 31 -24 53.5t54 22.5h138zM301 588q68 0 68 -98q0 -32 4 -72q16 -76 78.5 -125
t142.5 -49h156q92 0 171.5 53t79.5 113.5t3.5 95t-33.5 74.5q-43 37 -131 57t-192 45t-328 90.5t-224 325.5v28q0 94 13 142l-3 -2q31 169 172.5 281t315.5 112h156q181 0 291 -87t149 -186.5t35 -218.5q-2 -31 -10.5 -55.5t-55.5 -24.5h-135q-29 0 -46 20.5t-20 45.5
q-4 131 -57 185.5t-151 54.5h-156q-121 0 -194 -109q-32 -48 -34 -113t38 -105t88 -52l235 -66q92 -27 157.5 -44t125.5 -39t123 -63q63 -42 103 -116t40 -156q0 -139 -43.5 -255t-113.5 -177q-132 -116 -369 -116h-156q-135 0 -246.5 62t-180.5 176t-69 288q0 31 8.5 55.5
t55.5 24.5h139z" />
    <glyph glyph-name="scaron" unicode="&#x161;" horiz-adv-x="1368" 
d="M492 2085q37 0 61.5 -11.5t58.5 -41.5l76 -70l78 70q35 31 59.5 42t61.5 11h133q43 0 53 -22.5t-22 -53.5l-193 -178q-48 -55 -115 -55h-106q-45 0 -70.5 15t-52.5 40l-190 178q-35 31 -24 53.5t54 22.5h138zM301 588q68 0 68 -98q0 -32 4 -72q16 -76 78.5 -125
t142.5 -49h156q92 0 171.5 53t79.5 113.5t3.5 95t-33.5 74.5q-43 37 -131 57t-192 45t-328 90.5t-224 325.5v28q0 94 13 142l-3 -2q31 169 172.5 281t315.5 112h156q181 0 291 -87t149 -186.5t35 -218.5q-2 -31 -10.5 -55.5t-55.5 -24.5h-135q-29 0 -46 20.5t-20 45.5
q-4 131 -57 185.5t-151 54.5h-156q-121 0 -194 -109q-32 -48 -34 -113t38 -105t88 -52l235 -66q92 -27 157.5 -44t125.5 -39t123 -63q63 -42 103 -116t40 -156q0 -139 -43.5 -255t-113.5 -177q-132 -116 -369 -116h-156q-135 0 -246.5 62t-180.5 176t-69 288q0 31 8.5 55.5
t55.5 24.5h139z" />
    <glyph glyph-name="uni0162" unicode="&#x162;" horiz-adv-x="1310" 
d="M793 1374v-1294q0 -27 -6.5 -49.5t-36.5 -28.5v-2l-37 -94q104 -21 152 -84.5t48 -133.5q0 -126 -78.5 -208t-189.5 -82h-98q-113 0 -195 86q-84 106 -20 139l90 51q23 12 43.5 1t32.5 -30q28 -46 75 -46h39q39 0 61.5 19.5t22.5 53.5t-22.5 57t-61.5 23h-96
q-59 0 -37 68l70 186q-23 10 -26 30.5t-3 43.5v1294h-397q-53 0 -67.5 15.5t-14.5 64.5v105q0 31 9 55t56 24h1092q47 0 57.5 -24.5t10.5 -54.5v-105q0 -49 -13.5 -64.5t-66.5 -15.5h-393z" />
    <glyph glyph-name="uni0163" unicode="&#x163;" horiz-adv-x="1310" 
d="M793 1374v-1294q0 -27 -6.5 -49.5t-36.5 -28.5v-2l-37 -94q104 -21 152 -84.5t48 -133.5q0 -126 -78.5 -208t-189.5 -82h-98q-113 0 -195 86q-84 106 -20 139l90 51q23 12 43.5 1t32.5 -30q28 -46 75 -46h39q39 0 61.5 19.5t22.5 53.5t-22.5 57t-61.5 23h-96
q-59 0 -37 68l70 186q-23 10 -26 30.5t-3 43.5v1294h-397q-53 0 -67.5 15.5t-14.5 64.5v105q0 31 9 55t56 24h1092q47 0 57.5 -24.5t10.5 -54.5v-105q0 -49 -13.5 -64.5t-66.5 -15.5h-393z" />
    <glyph glyph-name="Tcaron" unicode="&#x164;" horiz-adv-x="1310" 
d="M461 2081q37 0 61.5 -11.5t59.5 -41.5l75 -70l78 70q35 31 59.5 42t61.5 11h133q43 0 53.5 -22.5t-22.5 -53.5l-193 -178q-48 -55 -114 -55h-107q-45 0 -70.5 15t-52.5 40l-190 178q-35 31 -23.5 53.5t54.5 22.5h137zM793 1374v-1294q0 -31 -9.5 -55.5t-56.5 -24.5h-141
q-47 0 -56.5 24.5t-9.5 55.5v1294h-397q-53 0 -67.5 15.5t-14.5 64.5v105q0 31 9 55t56 24h1092q47 0 57.5 -24.5t10.5 -54.5v-105q0 -49 -13.5 -64.5t-66.5 -15.5h-393z" />
    <glyph glyph-name="tcaron" unicode="&#x165;" horiz-adv-x="1310" 
d="M461 2081q37 0 61.5 -11.5t59.5 -41.5l75 -70l78 70q35 31 59.5 42t61.5 11h133q43 0 53.5 -22.5t-22.5 -53.5l-193 -178q-48 -55 -114 -55h-107q-45 0 -70.5 15t-52.5 40l-190 178q-35 31 -23.5 53.5t54.5 22.5h137zM793 1374v-1294q0 -31 -9.5 -55.5t-56.5 -24.5h-141
q-47 0 -56.5 24.5t-9.5 55.5v1294h-397q-53 0 -67.5 15.5t-14.5 64.5v105q0 31 9 55t56 24h1092q47 0 57.5 -24.5t10.5 -54.5v-105q0 -49 -13.5 -64.5t-66.5 -15.5h-393z" />
    <glyph glyph-name="Tbar" unicode="&#x166;" horiz-adv-x="1310" 
d="M1217 817q0 -25 -19.5 -45t-48.5 -20h-356v-672q0 -31 -9.5 -55.5t-56.5 -24.5h-141q-47 0 -56.5 24.5t-9.5 55.5v672h-360q-29 0 -47.5 20.5t-18.5 44.5v129q0 25 18.5 45.5t47.5 20.5h360v362h-397q-53 0 -67.5 15.5t-14.5 64.5v105q0 31 9 55t56 24h1092
q47 0 57.5 -24.5t10.5 -54.5v-105q0 -49 -13.5 -64.5t-66.5 -15.5h-393v-362h356q29 0 48.5 -20.5t19.5 -45.5v-129z" />
    <glyph glyph-name="tbar" unicode="&#x167;" horiz-adv-x="1310" 
d="M1217 817q0 -25 -19.5 -45t-48.5 -20h-356v-672q0 -31 -9.5 -55.5t-56.5 -24.5h-141q-47 0 -56.5 24.5t-9.5 55.5v672h-360q-29 0 -47.5 20.5t-18.5 44.5v129q0 25 18.5 45.5t47.5 20.5h360v362h-397q-53 0 -67.5 15.5t-14.5 64.5v105q0 31 9 55t56 24h1092
q47 0 57.5 -24.5t10.5 -54.5v-105q0 -49 -13.5 -64.5t-66.5 -15.5h-393v-362h356q29 0 48.5 -20.5t19.5 -45.5v-129z" />
    <glyph glyph-name="Utilde" unicode="&#x168;" horiz-adv-x="1433" 
d="M427 1794q-38 18 -46 37q-18 16 0 59l45 111q23 54 99 25q103 -39 229 3.5t264 -28.5q25 -10 35 -29q20 -14 0 -57l-52 -111q-14 -29 -40.5 -30.5t-47.5 8.5q-90 59 -202.5 23.5t-179 -32.5t-104.5 21zM1305 520q0 -216 -157.5 -368t-371.5 -152h-158q-205 0 -351 144
t-146 350v1079q0 66 65 65h138q47 0 56 -24.5t9 -54.5v-1065q0 -93 68 -159.5t161 -66.5h158q110 0 184 75.5t74 176.5v1039q0 31 10.5 55t57.5 24h135q68 0 68 -65v-1053z" />
    <glyph glyph-name="utilde" unicode="&#x169;" horiz-adv-x="1433" 
d="M427 1794q-38 18 -46 37q-18 16 0 59l45 111q23 54 99 25q103 -39 229 3.5t264 -28.5q25 -10 35 -29q20 -14 0 -57l-52 -111q-14 -29 -40.5 -30.5t-47.5 8.5q-90 59 -202.5 23.5t-179 -32.5t-104.5 21zM1305 520q0 -216 -157.5 -368t-371.5 -152h-158q-205 0 -351 144
t-146 350v1079q0 66 65 65h138q47 0 56 -24.5t9 -54.5v-1065q0 -93 68 -159.5t161 -66.5h158q110 0 184 75.5t74 176.5v1039q0 31 10.5 55t57.5 24h135q68 0 68 -65v-1053z" />
    <glyph glyph-name="Umacron" unicode="&#x16a;" horiz-adv-x="1433" 
d="M385 1767q-53 0 -66 66v129q0 25 18.5 45.5t47.5 20.5h662q29 0 48 -20.5t19 -45.5v-129q0 -25 -19.5 -45.5t-47.5 -20.5h-662zM1305 520q0 -216 -157.5 -368t-371.5 -152h-158q-205 0 -351 144t-146 350v1079q0 66 65 65h138q47 0 56 -24.5t9 -54.5v-1065
q0 -93 68 -159.5t161 -66.5h158q110 0 184 75.5t74 176.5v1039q0 31 10.5 55t57.5 24h135q68 0 68 -65v-1053z" />
    <glyph glyph-name="umacron" unicode="&#x16b;" horiz-adv-x="1433" 
d="M385 1767q-53 0 -66 66v129q0 25 18.5 45.5t47.5 20.5h662q29 0 48 -20.5t19 -45.5v-129q0 -25 -19.5 -45.5t-47.5 -20.5h-662zM1305 520q0 -216 -157.5 -368t-371.5 -152h-158q-205 0 -351 144t-146 350v1079q0 66 65 65h138q47 0 56 -24.5t9 -54.5v-1065
q0 -93 68 -159.5t161 -66.5h158q110 0 184 75.5t74 176.5v1039q0 31 10.5 55t57.5 24h135q68 0 68 -65v-1053z" />
    <glyph glyph-name="Ubreve" unicode="&#x16c;" horiz-adv-x="1433" 
d="M1305 520q0 -216 -157.5 -368t-371.5 -152h-158q-205 0 -351 144t-146 350v1079q0 66 65 65h138q47 0 56 -24.5t9 -54.5v-1065q0 -93 68 -159.5t161 -66.5h158q110 0 184 75.5t74 176.5v1039q0 31 10.5 55t57.5 24h135q68 0 68 -65v-1053zM784 1929q66 0 66 74v10
q0 27 20.5 46.5t53.5 19.5h65q35 0 53.5 -20.5t18.5 -45.5v-48q0 -48 -59 -125t-218 -77h-63l-72 2q-98 2 -187 52t-89 186v10q0 25 18.5 45.5t52.5 20.5h66q33 0 53.5 -19.5t20.5 -46.5v-10q0 -44 23.5 -59t41.5 -15h135z" />
    <glyph glyph-name="ubreve" unicode="&#x16d;" horiz-adv-x="1433" 
d="M1305 520q0 -216 -157.5 -368t-371.5 -152h-158q-205 0 -351 144t-146 350v1079q0 66 65 65h138q47 0 56 -24.5t9 -54.5v-1065q0 -93 68 -159.5t161 -66.5h158q110 0 184 75.5t74 176.5v1039q0 31 10.5 55t57.5 24h135q68 0 68 -65v-1053zM784 1929q66 0 66 74v10
q0 27 20.5 46.5t53.5 19.5h65q35 0 53.5 -20.5t18.5 -45.5v-48q0 -48 -59 -125t-218 -77h-63l-72 2q-98 2 -187 52t-89 186v10q0 25 18.5 45.5t52.5 20.5h66q33 0 53.5 -19.5t20.5 -46.5v-10q0 -44 23.5 -59t41.5 -15h135z" />
    <glyph glyph-name="Uring" unicode="&#x16e;" horiz-adv-x="1433" 
d="M729 1780q29 0 50.5 22.5t25.5 50.5q-4 33 -25.5 53.5t-50.5 20.5h-33q-29 0 -50 -20.5t-17 -53.5q-4 -29 17.5 -51t49.5 -22h33zM672 1620q-93 0 -156 68.5t-63 165t63 165t156 68.5h84q92 0 158.5 -70.5t66.5 -166.5q0 -95 -67.5 -162.5t-157.5 -67.5h-84zM1305 520
q0 -216 -157.5 -368t-371.5 -152h-158q-205 0 -351 144t-146 350v1079q0 66 65 65h138q47 0 56 -24.5t9 -54.5v-1065q0 -93 68 -159.5t161 -66.5h158q110 0 184 75.5t74 176.5v1039q0 31 10.5 55t57.5 24h135q68 0 68 -65v-1053z" />
    <glyph glyph-name="uring" unicode="&#x16f;" horiz-adv-x="1433" 
d="M729 1780q29 0 50.5 22.5t25.5 50.5q-4 33 -25.5 53.5t-50.5 20.5h-33q-29 0 -50 -20.5t-17 -53.5q-4 -29 17.5 -51t49.5 -22h33zM672 1620q-93 0 -156 68.5t-63 165t63 165t156 68.5h84q92 0 158.5 -70.5t66.5 -166.5q0 -95 -67.5 -162.5t-157.5 -67.5h-84zM1305 520
q0 -216 -157.5 -368t-371.5 -152h-158q-205 0 -351 144t-146 350v1079q0 66 65 65h138q47 0 56 -24.5t9 -54.5v-1065q0 -93 68 -159.5t161 -66.5h158q110 0 184 75.5t74 176.5v1039q0 31 10.5 55t57.5 24h135q68 0 68 -65v-1053z" />
    <glyph glyph-name="Uhungarumlaut" unicode="&#x170;" horiz-adv-x="1433" 
d="M848 1765q-88 0 -49 66l98 180q37 51 113 51h139q37 0 51 -17t-4 -46l-141 -178q-53 -56 -111 -56h-96zM453 1765q-86 0 -50 66l99 180q37 51 112 51h140q37 0 51 -17t-4 -46l-142 -178q-53 -56 -110 -56h-96zM1305 520q0 -216 -157.5 -368t-371.5 -152h-158
q-205 0 -351 144t-146 350v1079q0 66 65 65h138q47 0 56 -24.5t9 -54.5v-1065q0 -93 68 -159.5t161 -66.5h158q110 0 184 75.5t74 176.5v1039q0 31 10.5 55t57.5 24h135q68 0 68 -65v-1053z" />
    <glyph glyph-name="uhungarumlaut" unicode="&#x171;" horiz-adv-x="1433" 
d="M848 1765q-88 0 -49 66l98 180q37 51 113 51h139q37 0 51 -17t-4 -46l-141 -178q-53 -56 -111 -56h-96zM453 1765q-86 0 -50 66l99 180q37 51 112 51h140q37 0 51 -17t-4 -46l-142 -178q-53 -56 -110 -56h-96zM1305 520q0 -216 -157.5 -368t-371.5 -152h-158
q-205 0 -351 144t-146 350v1079q0 66 65 65h138q47 0 56 -24.5t9 -54.5v-1065q0 -93 68 -159.5t161 -66.5h158q110 0 184 75.5t74 176.5v1039q0 31 10.5 55t57.5 24h135q68 0 68 -65v-1053z" />
    <glyph glyph-name="Uogonek" unicode="&#x172;" horiz-adv-x="1433" 
d="M1305 520q0 -193 -133 -342t-326 -174l-146 -129q-29 -27 -47 -47t-18 -54t22.5 -53.5t61.5 -19.5h39q25 0 44 3t30 23t33 31t44 -2l90 -51q66 -34 -20 -139q-63 -66 -195 -66h-98q-109 0 -188.5 81.5t-79.5 181.5q0 99 23.5 143.5t95.5 91.5q1 0 10 6
q-176 24 -301 161.5t-125 328.5v1079q0 66 65 65h138q47 0 56 -24.5t9 -54.5v-1065q0 -93 68 -159.5t161 -66.5h158q110 0 184 75.5t74 176.5v1039q0 31 10.5 55t57.5 24h135q68 0 68 -65v-1053z" />
    <glyph glyph-name="uogonek" unicode="&#x173;" horiz-adv-x="1433" 
d="M1305 520q0 -193 -133 -342t-326 -174l-146 -129q-29 -27 -47 -47t-18 -54t22.5 -53.5t61.5 -19.5h39q25 0 44 3t30 23t33 31t44 -2l90 -51q66 -34 -20 -139q-63 -66 -195 -66h-98q-109 0 -188.5 81.5t-79.5 181.5q0 99 23.5 143.5t95.5 91.5q1 0 10 6
q-176 24 -301 161.5t-125 328.5v1079q0 66 65 65h138q47 0 56 -24.5t9 -54.5v-1065q0 -93 68 -159.5t161 -66.5h158q110 0 184 75.5t74 176.5v1039q0 31 10.5 55t57.5 24h135q68 0 68 -65v-1053z" />
    <glyph glyph-name="Wcircumflex" unicode="&#x174;" horiz-adv-x="1976" 
d="M1184 1763q-37 0 -61.5 11.5t-59.5 42.5l-76 69l-78 -69q-35 -31 -59.5 -42.5t-61.5 -11.5h-133q-43 0 -53 22.5t23 53.5l192 178q49 56 115 56h106q45 0 71 -15.5t52 -40.5l191 -178q35 -31 23.5 -53.5t-54.5 -22.5h-137zM238 1636q23 0 44 -6t31 -45l267 -1091
q72 279 141 542t137 541q10 59 68 59h98q53 0 66 -53l280 -1089l268 1091q10 39 30 45t44 6h115q58 0 73 -23.5t11 -45.5l-6 -33q-57 -301 -140.5 -618.5t-133.5 -505t-93 -367.5q-8 -18 -15 -30.5t-48 -12.5h-201q-54 0 -64 45q-37 135 -70.5 273.5t-68.5 273.5l-98 385
l-234 -930q-8 -20 -17 -33.5t-44 -13.5h-203q-39 0 -47 12.5t-18 36.5l-367 1485q-4 12 -4 49t26.5 45t57.5 8h115z" />
    <glyph glyph-name="wcircumflex" unicode="&#x175;" horiz-adv-x="1976" 
d="M1184 1763q-37 0 -61.5 11.5t-59.5 42.5l-76 69l-78 -69q-35 -31 -59.5 -42.5t-61.5 -11.5h-133q-43 0 -53 22.5t23 53.5l192 178q49 56 115 56h106q45 0 71 -15.5t52 -40.5l191 -178q35 -31 23.5 -53.5t-54.5 -22.5h-137zM238 1636q23 0 44 -6t31 -45l267 -1091
q72 279 141 542t137 541q10 59 68 59h98q53 0 66 -53l280 -1089l268 1091q10 39 30 45t44 6h115q58 0 73 -23.5t11 -45.5l-6 -33q-57 -301 -140.5 -618.5t-133.5 -505t-93 -367.5q-8 -18 -15 -30.5t-48 -12.5h-201q-54 0 -64 45q-37 135 -70.5 273.5t-68.5 273.5l-98 385
l-234 -930q-8 -20 -17 -33.5t-44 -13.5h-203q-39 0 -47 12.5t-18 36.5l-367 1485q-4 12 -4 49t26.5 45t57.5 8h115z" />
    <glyph glyph-name="Ycircumflex" unicode="&#x176;" horiz-adv-x="1425" 
d="M909 1763q-37 0 -62.5 11.5t-58.5 42.5l-75 69l-78 -69q-35 -31 -59.5 -42.5t-61.5 -11.5h-133q-43 0 -54.5 22.5t23.5 53.5l193 178q49 56 114 56h107q45 0 69.5 -15.5t53.5 -40.5l190 -178q33 -31 23 -53.5t-53 -22.5h-138zM1401 1573q0 -24 -25 -55q0 -2 -1 -2t-1 -3
l-528 -753v-680q0 -31 -8.5 -55.5t-59.5 -24.5h-139q-47 0 -56.5 24.5t-9.5 55.5v684l-540 772q-8 13 -8 39q0 63 63 63h182q37 0 60 -30l383 -568q313 485 387 576q20 23 51 22h184q66 0 66 -65z" />
    <glyph glyph-name="ycircumflex" unicode="&#x177;" horiz-adv-x="1425" 
d="M909 1763q-37 0 -62.5 11.5t-58.5 42.5l-75 69l-78 -69q-35 -31 -59.5 -42.5t-61.5 -11.5h-133q-43 0 -54.5 22.5t23.5 53.5l193 178q49 56 114 56h107q45 0 69.5 -15.5t53.5 -40.5l190 -178q33 -31 23 -53.5t-53 -22.5h-138zM1401 1573q0 -24 -25 -55q0 -2 -1 -2t-1 -3
l-528 -753v-680q0 -31 -8.5 -55.5t-59.5 -24.5h-139q-47 0 -56.5 24.5t-9.5 55.5v684l-540 772q-8 13 -8 39q0 63 63 63h182q37 0 60 -30l383 -568q313 485 387 576q20 23 51 22h184q66 0 66 -65z" />
    <glyph glyph-name="Ydieresis" unicode="&#x178;" horiz-adv-x="1425" 
d="M1075 1827q0 -25 -18.5 -44.5t-46.5 -19.5h-133q-27 0 -44.5 19.5t-17.5 44.5v143q0 25 17.5 44.5t44.5 19.5h133q29 0 47 -19.5t18 -44.5v-143zM608 1827q0 -25 -18.5 -44.5t-44.5 -19.5h-133q-29 0 -46.5 19.5t-17.5 44.5v143q0 25 17.5 44.5t46.5 19.5h133
q27 0 45 -19.5t18 -44.5v-143zM1401 1573q0 -24 -25 -55q0 -2 -1 -2t-1 -3l-528 -753v-680q0 -31 -8.5 -55.5t-59.5 -24.5h-139q-47 0 -56.5 24.5t-9.5 55.5v684l-540 772q-8 13 -8 39q0 63 63 63h182q37 0 60 -30l383 -568q313 485 387 576q20 23 51 22h184q66 0 66 -65z
" />
    <glyph glyph-name="Zacute" unicode="&#x179;" horiz-adv-x="1339" 
d="M582 1769q-86 0 -50 66l99 180q37 51 112 51h140q37 0 51 -17t-4 -46l-142 -178q-53 -56 -110 -56h-96zM109 0q-47 0 -57.5 25.5t-10.5 56.5v88q0 28 18 51l838 1141h-731q-53 0 -67.5 14.5t-14.5 67.5v115q0 31 8 55t62 24h1042q29 0 47.5 -20.5t18.5 -44.5v-129
q0 -28 -17 -45l-813 -1123h776q53 0 66.5 -14t13.5 -67v-113q0 -31 -10 -56.5t-57 -25.5h-1112z" />
    <glyph glyph-name="zacute" unicode="&#x17a;" horiz-adv-x="1339" 
d="M582 1769q-86 0 -50 66l99 180q37 51 112 51h140q37 0 51 -17t-4 -46l-142 -178q-53 -56 -110 -56h-96zM109 0q-47 0 -57.5 25.5t-10.5 56.5v88q0 28 18 51l838 1141h-731q-53 0 -67.5 14.5t-14.5 67.5v115q0 31 8 55t62 24h1042q29 0 47.5 -20.5t18.5 -44.5v-129
q0 -28 -17 -45l-813 -1123h776q53 0 66.5 -14t13.5 -67v-113q0 -31 -10 -56.5t-57 -25.5h-1112z" />
    <glyph glyph-name="Zdotaccent" unicode="&#x17b;" horiz-adv-x="1339" 
d="M807 1829q0 -25 -19.5 -45.5t-48.5 -20.5h-139q-29 0 -47 20.5t-18 45.5v151q0 25 18 45.5t47 20.5h139q29 0 48.5 -20.5t19.5 -45.5v-151zM109 0q-47 0 -57.5 25.5t-10.5 56.5v88q0 28 18 51l838 1141h-731q-53 0 -67.5 14.5t-14.5 67.5v115q0 31 8 55t62 24h1042
q29 0 47.5 -20.5t18.5 -44.5v-129q0 -28 -17 -45l-813 -1123h776q53 0 66.5 -14t13.5 -67v-113q0 -31 -10 -56.5t-57 -25.5h-1112z" />
    <glyph glyph-name="zdotaccent" unicode="&#x17c;" horiz-adv-x="1339" 
d="M807 1829q0 -25 -19.5 -45.5t-48.5 -20.5h-139q-29 0 -47 20.5t-18 45.5v151q0 25 18 45.5t47 20.5h139q29 0 48.5 -20.5t19.5 -45.5v-151zM109 0q-47 0 -57.5 25.5t-10.5 56.5v88q0 28 18 51l838 1141h-731q-53 0 -67.5 14.5t-14.5 67.5v115q0 31 8 55t62 24h1042
q29 0 47.5 -20.5t18.5 -44.5v-129q0 -28 -17 -45l-813 -1123h776q53 0 66.5 -14t13.5 -67v-113q0 -31 -10 -56.5t-57 -25.5h-1112z" />
    <glyph glyph-name="Zcaron" unicode="&#x17d;" horiz-adv-x="1339" 
d="M485 2087q37 0 61.5 -11.5t59.5 -41.5l76 -70l78 70q35 31 59.5 42t61.5 11h133q43 0 53 -22.5t-23 -53.5l-192 -178q-48 -55 -115 -55h-106q-45 0 -70.5 15t-52.5 40l-191 178q-35 31 -23.5 53.5t54.5 22.5h137zM109 0q-47 0 -57.5 25.5t-10.5 56.5v88q0 28 18 51
l838 1141h-731q-53 0 -67.5 14.5t-14.5 67.5v115q0 31 8 55t62 24h1042q29 0 47.5 -20.5t18.5 -44.5v-129q0 -28 -17 -45l-813 -1123h776q53 0 66.5 -14t13.5 -67v-113q0 -31 -10 -56.5t-57 -25.5h-1112z" />
    <glyph glyph-name="zcaron" unicode="&#x17e;" horiz-adv-x="1339" 
d="M485 2087q37 0 61.5 -11.5t59.5 -41.5l76 -70l78 70q35 31 59.5 42t61.5 11h133q43 0 53 -22.5t-23 -53.5l-192 -178q-48 -55 -115 -55h-106q-45 0 -70.5 15t-52.5 40l-191 178q-35 31 -23.5 53.5t54.5 22.5h137zM109 0q-47 0 -57.5 25.5t-10.5 56.5v88q0 28 18 51
l838 1141h-731q-53 0 -67.5 14.5t-14.5 67.5v115q0 31 8 55t62 24h1042q29 0 47.5 -20.5t18.5 -44.5v-129q0 -28 -17 -45l-813 -1123h776q53 0 66.5 -14t13.5 -67v-113q0 -31 -10 -56.5t-57 -25.5h-1112z" />
    <glyph glyph-name="longs" unicode="&#x17f;" horiz-adv-x="2048" 
 />
    <glyph glyph-name="uni0218" unicode="&#x218;" horiz-adv-x="1368" 
d="M674 -514h-86q-44 0 -29 37l33 131h-17q-29 0 -47 20.5t-18 44.5v152q0 25 18.5 45.5t46.5 20.5h160q29 0 48.5 -20.5t19.5 -45.5v-152q6 -8 -6 -26l-74 -176q-10 -20 -20.5 -25.5t-28.5 -5.5zM301 588q68 0 68 -98q0 -32 4 -72q16 -76 78.5 -125t142.5 -49h156
q92 0 171.5 53t79.5 113.5t3.5 95t-33.5 74.5q-43 37 -131 57t-192 45t-328 90.5t-224 325.5v28q0 94 13 142l-3 -2q31 169 172.5 281t315.5 112h156q181 0 291 -87t149 -186.5t35 -218.5q-2 -31 -10.5 -55.5t-55.5 -24.5h-135q-29 0 -46 20.5t-20 45.5q-4 131 -57 185.5
t-151 54.5h-156q-121 0 -194 -109q-32 -48 -34 -113t38 -105t88 -52l235 -66q92 -27 157.5 -44t125.5 -39t123 -63q63 -42 103 -116t40 -156q0 -139 -43.5 -255t-113.5 -177q-132 -116 -369 -116h-156q-135 0 -248 62t-178 169q-72 106 -72 295q0 31 9.5 55.5t56.5 24.5h139
z" />
    <glyph glyph-name="uni0219" unicode="&#x219;" horiz-adv-x="1368" 
d="M674 -514h-86q-44 0 -29 37l33 131h-17q-29 0 -47 20.5t-18 44.5v152q0 25 18.5 45.5t46.5 20.5h160q29 0 48.5 -20.5t19.5 -45.5v-152q6 -8 -6 -26l-74 -176q-10 -20 -20.5 -25.5t-28.5 -5.5zM301 588q68 0 68 -98q0 -32 4 -72q16 -76 78.5 -125t142.5 -49h156
q92 0 171.5 53t79.5 113.5t3.5 95t-33.5 74.5q-43 37 -131 57t-192 45t-328 90.5t-224 325.5v28q0 94 13 142l-3 -2q31 169 172.5 281t315.5 112h156q181 0 291 -87t149 -186.5t35 -218.5q-2 -31 -10.5 -55.5t-55.5 -24.5h-135q-29 0 -46 20.5t-20 45.5q-4 131 -57 185.5
t-151 54.5h-156q-121 0 -194 -109q-32 -48 -34 -113t38 -105t88 -52l235 -66q92 -27 157.5 -44t125.5 -39t123 -63q63 -42 103 -116t40 -156q0 -139 -43.5 -255t-113.5 -177q-132 -116 -369 -116h-156q-135 0 -248 62t-178 169q-72 106 -72 295q0 31 9.5 55.5t56.5 24.5h139
z" />
    <glyph glyph-name="uni021A" unicode="&#x21a;" horiz-adv-x="1310" 
d="M674 -514h-86q-44 0 -29 37l33 131h-17q-29 0 -47 20.5t-18 44.5v152q0 25 18.5 45.5t46.5 20.5h160q29 0 48.5 -20.5t19.5 -45.5v-152q6 -8 -6 -26l-74 -176q-10 -20 -20.5 -25.5t-28.5 -5.5zM793 1374v-1294q0 -31 -9.5 -55.5t-56.5 -24.5h-141q-47 0 -56.5 24.5
t-9.5 55.5v1294h-397q-53 0 -67.5 15.5t-14.5 64.5v105q0 31 9 55t56 24h1092q47 0 57.5 -24.5t10.5 -54.5v-105q0 -49 -13.5 -64.5t-66.5 -15.5h-393z" />
    <glyph glyph-name="uni021B" unicode="&#x21b;" horiz-adv-x="1310" 
d="M674 -514h-86q-44 0 -29 37l33 131h-17q-29 0 -47 20.5t-18 44.5v152q0 25 18.5 45.5t46.5 20.5h160q29 0 48.5 -20.5t19.5 -45.5v-152q6 -8 -6 -26l-74 -176q-10 -20 -20.5 -25.5t-28.5 -5.5zM793 1374v-1294q0 -31 -9.5 -55.5t-56.5 -24.5h-141q-47 0 -56.5 24.5
t-9.5 55.5v1294h-397q-53 0 -67.5 15.5t-14.5 64.5v105q0 31 9 55t56 24h1092q47 0 57.5 -24.5t10.5 -54.5v-105q0 -49 -13.5 -64.5t-66.5 -15.5h-393z" />
    <glyph glyph-name="uni0237" unicode="&#x237;" horiz-adv-x="1394" 
d="M993 1586q0 52 70 52h139q29 0 47.5 -20.5t18.5 -44.5v-1034q0 -225 -158.5 -382t-376.5 -157h-160q-184 0 -334.5 127.5t-158.5 254t-8 161.5v22q0 29 17 49.5t46 20.5h139q29 0 48.5 -20.5t19.5 -49.5v-22q0 -83 22 -135q22 -53 82 -94.5t127 -41.5h160q108 0 185 78.5
t77 188.5v977q-2 18 -2 70z" />
    <glyph glyph-name="circumflex" unicode="&#x2c6;" horiz-adv-x="854" 
d="M608 1331q-37 0 -61.5 11.5t-59.5 41.5l-75 70l-78 -70q-35 -31 -59.5 -42t-61.5 -11h-133q-41 0 -51.5 23.5t20.5 52.5l193 178q48 55 114 55h107q45 0 70.5 -15t52.5 -40l190 -178q35 -31 23.5 -53.5t-54.5 -22.5h-137z" />
    <glyph glyph-name="caron" unicode="&#x2c7;" horiz-adv-x="827" 
d="M219 1638q37 0 61.5 -11t59.5 -42l76 -69l78 69q35 31 59.5 42t60.5 11h134q43 0 53 -22.5t-23 -52.5l-192 -179q-48 -55 -115 -55h-106q-45 0 -71 15.5t-52 39.5l-191 179q-35 31 -23.5 53t54.5 22h137z" />
    <glyph glyph-name="breve" unicode="&#x2d8;" horiz-adv-x="827" 
d="M481 1495q66 0 66 74v10q0 27 20.5 46.5t53.5 19.5h65q35 0 53.5 -20.5t18.5 -45.5v-69q0 -70 -86.5 -125.5t-190.5 -55.5h-63l-72 2q-98 2 -187 52t-89 186v10q0 25 18 45.5t53 20.5h66q33 0 53.5 -19.5t20.5 -46.5v-10q0 -44 23.5 -59t41.5 -15h135z" />
    <glyph glyph-name="dotaccent" unicode="&#x2d9;" horiz-adv-x="827" 
d="M551 1415q0 -25 -19.5 -45t-48.5 -20h-139q-29 0 -47 20.5t-18 44.5v152q0 25 18 45t47 20h139q29 0 48.5 -20.5t19.5 -44.5v-152z" />
    <glyph glyph-name="ring" unicode="&#x2da;" horiz-adv-x="630" 
d="M319 1331q29 0 50.5 22.5t25.5 51.5q-4 33 -25.5 53.5t-50.5 20.5h-32q-29 0 -50.5 -20.5t-17.5 -53.5q-4 -29 17.5 -51.5t50.5 -22.5h32zM262 1171q-94 0 -156.5 70t-62.5 164t62 163.5t157 69.5h84q93 0 159 -70t66 -166t-67.5 -163.5t-157.5 -67.5h-84z" />
    <glyph glyph-name="ogonek" unicode="&#x2db;" horiz-adv-x="753" 
d="M295 -288q0 -34 22.5 -53t61.5 -19h39q59 0 74 22q12 23 33.5 34t43.5 -1l90 -51q64 -34 -20 -140q-62 -65 -195 -65h-98q-109 0 -188.5 81.5t-79.5 181.5q0 99 23.5 143.5t72.5 75.5q50 32 79 47t54 32h262l-209 -186q-29 -27 -47 -47.5t-18 -54.5z" />
    <glyph glyph-name="tilde" unicode="&#x2dc;" horiz-adv-x="811" 
d="M90 1393q-23 10 -31 28q-18 16 0 60l45 110q24 54 100 25q80 -31 138.5 -18.5t138.5 38.5t215 -45q25 -10 35 -28q20 -14 0 -58l-51 -110q-14 -29 -41 -31t-47 8q-61 43 -116.5 37t-115 -21.5t-125 -23.5t-145.5 29z" />
    <glyph glyph-name="hungarumlaut" unicode="&#x2dd;" horiz-adv-x="899" 
d="M487 1337q-85 0 -49 66l99 180q37 51 112 51h139q37 0 51.5 -17.5t-3.5 -45.5l-142 -178q-53 -56 -110 -56h-97zM92 1337q-85 0 -49 66l98 180q37 51 113 51h139q37 0 51.5 -17.5t-4.5 -45.5l-141 -178q-53 -56 -111 -56h-96z" />
    <glyph glyph-name="Wgrave" unicode="&#x1e80;" horiz-adv-x="1976" 
d="M936 1767q-58 0 -111 56l-141 178q-18 29 -4 46t51 17h146q76 0 112 -51l98 -180q36 -66 -49 -66h-102zM238 1636q23 0 44 -6t31 -45l267 -1091q72 279 141 542t137 541q10 59 68 59h98q53 0 66 -53l280 -1089l268 1091q10 39 30 45t44 6h115q58 0 73 -23.5t11 -45.5
l-6 -33q-57 -301 -140.5 -618.5t-133.5 -505t-93 -367.5q-8 -18 -15 -30.5t-48 -12.5h-201q-54 0 -64 45q-37 135 -70.5 273.5t-68.5 273.5l-98 385l-234 -930q-8 -20 -17 -33.5t-44 -13.5h-203q-39 0 -47 12.5t-18 36.5l-367 1485q-4 12 -4 49t26.5 45t57.5 8h115z" />
    <glyph glyph-name="wgrave" unicode="&#x1e81;" horiz-adv-x="1976" 
d="M936 1767q-58 0 -111 56l-141 178q-18 29 -4 46t51 17h146q76 0 112 -51l98 -180q36 -66 -49 -66h-102zM238 1636q23 0 44 -6t31 -45l267 -1091q72 279 141 542t137 541q10 59 68 59h98q53 0 66 -53l280 -1089l268 1091q10 39 30 45t44 6h115q58 0 73 -23.5t11 -45.5
l-6 -33q-57 -301 -140.5 -618.5t-133.5 -505t-93 -367.5q-8 -18 -15 -30.5t-48 -12.5h-201q-54 0 -64 45q-37 135 -70.5 273.5t-68.5 273.5l-98 385l-234 -930q-8 -20 -17 -33.5t-44 -13.5h-203q-39 0 -47 12.5t-18 36.5l-367 1485q-4 12 -4 49t26.5 45t57.5 8h115z" />
    <glyph glyph-name="Wacute" unicode="&#x1e82;" horiz-adv-x="1976" 
d="M922 1769q-86 0 -50 66l99 180q37 51 112 51h140q37 0 51 -17t-4 -46l-142 -178q-53 -56 -110 -56h-96zM238 1636q23 0 44 -6t31 -45l267 -1091q72 279 141 542t137 541q10 59 68 59h98q53 0 66 -53l280 -1089l268 1091q10 39 30 45t44 6h115q58 0 73 -23.5t11 -45.5
l-6 -33q-57 -301 -140.5 -618.5t-133.5 -505t-93 -367.5q-8 -18 -15 -30.5t-48 -12.5h-201q-54 0 -64 45q-37 135 -70.5 273.5t-68.5 273.5l-98 385l-234 -930q-8 -20 -17 -33.5t-44 -13.5h-203q-39 0 -47 12.5t-18 36.5l-367 1485q-4 12 -4 49t26.5 45t57.5 8h115z" />
    <glyph glyph-name="wacute" unicode="&#x1e83;" horiz-adv-x="1976" 
d="M922 1769q-86 0 -50 66l99 180q37 51 112 51h140q37 0 51 -17t-4 -46l-142 -178q-53 -56 -110 -56h-96zM238 1636q23 0 44 -6t31 -45l267 -1091q72 279 141 542t137 541q10 59 68 59h98q53 0 66 -53l280 -1089l268 1091q10 39 30 45t44 6h115q58 0 73 -23.5t11 -45.5
l-6 -33q-57 -301 -140.5 -618.5t-133.5 -505t-93 -367.5q-8 -18 -15 -30.5t-48 -12.5h-201q-54 0 -64 45q-37 135 -70.5 273.5t-68.5 273.5l-98 385l-234 -930q-8 -20 -17 -33.5t-44 -13.5h-203q-39 0 -47 12.5t-18 36.5l-367 1485q-4 12 -4 49t26.5 45t57.5 8h115z" />
    <glyph glyph-name="Wdieresis" unicode="&#x1e84;" horiz-adv-x="1976" 
d="M1352 1833q0 -25 -18.5 -44.5t-47.5 -19.5h-133q-27 0 -44 19.5t-17 44.5v143q0 25 17 44.5t44 19.5h133q29 0 47.5 -19.5t18.5 -44.5v-143zM885 1833q0 -25 -18.5 -44.5t-45.5 -19.5h-133q-29 0 -46 19.5t-17 44.5v143q0 25 17 44.5t46 19.5h133q27 0 45.5 -19.5
t18.5 -44.5v-143zM238 1636q23 0 44 -6t31 -45l267 -1091q72 279 141 542t137 541q10 59 68 59h98q53 0 66 -53l280 -1089l268 1091q10 39 30 45t44 6h115q58 0 73 -23.5t11 -45.5l-6 -33q-57 -301 -140.5 -618.5t-133.5 -505t-93 -367.5q-8 -18 -15 -30.5t-48 -12.5h-201
q-54 0 -64 45q-37 135 -70.5 273.5t-68.5 273.5l-98 385l-234 -930q-8 -20 -17 -33.5t-44 -13.5h-203q-39 0 -47 12.5t-18 36.5l-367 1485q-4 12 -4 49t26.5 45t57.5 8h115z" />
    <glyph glyph-name="wdieresis" unicode="&#x1e85;" horiz-adv-x="1976" 
d="M1352 1833q0 -25 -18.5 -44.5t-47.5 -19.5h-133q-27 0 -44 19.5t-17 44.5v143q0 25 17 44.5t44 19.5h133q29 0 47.5 -19.5t18.5 -44.5v-143zM885 1833q0 -25 -18.5 -44.5t-45.5 -19.5h-133q-29 0 -46 19.5t-17 44.5v143q0 25 17 44.5t46 19.5h133q27 0 45.5 -19.5
t18.5 -44.5v-143zM238 1636q23 0 44 -6t31 -45l267 -1091q72 279 141 542t137 541q10 59 68 59h98q53 0 66 -53l280 -1089l268 1091q10 39 30 45t44 6h115q58 0 73 -23.5t11 -45.5l-6 -33q-57 -301 -140.5 -618.5t-133.5 -505t-93 -367.5q-8 -18 -15 -30.5t-48 -12.5h-201
q-54 0 -64 45q-37 135 -70.5 273.5t-68.5 273.5l-98 385l-234 -930q-8 -20 -17 -33.5t-44 -13.5h-203q-39 0 -47 12.5t-18 36.5l-367 1485q-4 12 -4 49t26.5 45t57.5 8h115z" />
    <glyph glyph-name="quoteleft" unicode="&#x2018;" horiz-adv-x="462" 
d="M170 1063q-25 0 -45.5 19.5t-20.5 47.5v451q0 29 20.5 47.5t45.5 18.5h125q25 0 45 -18.5t20 -47.5v-451q0 -29 -20.5 -48t-44.5 -19h-125z" />
    <glyph glyph-name="quoteright" unicode="&#x2019;" horiz-adv-x="462" 
d="M170 1063q-25 0 -45.5 19.5t-20.5 47.5v451q0 29 20.5 47.5t45.5 18.5h125q25 0 45 -18.5t20 -47.5v-451q0 -29 -20.5 -48t-44.5 -19h-125z" />
    <glyph glyph-name="quotesinglbase" unicode="&#x201a;" horiz-adv-x="462" 
d="M170 -102q-25 0 -45.5 19.5t-20.5 47.5v447q0 29 20.5 47t45.5 18h125q25 0 45 -18.5t20 -46.5v-447q0 -29 -20.5 -48t-44.5 -19h-125z" />
    <glyph glyph-name="quotedblleft" unicode="&#x201c;" horiz-adv-x="862" 
d="M571 1063q-25 0 -45 19.5t-20 47.5v451q0 29 20.5 47.5t44.5 18.5h125q25 0 45.5 -18.5t20.5 -47.5v-451q0 -29 -20.5 -48t-45.5 -19h-125zM170 1063q-25 0 -45.5 19.5t-20.5 47.5v451q0 29 20.5 47.5t45.5 18.5h125q25 0 45 -18.5t20 -47.5v-451q0 -29 -20.5 -48
t-44.5 -19h-125z" />
    <glyph glyph-name="quotedblright" unicode="&#x201d;" horiz-adv-x="862" 
d="M571 1063q-25 0 -45 19.5t-20 47.5v451q0 29 20.5 47.5t44.5 18.5h125q25 0 45.5 -18.5t20.5 -47.5v-451q0 -29 -20.5 -48t-45.5 -19h-125zM170 1063q-25 0 -45.5 19.5t-20.5 47.5v451q0 29 20.5 47.5t45.5 18.5h125q25 0 45 -18.5t20 -47.5v-451q0 -29 -20.5 -48
t-44.5 -19h-125z" />
    <glyph glyph-name="quotedblbase" unicode="&#x201e;" horiz-adv-x="862" 
d="M571 -100q-25 0 -45 19.5t-20 47.5v447q0 29 20.5 47t44.5 18h125q25 0 45.5 -18.5t20.5 -46.5v-447q0 -29 -20.5 -48t-45.5 -19h-125zM170 -100q-25 0 -45.5 19.5t-20.5 47.5v447q0 29 20.5 47t45.5 18h125q25 0 45 -18.5t20 -46.5v-447q0 -29 -20.5 -48t-44.5 -19h-125
z" />
    <glyph glyph-name="dagger" unicode="&#x2020;" 
d="M655 1145q0 -25 -19.5 -45.5t-47.5 -20.5h-195v-1112q0 -25 -19.5 -45t-47.5 -20h-138q-29 0 -46 20.5t-17 44.5l-4 1112h-187q-29 0 -46 20.5t-17 45.5v129q0 25 16.5 45t44.5 20h189v234q0 25 18.5 45t46.5 20h140q29 0 48 -20.5t19 -44.5v-234h195q29 0 48 -20.5
t19 -44.5v-129z" />
    <glyph glyph-name="daggerdbl" unicode="&#x2021;" 
d="M655 285q0 -25 -19.5 -45.5t-47.5 -20.5h-195v-252q0 -25 -19.5 -45t-47.5 -20h-138q-29 0 -46 20.5t-17 44.5l-2 252h-186q-29 0 -47.5 20.5t-18.5 45.5v129q0 25 18.5 45t47.5 20h184v600h-187q-29 0 -46 20.5t-17 45.5v129q0 25 16.5 45t44.5 20h189v234q0 25 18.5 45
t46.5 20h140q29 0 48 -20.5t19 -44.5v-234h195q29 0 48 -20.5t19 -44.5v-129q0 -25 -19.5 -45.5t-47.5 -20.5h-195v-600h195q29 0 48 -20.5t19 -44.5v-129z" />
    <glyph glyph-name="bullet" unicode="&#x2022;" horiz-adv-x="727" 
d="M123 811q0 98 68.5 170t169.5 72t174 -71.5t73 -170.5t-73 -170.5t-174 -71.5t-169.5 72t-68.5 170z" />
    <glyph glyph-name="ellipsis" unicode="&#x2026;" horiz-adv-x="1435" 
d="M1300 66q0 -25 -19 -45.5t-48 -20.5h-139q-29 0 -47.5 20.5t-18.5 45.5v151q0 25 18.5 45.5t47.5 20.5h139q29 0 48 -20.5t19 -45.5v-151zM850 66q0 -25 -19.5 -45.5t-48.5 -20.5h-139q-29 0 -47 20.5t-18 45.5v151q0 25 18 45.5t47 20.5h139q29 0 48.5 -20.5t19.5 -45.5
v-151zM399 66q0 -25 -19.5 -45.5t-47.5 -20.5h-139q-29 0 -47.5 20.5t-18.5 45.5v151q0 25 18.5 45.5t47.5 20.5h139q29 0 48 -20.5t19 -45.5v-151z" />
    <glyph glyph-name="perthousand" unicode="&#x2030;" horiz-adv-x="2613" 
d="M436 0h-160q-29 0 -34.5 18.5t10.5 42.5l1071 1721q16 25 26.5 35t39.5 10h159q29 0 36 -20.5t-9 -45.5l-1071 -1720q-16 -25 -27.5 -33t-40.5 -8zM717 1137q0 -132 -94 -226t-224 -94h-32q-122 0 -211.5 87.5t-89.5 217.5v400q0 130 89.5 217.5t211.5 87.5h32
q130 0 224 -94t94 -226v-370zM526 1507q0 53 -36.5 89t-90.5 36h-32q-45 0 -78 -31.5t-33 -78.5v-400q0 -47 33 -78.5t78 -31.5h32q53 0 90 36.5t37 88.5v370zM1384 0q-122 0 -211.5 87.5t-89.5 217.5v400q0 130 89.5 217.5t211.5 87.5h33q128 0 223 -95t95 -225v-371
q0 -130 -94.5 -224.5t-223.5 -94.5h-33zM1542 690q0 51 -36 88t-89 37h-33q-45 0 -77.5 -31.5t-32.5 -78.5v-400q0 -47 32.5 -78.5t77.5 -31.5h33q53 0 89 35.5t36 88.5v371zM2183 0q-122 0 -211.5 87.5t-89.5 217.5v400q0 130 89.5 217.5t211.5 87.5h33q128 0 222.5 -94.5
t94.5 -225.5v-371q0 -131 -94 -225t-223 -94h-33zM2341 690q0 51 -36 88t-89 37h-33q-45 0 -77.5 -31.5t-32.5 -78.5v-400q0 -47 32.5 -78.5t77.5 -31.5h33q53 0 89 35.5t36 88.5v371z" />
    <glyph glyph-name="guilsinglleft" unicode="&#x2039;" horiz-adv-x="1007" 
d="M825 385q0 -25 -16 -41l-104 -104q-16 -16 -41 -16.5t-41 16.5q-172 172 -267.5 263t-139.5 136t-53 60.5t-9 29.5t2 23.5t16 26t44 46t83 83t136 135t204 202.5q16 16 41 16.5t41 -16.5l106 -104q34 -50 0 -82l-325 -326l307 -307q16 -16 16 -41z" />
    <glyph glyph-name="guilsinglright" unicode="&#x203a;" horiz-adv-x="1007" 
d="M844 729q0 -14 -9.5 -29.5t-53.5 -60.5t-139 -136t-267 -263q-16 -16 -41 -16.5t-41 16.5l-105 104q-16 16 -16 41t16 41l308 307l-326 326q-16 15 -16 37t16 45l106 104q16 16 41 16t41 -16q119 -121 202 -202.5t96 -94.5l97 -97q83 -83 87 -95.5t4 -26.5z" />
    <glyph glyph-name="Euro" unicode="&#x20ac;" horiz-adv-x="1546" 
d="M1313 1034q-27 0 -40 12.5t-24 32.5q-16 47 -30.5 86t-40.5 74q-116 160 -332 160q-108 0 -203.5 -62.5t-144.5 -160.5h473q29 0 48 -20.5t19 -45.5v-129q0 -25 -19.5 -45.5t-47.5 -20.5h-514v-190h514q29 0 48 -20.5t19 -45.5v-129q0 -25 -19.5 -45t-47.5 -20h-473
q49 -100 144.5 -162.5t203.5 -62.5q209 0 336 163q46 61 73 177l-2 -5q8 55 64 56h137q29 0 47.5 -20.5t18.5 -57.5t-31 -125t-95.5 -172t-197 -181.5t-350.5 -97.5t-397 138t-236 350h-129q-27 0 -44 20.5t-17 44.5v129q0 25 16 45.5t45 20.5h106v190h-106
q-29 0 -47.5 20.5t-18.5 45.5v129q0 25 18.5 45.5t47.5 20.5h131q59 211 237 350t415 139t417.5 -154.5t231.5 -396.5q-12 -80 -66 -80h-137z" />
    <glyph glyph-name="trademark" unicode="&#x2122;" horiz-adv-x="1609" 
d="M1348 805q-39 0 -39 39v467l-166 -201q-9 -18 -35 -18h-64q-23 0 -32 18l-166 201v-467q0 -39 -39 -39h-107q-39 0 -38 39v610h-150v-610q0 -39 -41 -39h-104q-37 0 -37 39v610h-211q-37 0 -37 37v102q0 39 37 39h684q20 0 31 -16l243 -297l244 297q10 16 31 16h102
q39 0 39 -39v-749q0 -39 -39 -39h-106z" />
  </font>
</defs>
</svg>
